<?xml version="1.0" encoding="UTF-8"?>
<svg viewBox="0 0 91.296 79.129" xmlns="http://www.w3.org/2000/svg">
<defs>
<style>.a{fill:#0091FF;}</style>
</defs>
<g transform="translate(-58.9 -154.6)">
<path class="a" transform="translate(0)" d="m140.8 163.75h-21.349v-2.613a6.552 6.552 0 0 0-6.533-6.533h-16.74a6.552 6.552 0 0 0-6.533 6.533v2.613h-21.354a9.392 9.392 0 0 0-9.391 9.391v14.086h36.094v-0.367a5.733 5.733 0 0 1 5.716-5.716h7.676a5.733 5.733 0 0 1 5.716 5.716v0.367h36.098v-14.086a9.392 9.392 0 0 0-9.4-9.391zm-46.791-2.613a2.178 2.178 0 0 1 2.164-2.164h16.74a2.178 2.178 0 0 1 2.164 2.164v2.613h-21.063z"/>
<path class="a" transform="translate(0 -53.549)" d="M114.1,248.081a5.733,5.733,0,0,1-5.716,5.716H100.71a5.733,5.733,0,0,1-5.716-5.716V245.1H58.9v32.787a9.392,9.392,0,0,0,9.391,9.391H140.8a9.392,9.392,0,0,0,9.391-9.391V245.1H114.1Z"/>
<path class="a" transform="translate(-56.685 -42.839)" d="m165.07 240.07a2.692 2.692 0 0 0 2.695-2.695v-7.676a2.692 2.692 0 0 0-2.695-2.695h-7.676a2.692 2.692 0 0 0-2.695 2.695v7.676a2.692 2.692 0 0 0 2.695 2.695z"/>
</g>
</svg>
