<svg xmlns="http://www.w3.org/2000/svg" width="32.734" height="66.327" viewBox="0 0 32.734 66.327"><defs><style>.a{fill:#fff;}</style></defs><path class="a" d="M1264.293,989.827a4.833,4.833,0,0,1-.966-.1,4.784,4.784,0,0,1-3.722-3.724,4.83,4.83,0,0,1-.1-.965V928.286a4.784,4.784,0,0,1,3.822-4.688,4.855,4.855,0,0,1,.964-.1h23.162a4.851,4.851,0,0,1,.966.1,4.79,4.79,0,0,1,3.444,2.826,4.718,4.718,0,0,1,.279.9,4.81,4.81,0,0,1,.1.964v56.755a4.819,4.819,0,0,1-.1.966,4.752,4.752,0,0,1-.72,1.71,4.8,4.8,0,0,1-2.105,1.734,4.725,4.725,0,0,1-.9.279,4.833,4.833,0,0,1-.964.1Zm-1.08-64.294a2.887,2.887,0,0,0-1.764,2.663V985a2.886,2.886,0,0,0,2.889,2.89h23.117a2.887,2.887,0,0,0,2.89-2.89V928.2a2.886,2.886,0,0,0-2.89-2.889h-3c-.309,0-.483.136-.517.4a3.691,3.691,0,0,1-.074.411,2.847,2.847,0,0,1-.22.624,1.61,1.61,0,0,1-.445.569,1.193,1.193,0,0,1-.751.249H1269.35a1.177,1.177,0,0,1-.731-.243,1.658,1.658,0,0,1-.449-.558,2.868,2.868,0,0,1-.23-.62,2.672,2.672,0,0,1-.076-.427.466.466,0,0,0-.139-.328.343.343,0,0,0-.226-.081h-3.161A2.871,2.871,0,0,0,1263.213,925.533Zm15.822.112a.542.542,0,1,0,.383-.159A.541.541,0,0,0,1279.035,925.645Zm-5.125.383a.317.317,0,0,0,.316.316h3.431a.316.316,0,1,0,0-.632h-3.431A.317.317,0,0,0,1273.909,926.028Zm-3,61.225a.2.2,0,1,1,0-.406h9.978a.2.2,0,1,1,0,.406Z" transform="translate(-1259.507 -923.5)"/></svg>