<?xml version="1.0" encoding="UTF-8"?>
<svg viewBox="0 0 24.413 32.654" xmlns="http://www.w3.org/2000/svg">
<defs>
<style>.a{fill:#8b8b8b;}.b{fill:#454545;}.c{fill:#fb0;}</style>
</defs>
<g transform="translate(-615 -416.61)">
<g transform="translate(615 428.62)">
<path class="a" transform="translate(-3.928 -9.399)" d="M22.8,28.406H7.573a.834.834,0,0,0-.845.786.817.817,0,0,0,.821.857H22.779a.834.834,0,0,0,.845-.786A.824.824,0,0,0,22.8,28.406Z"/>
<path class="b" transform="translate(-3.372 -5.625)" d="M23.978,7.884a2.233,2.233,0,0,0-.716-1.666,2.3,2.3,0,0,0-1.555-.593H5.651a2.3,2.3,0,0,0-1.578.61,2.217,2.217,0,0,0-.7,1.719,28.218,28.218,0,0,0,1.4,8.014A14.009,14.009,0,0,0,7.346,20.6a8.1,8.1,0,0,0,4.57,2.863h3.526a7.458,7.458,0,0,0,2.593-1.144,10.668,10.668,0,0,0,3.408-3.79h0c.117.006.235.012.346.012a6.224,6.224,0,0,0,4.23-1.607,5.267,5.267,0,0,0,1.766-3.907,5.555,5.555,0,0,0-3.807-5.139Zm-1.742,8.982a24.9,24.9,0,0,0,1.631-7.239s0-.006.006,0a4.249,4.249,0,0,1,1.514,1.226,3.532,3.532,0,0,1,.751,2.171,4.075,4.075,0,0,1-3.9,3.843Z"/>
</g>
<path class="c" transform="translate(434.43 416.54)" d="M188.64,5.719a3.35,3.35,0,0,1,0,4.73.284.284,0,0,0,0,.4.276.276,0,0,0,.2.081.3.3,0,0,0,.2-.081,3.915,3.915,0,0,0,0-5.538l-.023-.023a3.35,3.35,0,0,1,0-4.73.284.284,0,0,0-.4-.4,3.915,3.915,0,0,0,0,5.538Z"/>
<path class="c" transform="translate(438.25 416.54)" d="M188.64,5.719a3.35,3.35,0,0,1,0,4.73.284.284,0,0,0,0,.4.276.276,0,0,0,.2.081.3.3,0,0,0,.2-.081,3.915,3.915,0,0,0,0-5.538l-.023-.023a3.35,3.35,0,0,1,0-4.73.284.284,0,0,0-.4-.4,3.915,3.915,0,0,0,0,5.538Z"/>
</g>
</svg>
