<?xml version="1.0" encoding="UTF-8"?>
<svg viewBox="0 0 89.773 85.105" xmlns="http://www.w3.org/2000/svg">
<defs>
<style>.a{fill:#fff;}</style>
</defs>
<path class="a" transform="translate(-2.354 -3.297)" d="M27.579,88.4c2.149,0,3.61-1.08,6.188-3.37L47.777,72.5h25.57c12.119,0,18.78-6.826,18.78-18.879V22.175c0-12.01-6.661-18.879-18.78-18.879H21.133c-12.119,0-18.78,6.826-18.78,18.879v31.45c0,12.053,6.7,18.879,18.694,18.879H22.9V82.959C22.9,86.285,24.614,88.4,27.579,88.4Zm1.8-8.035V68.616c0-2.333-.9-3.2-3.18-3.2H21.262c-8.079,0-11.818-4.1-11.818-11.88V22.262c0-7.776,3.739-11.88,11.818-11.88H73.218c7.993,0,11.818,4.1,11.818,11.88V53.539c0,7.776-3.825,11.88-11.818,11.88H47.433a5.887,5.887,0,0,0-5.114,2.03ZM26.5,27.705H67.932a2.419,2.419,0,0,0,0-4.838H26.5a2.363,2.363,0,0,0-2.364,2.376A2.411,2.411,0,0,0,26.5,27.705Zm0,13.176H67.932a2.419,2.419,0,0,0,0-4.838H26.5a2.363,2.363,0,0,0-2.364,2.376A2.411,2.411,0,0,0,26.5,40.881Zm0,13.219H53.536a2.441,2.441,0,0,0,0-4.882H26.5a2.442,2.442,0,0,0,0,4.882Z"/>
</svg>
