<svg xmlns="http://www.w3.org/2000/svg" xmlns:xlink="http://www.w3.org/1999/xlink" width="146.261" height="52.286" viewBox="0 0 146.261 52.286"><defs><style>.a{clip-rule:evenodd;}.b{clip-path:url(#a);}.c{fill:#1bcbff;}.d{fill:#606f76;}.e{fill:#585f69;}</style><clipPath id="a"><path class="a" d="M621.664,408.981c-1.479-2.2-.74-3.981,1.609-3.981h11.095c2.368,0,3.113,1.794,1.642,3.981l-3.514,3.153,8.179,36.288-11.837,8.864L617,448.422l8.179-36.288Z" transform="translate(-617 -405)"/></clipPath></defs><g class="b" transform="translate(122.586)"><path class="c" d="M.009.018,26.544,0l-.009,13.919L0,13.936Z" transform="matrix(-0.799, 0.602, -0.602, -0.799, 25.974, 1.61)"/><path class="d" d="M1.011.028,43.071,0c.557,0,1.008.3,1.008.676l0,3.731c0,.374-.452.677-1.009.677l-42.06.028C.451,5.112,0,4.81,0,4.436L0,.705C0,.331.454.028,1.011.028Z" transform="matrix(-0.799, 0.602, -0.602, -0.799, 29.599, 12.204)"/><path class="c" d="M1.011.028,43.071,0c.557,0,1.008.3,1.008.676l0,3.731c0,.374-.452.677-1.009.677l-42.06.028C.451,5.112,0,4.81,0,4.436L0,.705C0,.331.454.028,1.011.028Z" transform="matrix(-0.799, 0.602, -0.602, -0.799, 29.599, 25.579)"/><path class="d" d="M1.011.028,43.071,0c.557,0,1.008.3,1.008.676l0,3.731c0,.374-.452.677-1.009.677l-42.06.028C.451,5.112,0,4.81,0,4.436L0,.705C0,.331.454.028,1.011.028Z" transform="matrix(-0.799, 0.602, -0.602, -0.799, 29.599, 38.955)"/></g><path class="e" d="M261.072,378.455a4.961,4.961,0,0,0,3.708,1.256v2.269q-4.384,0-5.915-3.188a5.846,5.846,0,0,1-2.5,2.375,8.454,8.454,0,0,1-3.847.812h-8.182a12.383,12.383,0,0,1-4.735-.873,7.575,7.575,0,0,1-3.4-2.682,7.689,7.689,0,0,1-1.272-4.535,15.334,15.334,0,0,1,.766-4.475h2.36a13.4,13.4,0,0,0-.7,4.046,5.624,5.624,0,0,0,1.962,4.7,7.867,7.867,0,0,0,5.026,1.547h8.182q4.966,0,4.965-5.056v-15.17h2.36v15.17A5.245,5.245,0,0,0,261.072,378.455Zm-9.869-9.071h-7.662v-2.176h.981a3.428,3.428,0,0,1-.291-4.076,3.831,3.831,0,0,1,1.471-1.318,4.393,4.393,0,0,1,2.069-.49,5.739,5.739,0,0,1,2.513.644l-1.012,1.992a3.714,3.714,0,0,0-1.5-.337,1.806,1.806,0,0,0-1.287.46,1.564,1.564,0,0,0-.49,1.2,1.777,1.777,0,0,0,.6,1.41,2.18,2.18,0,0,0,1.486.521H251.2Z" transform="translate(-234.93 -359.484)"/><path class="e" d="M275.092,388a1.438,1.438,0,0,1,.95-.307h6.13v2.268h-6.13a1.419,1.419,0,0,1-.965-.307,1.041,1.041,0,0,1-.353-.827A1.021,1.021,0,0,1,275.092,388Z" transform="translate(-246.192 -367.468)"/><path class="e" d="M283.641,388a1.438,1.438,0,0,1,.95-.307h6.13v2.268h-6.13a1.417,1.417,0,0,1-.965-.307,1.039,1.039,0,0,1-.353-.827A1.021,1.021,0,0,1,283.641,388Z" transform="translate(-248.612 -367.468)"/><path class="e" d="M298.5,379.373a4.963,4.963,0,0,0,3.708,1.256V382.9q-4.384,0-5.915-3.188a5.843,5.843,0,0,1-2.5,2.375,8.45,8.45,0,0,1-3.847.812,1.35,1.35,0,0,1-.95-.338,1.111,1.111,0,0,1-.368-.858.963.963,0,0,1,.353-.781,1.471,1.471,0,0,1,.965-.292q4.965,0,4.965-5.056V368.8h2.36v6.773A5.245,5.245,0,0,0,298.5,379.373ZM281,365.153a1.382,1.382,0,0,1-.429-1.011,1.336,1.336,0,0,1,.429-1,1.411,1.411,0,0,1,1.012-.414,1.412,1.412,0,0,1,1.41,1.41,1.407,1.407,0,0,1-.414,1.011,1.334,1.334,0,0,1-1,.429A1.383,1.383,0,0,1,281,365.153Zm4.9,0a1.382,1.382,0,0,1-.429-1.011,1.336,1.336,0,0,1,.429-1,1.411,1.411,0,0,1,1.012-.414,1.412,1.412,0,0,1,1.41,1.41,1.407,1.407,0,0,1-.414,1.011,1.334,1.334,0,0,1-1,.429A1.383,1.383,0,0,1,285.9,365.153Z" transform="translate(-247.845 -360.403)"/><path class="e" d="M330.05,369.423a8.166,8.166,0,0,1,3.264,3.157,8.985,8.985,0,0,1,1.165,4.567v7.325H310.237a1.419,1.419,0,0,1-.965-.307,1.041,1.041,0,0,1-.352-.827,1.023,1.023,0,0,1,.367-.827,1.439,1.439,0,0,1,.95-.307H313V368.29h2.329v6.068a10.254,10.254,0,0,1,3.908-4.444,11.15,11.15,0,0,1,6.053-1.624A9.877,9.877,0,0,1,330.05,369.423Zm2.069,7.723a6.322,6.322,0,0,0-1.808-4.72,6.781,6.781,0,0,0-4.965-1.777,10.256,10.256,0,0,0-4.9,1.21,10.1,10.1,0,0,0-3.662,3.264,8.478,8.478,0,0,0-1.486,4.536V382.2h16.825Z" transform="translate(-255.87 -361.976)"/><path class="e" d="M358.169,385.293h-3.4v1.2a6.466,6.466,0,0,1-1.1,4.121,4.079,4.079,0,0,1-3.371,1.364,11.536,11.536,0,0,1-2.819-.4l.49-2.114a9.7,9.7,0,0,0,1.931.245,2.309,2.309,0,0,0,1.9-.751,3.917,3.917,0,0,0,.613-2.466V371.2h2.36v11.829h3.4Z" transform="translate(-266.78 -362.798)"/><path class="e" d="M379.553,382.318H361.87a1.469,1.469,0,0,1-.966-.292.994.994,0,0,1-.352-.812,1.069,1.069,0,0,1,.352-.873,1.473,1.473,0,0,1,.966-.292H366.9a6.636,6.636,0,0,1-1.777-2.559,8.83,8.83,0,0,1,.4-7.2,7.275,7.275,0,0,1,3.141-3,11.8,11.8,0,0,1,5.562-1.149h5.332Zm-2.36-13.822h-3.034q-3.831,0-5.562,1.671a5.536,5.536,0,0,0-1.732,4.153,5.388,5.388,0,0,0,1.732,4.106q1.732,1.625,5.624,1.624h2.973Zm-6.13-5.394a1.379,1.379,0,0,1-.429-1.011,1.33,1.33,0,0,1,.429-1,1.408,1.408,0,0,1,1.012-.414,1.414,1.414,0,0,1,1.41,1.41,1.4,1.4,0,0,1-.414,1.011,1.33,1.33,0,0,1-1,.429A1.381,1.381,0,0,1,371.064,363.1Z" transform="translate(-270.481 -359.823)"/><path class="e" d="M4.316-16.571q3.53,0,5.026.153l-.115,1.624H4.956a1.12,1.12,0,0,0-.787.217,1.051,1.051,0,0,0-.224.767v2.277H8.588v1.663H3.945V-4.74H1.784v-9.5a2.18,2.18,0,0,1,.684-1.72A2.683,2.683,0,0,1,4.316-16.571Zm19.607.026v7.188a5.531,5.531,0,0,1-1,3.741,4.464,4.464,0,0,1-3.415,1.094,4.768,4.768,0,0,1-3.562-1.1,5.365,5.365,0,0,1-1.042-3.735v-7.188h2.136v7.188A3.926,3.926,0,0,0,17.56-7a2.259,2.259,0,0,0,1.861.652A2.2,2.2,0,0,0,21.25-7a3.965,3.965,0,0,0,.512-2.353v-7.188ZM34.6-16.7a5.126,5.126,0,0,1,3.166.748,3.335,3.335,0,0,1,.927,2.718,3.6,3.6,0,0,1-.512,2.085,2.306,2.306,0,0,1-1.688.883v.09a1.923,1.923,0,0,1,.927.544,2.693,2.693,0,0,1,.646,1.2l1.062,3.7H36.854L35.908-8.4a1.444,1.444,0,0,0-.48-.819,1.433,1.433,0,0,0-.876-.243l-2.123-.013V-4.74H30.306V-16.546Q31.93-16.7,34.6-16.7Zm-2.174,1.765v3.709h2.123a2.31,2.31,0,0,0,1.554-.4,2,2,0,0,0,.428-1.484,1.921,1.921,0,0,0-.422-1.452,2.394,2.394,0,0,0-1.56-.377ZM48.455-16.75a15.306,15.306,0,0,1,3.709.4l-.141,1.522q-1.624-.064-3.5-.064a3.515,3.515,0,0,0-1.56.23q-.4.23-.4,1.113a1.518,1.518,0,0,0,.281,1.042,2.4,2.4,0,0,0,1.036.531l2.264.7a3.344,3.344,0,0,1,1.887,1.253,3.938,3.938,0,0,1,.544,2.187,5.224,5.224,0,0,1-.217,1.65,1.971,1.971,0,0,1-.748,1.01,3.184,3.184,0,0,1-1.279.505,11.349,11.349,0,0,1-1.938.134,20.039,20.039,0,0,1-3.837-.371l.141-1.573q2.8.064,3.747.064a3.065,3.065,0,0,0,1.567-.269q.39-.269.39-1.164A1.592,1.592,0,0,0,50.137-8.9a2.211,2.211,0,0,0-.978-.505l-2.379-.755a3.265,3.265,0,0,1-1.823-1.228,3.868,3.868,0,0,1-.556-2.187,4.966,4.966,0,0,1,.224-1.637,1.844,1.844,0,0,1,.755-.966,3.237,3.237,0,0,1,1.234-.454A11.848,11.848,0,0,1,48.455-16.75Zm13.11.2h2.085a.74.74,0,0,1,.767.576L67.96-4.74H65.773l-.985-3.338H60.414L59.442-4.74H57.254l3.53-11.23A.773.773,0,0,1,61.565-16.546Zm.819,1.624-.281,1.01-1.177,4.08h3.351L63.1-13.911q-.217-.793-.256-1.01Zm19.249.217H78V-4.74H75.838V-14.7H72.232v-1.842h9.4Zm8.608-1.842h2.085a.74.74,0,0,1,.767.576L96.635-4.74H94.448l-.985-3.338H89.089L88.117-4.74H85.93l3.53-11.23A.773.773,0,0,1,90.24-16.546Zm.819,1.624-.281,1.01L89.6-9.831h3.351l-1.177-4.08q-.217-.793-.256-1.01ZM110.6-16.546l-3.185,4.758a4.091,4.091,0,0,1-.78.9v.051a3.905,3.905,0,0,1,.921,1.01l3.274,5.09h-2.4l-3.377-5.321h-1.164A6.049,6.049,0,0,1,104-8.9V-4.74h-2.136V-16.546H104v3.479a8.009,8.009,0,0,1-.115,1.369h1.164l3.223-4.847Z" transform="translate(-0.505 56.41)"/></svg>