<svg xmlns="http://www.w3.org/2000/svg" width="289.859" height="587.323" viewBox="0 0 289.859 587.323"><defs><style>.a{fill:#fff;}</style></defs><g transform="translate(-160.001 -183.105)"><g transform="translate(22918 17621)"><g transform="translate(-22742 -17731.6)"><path class="a" d="M-22557.287-17417.594l14.123-13.99,57.1,6.848,11.043,70.646v457.389l-11.043,31.119-41.254,6.252h-198.2l-24.209-20.723v-537.541l24.209-13.99,60.51,6.848,11.582,14.859h90.236Z" transform="translate(22742 17731.6)"/></g><path d="M1301.886,1510.823a42.811,42.811,0,0,1-8.553-.863,42.359,42.359,0,0,1-32.963-32.977,42.666,42.666,0,0,1-.863-8.542V965.878a42.452,42.452,0,0,1,.866-8.549,42.024,42.024,0,0,1,6.374-15.143,42.292,42.292,0,0,1,35.14-18.685h205.1a42.841,42.841,0,0,1,8.554.863,42.356,42.356,0,0,1,32.963,32.978,42.662,42.662,0,0,1,.863,8.542v502.561a42.708,42.708,0,0,1-.863,8.552,42.377,42.377,0,0,1-32.978,32.965,42.8,42.8,0,0,1-8.539.861Zm-9.563-569.32a25.568,25.568,0,0,0-15.625,23.578v502.963a25.559,25.559,0,0,0,25.585,25.586h204.7a25.567,25.567,0,0,0,25.589-25.586V965.081a25.564,25.564,0,0,0-25.589-25.588h-26.6c-2.739,0-4.279,1.2-4.582,3.579a33.25,33.25,0,0,1-.658,3.641,25.356,25.356,0,0,1-1.948,5.523,14.307,14.307,0,0,1-3.942,5.042,10.582,10.582,0,0,1-6.65,2.205H1346.662a10.411,10.411,0,0,1-6.467-2.148,14.654,14.654,0,0,1-3.975-4.946,25.339,25.339,0,0,1-2.042-5.491,23.782,23.782,0,0,1-.673-3.785,4.123,4.123,0,0,0-1.236-2.9,3.031,3.031,0,0,0-2-.72h-27.987A25.436,25.436,0,0,0,1292.323,941.5Zm140.105,1a4.8,4.8,0,1,0,3.391-1.405A4.795,4.795,0,0,0,1432.428,942.5Zm-45.386,3.39a2.807,2.807,0,0,0,2.8,2.8h30.387a2.8,2.8,0,1,0,0-5.6h-30.387A2.807,2.807,0,0,0,1387.042,945.888Zm-26.583,542.145a1.8,1.8,0,1,1,0-3.6h88.355a1.8,1.8,0,1,1,0,3.6Z" transform="translate(-24017.506 -18361.395)"/></g></g></svg>