<?xml version="1.0" encoding="UTF-8"?>
<svg viewBox="0 0 173.72 62.104" xmlns="http://www.w3.org/2000/svg">
<defs>
<style>.a,.c{fill:#fff;}.a{clip-rule:evenodd;}.b{clip-path:url(#a);}</style>
<clipPath id="a">
<path class="a" transform="translate(-617 -405)" d="M622.54,409.728c-1.757-2.611-.88-4.728,1.912-4.728H637.63c2.813,0,3.7,2.13,1.95,4.728l-4.174,3.745,9.714,43.1L631.06,467.1,617,456.575l9.714-43.1Z"/>
</clipPath>
</defs>
<g transform="translate(18689 2637.7)">
<g class="b" transform="translate(-18544 -2637.7)">
<path class="c" transform="matrix(-.799 .602 -.602 -.799 30.85 1.912)" d="M.011.021,31.528,0l-.011,16.532L0,16.553Z"/>
<path class="c" transform="matrix(-.799 .602 -.602 -.799 35.156 14.496)" d="M1.2.033,51.158,0c.662,0,1.2.359,1.2.8l0,4.431c0,.444-.537.8-1.2.8L1.2,6.072c-.662,0-1.2-.359-1.2-.8L0,.838C0,.394.54.034,1.2.033Z"/>
<path class="c" transform="matrix(-.799 .602 -.602 -.799 35.156 30.382)" d="M1.2.033,51.158,0c.662,0,1.2.359,1.2.8l0,4.431c0,.444-.537.8-1.2.8L1.2,6.072c-.662,0-1.2-.359-1.2-.8L0,.838C0,.394.54.034,1.2.033Z"/>
<path class="c" transform="matrix(-.799 .602 -.602 -.799 35.156 46.269)" d="M1.2.033,51.158,0c.662,0,1.2.359,1.2.8l0,4.431c0,.444-.537.8-1.2.8L1.2,6.072c-.662,0-1.2-.359-1.2-.8L0,.838C0,.394.54.034,1.2.033Z"/>
</g>
<g transform="translate(-18689 -2637.7)">
<path class="c" transform="translate(-234.93 -359.48)" d="M265.981,382.017a5.893,5.893,0,0,0,4.4,1.492V386.2q-5.207,0-7.026-3.786a6.944,6.944,0,0,1-2.966,2.821,10.041,10.041,0,0,1-4.569.965h-9.719a14.708,14.708,0,0,1-5.624-1.037,9,9,0,0,1-4.041-3.186,9.132,9.132,0,0,1-1.511-5.386,18.213,18.213,0,0,1,.91-5.316h2.8a15.915,15.915,0,0,0-.837,4.806,6.68,6.68,0,0,0,2.33,5.587,9.344,9.344,0,0,0,5.97,1.838h9.719q5.9,0,5.9-6.006V359.484h2.8V377.5A6.23,6.23,0,0,0,265.981,382.017Zm-11.722-10.775h-9.1v-2.585h1.165a4.071,4.071,0,0,1-.346-4.841,4.55,4.55,0,0,1,1.747-1.565,5.217,5.217,0,0,1,2.457-.582,6.816,6.816,0,0,1,2.985.765l-1.2,2.366a4.412,4.412,0,0,0-1.783-.4,2.145,2.145,0,0,0-1.529.546,1.857,1.857,0,0,0-.582,1.42,2.111,2.111,0,0,0,.709,1.675,2.589,2.589,0,0,0,1.765.618h3.713Z"/>
<path class="c" transform="translate(-240.84 -363.67)" d="m275.16 388.06a1.709 1.709 0 0 1 1.128-0.365h7.28v2.694h-7.28a1.685 1.685 0 0 1-1.146-0.364 1.236 1.236 0 0 1-0.419-0.983 1.213 1.213 0 0 1 0.437-0.982z"/>
<path class="c" transform="translate(-242.1 -363.67)" d="m283.71 388.06a1.708 1.708 0 0 1 1.128-0.365h7.28v2.694h-7.28a1.683 1.683 0 0 1-1.146-0.364 1.233 1.233 0 0 1-0.419-0.983 1.213 1.213 0 0 1 0.437-0.982z"/>
<path class="c" transform="translate(-241.7 -359.97)" d="M301.873,382.5a5.894,5.894,0,0,0,4.4,1.492v2.695q-5.207,0-7.026-3.786a6.939,6.939,0,0,1-2.966,2.821,10.037,10.037,0,0,1-4.569.965,1.6,1.6,0,0,1-1.128-.4,1.319,1.319,0,0,1-.437-1.019,1.144,1.144,0,0,1,.419-.927,1.748,1.748,0,0,1,1.146-.347q5.9,0,5.9-6.006V369.94h2.8v8.044A6.23,6.23,0,0,0,301.873,382.5Zm-20.8-16.89a1.641,1.641,0,0,1-.509-1.2,1.586,1.586,0,0,1,.509-1.184,1.675,1.675,0,0,1,1.2-.491,1.678,1.678,0,0,1,1.674,1.675,1.671,1.671,0,0,1-.491,1.2,1.585,1.585,0,0,1-1.183.509A1.642,1.642,0,0,1,281.076,365.608Zm5.824,0a1.641,1.641,0,0,1-.509-1.2,1.586,1.586,0,0,1,.509-1.184,1.676,1.676,0,0,1,1.2-.491,1.678,1.678,0,0,1,1.674,1.675,1.671,1.671,0,0,1-.491,1.2,1.584,1.584,0,0,1-1.183.509A1.643,1.643,0,0,1,286.9,365.608Z"/>
<path class="c" transform="translate(-245.91 -360.79)" d="m334.02 369.64a9.7 9.7 0 0 1 3.877 3.75 10.672 10.672 0 0 1 1.384 5.424v8.7h-28.795a1.685 1.685 0 0 1-1.146-0.364 1.236 1.236 0 0 1-0.418-0.983 1.215 1.215 0 0 1 0.436-0.983 1.71 1.71 0 0 1 1.128-0.364h3.276v-16.527h2.767v7.211a12.18 12.18 0 0 1 4.641-5.278 13.244 13.244 0 0 1 7.189-1.929 11.732 11.732 0 0 1 5.661 1.343zm2.457 9.174a7.509 7.509 0 0 0-2.147-5.606 8.054 8.054 0 0 0-5.9-2.111 12.182 12.182 0 0 0-5.824 1.438 12 12 0 0 0-4.35 3.878 10.07 10.07 0 0 0-1.765 5.387v3.021h19.984z"/>
<path class="c" transform="translate(-251.63 -361.22)" d="M360.177,387.94h-4.041v1.42a7.68,7.68,0,0,1-1.31,4.9,4.845,4.845,0,0,1-4,1.62,13.7,13.7,0,0,1-3.349-.473l.583-2.511a11.526,11.526,0,0,0,2.293.29,2.743,2.743,0,0,0,2.256-.892,4.653,4.653,0,0,0,.728-2.93V371.2h2.8v14.05h4.041Z"/>
<path class="c" transform="translate(-253.57 -359.66)" d="M383.121,386.381h-21a1.745,1.745,0,0,1-1.147-.347,1.181,1.181,0,0,1-.418-.964,1.27,1.27,0,0,1,.418-1.037,1.749,1.749,0,0,1,1.147-.347h5.97a7.883,7.883,0,0,1-2.111-3.039,10.488,10.488,0,0,1,.474-8.554,8.642,8.642,0,0,1,3.731-3.568,14.013,14.013,0,0,1,6.607-1.365h6.333Zm-2.8-16.418h-3.6q-4.55,0-6.607,1.984a6.575,6.575,0,0,0-2.057,4.933,6.4,6.4,0,0,0,2.057,4.877q2.057,1.93,6.68,1.929h3.531Zm-7.28-6.407a1.638,1.638,0,0,1-.509-1.2,1.58,1.58,0,0,1,.509-1.183,1.673,1.673,0,0,1,1.2-.491,1.679,1.679,0,0,1,1.674,1.674,1.668,1.668,0,0,1-.492,1.2,1.579,1.579,0,0,1-1.182.51A1.64,1.64,0,0,1,373.037,363.556Z"/>
<path class="c" transform="translate(-.265 63.857)" d="M4.792-16.538q4.193,0,5.97.182l-.137,1.929H5.551a1.33,1.33,0,0,0-.934.258,1.249,1.249,0,0,0-.266.911v2.7H9.866v1.975H4.351v6.092H1.784V-13.773A2.589,2.589,0,0,1,2.6-15.816,3.187,3.187,0,0,1,4.792-16.538Zm23.289.03V-7.97q0,3.145-1.185,4.444t-4.056,1.3q-2.993,0-4.231-1.306T17.37-7.97v-8.538h2.537V-7.97a4.663,4.663,0,0,0,.615,2.8,2.684,2.684,0,0,0,2.21.775,2.618,2.618,0,0,0,2.172-.775,4.709,4.709,0,0,0,.608-2.8v-8.538Zm12.685-.182a6.088,6.088,0,0,1,3.76.889,3.962,3.962,0,0,1,1.1,3.228,4.279,4.279,0,0,1-.608,2.476,2.739,2.739,0,0,1-2.005,1.048v.106a2.284,2.284,0,0,1,1.1.646,3.2,3.2,0,0,1,.767,1.42l1.261,4.39h-2.7L42.315-6.83a1.715,1.715,0,0,0-.57-.972A1.7,1.7,0,0,0,40.7-8.091l-2.522-.015v5.621H35.661V-16.507Q37.59-16.69,40.765-16.69Zm-2.583,2.1v4.406H40.7a2.744,2.744,0,0,0,1.846-.471,2.37,2.37,0,0,0,.509-1.762,2.282,2.282,0,0,0-.5-1.724,2.843,2.843,0,0,0-1.853-.448ZM57.218-16.75a18.18,18.18,0,0,1,4.406.471l-.167,1.808q-1.929-.076-4.163-.076a4.174,4.174,0,0,0-1.853.273q-.471.273-.471,1.322a1.8,1.8,0,0,0,.334,1.238,2.854,2.854,0,0,0,1.231.63l2.689.836A3.972,3.972,0,0,1,61.464-8.76a4.678,4.678,0,0,1,.646,2.6,6.2,6.2,0,0,1-.258,1.96A2.341,2.341,0,0,1,60.963-3a3.782,3.782,0,0,1-1.519.6,13.479,13.479,0,0,1-2.3.16,23.8,23.8,0,0,1-4.557-.441l.167-1.869q3.327.076,4.451.076a3.641,3.641,0,0,0,1.861-.319q.463-.319.463-1.382a1.891,1.891,0,0,0-.311-1.253,2.626,2.626,0,0,0-1.162-.6l-2.826-.9a3.878,3.878,0,0,1-2.165-1.458,4.6,4.6,0,0,1-.661-2.6,5.9,5.9,0,0,1,.266-1.945,2.19,2.19,0,0,1,.9-1.147,3.845,3.845,0,0,1,1.466-.539A14.072,14.072,0,0,1,57.218-16.75Zm15.571.243h2.476a.879.879,0,0,1,.911.684L80.385-2.485h-2.6L76.618-6.45h-5.2L70.268-2.485h-2.6l4.193-13.338A.918.918,0,0,1,72.789-16.507Zm.972,1.929-.334,1.2-1.4,4.846h3.98l-1.4-4.846q-.258-.942-.3-1.2Zm22.863.258H92.311V-2.485H89.743V-14.32H85.459v-2.188H96.625Zm10.224-2.188h2.476a.879.879,0,0,1,.911.684l4.208,13.338h-2.6l-1.17-3.965h-5.2l-1.155,3.965h-2.6l4.193-13.338A.918.918,0,0,1,106.849-16.507Zm.972,1.929-.334,1.2-1.4,4.846h3.98l-1.4-4.846q-.258-.942-.3-1.2Zm23.213-1.929-3.783,5.651a4.859,4.859,0,0,1-.927,1.063v.061a4.638,4.638,0,0,1,1.094,1.2l3.889,6.046h-2.856l-4.011-6.32h-1.382a7.186,7.186,0,0,1,.137,1.382v4.937h-2.537V-16.507H123.2v4.132a9.515,9.515,0,0,1-.137,1.626h1.382l3.828-5.758Z"/>
</g>
</g>
</svg>
