<?xml version="1.0" encoding="UTF-8"?>
<svg fill="none" viewBox="0 0 80 80" xmlns="http://www.w3.org/2000/svg">
<path d="m62.625 54.007c-21.79 0-35.688-13.596-35.688-35.344 0.0246-4.8981 0.8789-9.7568 2.5268-14.37 0.3135-0.62899 0.486-1.3188 0.5053-2.0214 0.0035-0.32018-0.0576-0.63778-0.1798-0.93374-0.1223-0.29596-0.303-0.56419-0.5314-0.78859s-0.4998-0.40036-0.7979-0.51731c-0.2981-0.11695-0.6167-0.17249-0.9368-0.16328-0.835 0.028188-1.6604 0.18764-2.4459 0.4725-14.996 6.0086-25.078 22.096-25.078 39.081 0 23.807 18.144 40.878 41.908 40.878 17.371 0 32.514-10.509 37.618-23.85 0.2945-0.7679 0.4543-1.5808 0.4725-2.403 0.0094-0.324-0.0454-0.6466-0.1613-0.9494-0.1159-0.3027-0.2906-0.5795-0.514-0.8144-0.2234-0.2348-0.491-0.4232-0.7876-0.5541-0.2965-0.131-0.616-0.2019-0.9401-0.2088-0.6624 0.0026-1.318 0.1339-1.9304 0.3866-4.2173 1.3483-8.6131 2.0561-13.04 2.0997z" fill="#8B8B8B"/>
</svg>
