<?xml version="1.0" encoding="UTF-8"?>
<svg viewBox="0 0 31 31" xmlns="http://www.w3.org/2000/svg">
<g transform="translate(-1007.7 -777)" data-name="Group 2899">
<g transform="translate(1007.7 777)" fill="none" stroke="#606f76" stroke-width="1.5" data-name="Rectangle 2662">
<rect width="31" height="31" rx="2" stroke="none"/>
<rect x=".75" y=".75" width="29.5" height="29.5" rx="1.25" fill="none"/>
</g>
<path transform="translate(1012.6 780.39)" d="M7.291,20.27.314,13.293a1.073,1.073,0,0,1,0-1.518l1.518-1.518a1.073,1.073,0,0,1,1.518,0l4.7,4.7L18.115,4.892a1.073,1.073,0,0,1,1.518,0l1.518,1.518a1.073,1.073,0,0,1,0,1.518L8.808,20.27A1.073,1.073,0,0,1,7.291,20.27Z" fill="#1bcbff" data-name="Icon awesome-check"/>
</g>
</svg>
