<svg xmlns="http://www.w3.org/2000/svg" width="16.912" height="17.608" viewBox="0 0 16.912 17.608"><defs><style>.a{fill:#f82b60;}</style></defs><path class="a" d="M10.111,11.433a.725.725,0,0,0,.741-.786V3.115a.747.747,0,1,0-1.492,0v7.531A.732.732,0,0,0,10.111,11.433Zm0,8.5a8.515,8.515,0,0,0,8.451-8.451,8.386,8.386,0,0,0-2.85-6.28.755.755,0,1,0-1,1.126,6.915,6.915,0,0,1-4.6,12.069A6.915,6.915,0,0,1,5.5,6.323.752.752,0,1,0,4.509,5.2a8.394,8.394,0,0,0-2.859,6.28A8.522,8.522,0,0,0,10.111,19.929Z" transform="translate(-1.65 -2.32)"/></svg>