<?xml version="1.0" encoding="UTF-8"?>
<svg viewBox="0 0 30.688 30.688" xmlns="http://www.w3.org/2000/svg">
<defs>
<style>.a{fill:none;}.b{fill:#1bcbff;}.c,.d{stroke:none;}.d{fill:#606f76;}</style>
</defs>
<g transform="translate(-436 -758)">
<g class="a" transform="translate(436 758)">
<path class="c" d="M15.344,0A15.344,15.344,0,1,1,0,15.344,15.344,15.344,0,0,1,15.344,0Z"/>
<path class="d" d="m15.344 1c-3.8315 0-7.4336 1.4921-10.143 4.2013-2.7093 2.7093-4.2013 6.3114-4.2013 10.143s1.4921 7.4336 4.2013 10.143c2.7093 2.7093 6.3114 4.2013 10.143 4.2013s7.4336-1.4921 10.143-4.2013 4.2013-6.3114 4.2013-10.143-1.4921-7.4336-4.2013-10.143c-2.7093-2.7093-6.3114-4.2013-10.143-4.2013m0-1c8.4744 0 15.344 6.8699 15.344 15.344 0 8.4744-6.8699 15.344-15.344 15.344-8.4744 0-15.344-6.8699-15.344-15.344 0-8.4744 6.8699-15.344 15.344-15.344z"/>
</g>
<path class="b" transform="translate(443.22 765.22)" d="M8.123,0A8.123,8.123,0,1,1,0,8.123,8.123,8.123,0,0,1,8.123,0Z"/>
</g>
</svg>
