<?xml version="1.0" encoding="UTF-8"?>
<svg viewBox="0 0 70.688 31.688" xmlns="http://www.w3.org/2000/svg">
<g transform="translate(-1073 -558)" data-name="Group 2925">
<g transform="translate(65.312 -219)" data-name="Group 2886">
<g transform="translate(1007.7 777)" fill="none" stroke="#606f76" stroke-width="1.5" data-name="Rectangle 2662">
<rect width="31" height="31" rx="2" stroke="none"/>
<rect x=".75" y=".75" width="29.5" height="29.5" rx="1.25" fill="none"/>
</g>
<path transform="translate(1012.6 780.39)" d="M7.291,20.27.314,13.293a1.073,1.073,0,0,1,0-1.518l1.518-1.518a1.073,1.073,0,0,1,1.518,0l4.7,4.7L18.115,4.892a1.073,1.073,0,0,1,1.518,0l1.518,1.518a1.073,1.073,0,0,1,0,1.518L8.808,20.27A1.073,1.073,0,0,1,7.291,20.27Z" fill="#1bcbff" data-name="Icon awesome-check"/>
</g>
<g transform="translate(677 -199)" data-name="Group 2885">
<g transform="translate(436 758)" fill="none" data-name="Path 760">
<path d="M15.344,0A15.344,15.344,0,1,1,0,15.344,15.344,15.344,0,0,1,15.344,0Z"/>
<path d="m15.344 1c-3.8315 0-7.4336 1.4921-10.143 4.2013-2.7093 2.7093-4.2013 6.3114-4.2013 10.143s1.4921 7.4336 4.2013 10.143c2.7093 2.7093 6.3114 4.2013 10.143 4.2013s7.4336-1.4921 10.143-4.2013 4.2013-6.3114 4.2013-10.143-1.4921-7.4336-4.2013-10.143c-2.7093-2.7093-6.3114-4.2013-10.143-4.2013m0-1c8.4744 0 15.344 6.8699 15.344 15.344 0 8.4744-6.8699 15.344-15.344 15.344-8.4744 0-15.344-6.8699-15.344-15.344 0-8.4744 6.8699-15.344 15.344-15.344z" fill="#606f76"/>
</g>
<path transform="translate(443.22 765.22)" d="M8.123,0A8.123,8.123,0,1,1,0,8.123,8.123,8.123,0,0,1,8.123,0Z" fill="#1bcbff" data-name="Path 761"/>
</g>
</g>
</svg>
