<?xml version="1.0" encoding="UTF-8"?>
<svg viewBox="0 0 88.536 71.898" xmlns="http://www.w3.org/2000/svg">
<defs>
<style>.a{fill:#0091FF;}</style>
</defs>
<path class="a" transform="translate(-1.416 -3.102)" d="m54.62 73.8a35.6 35.6 0 0 0 35.332-35.37 35.323 35.323 0 0 0-70.365-4.449 23.07 23.07 0 0 1 22.471 18.81 32.311 32.311 0 0 1 12.562-2.505c8.749 0 16.376 3.253 21.05 8.375a29.149 29.149 0 0 1-21.087 8.939 29.523 29.523 0 0 1-13.423-3.256 20.619 20.619 0 0 1-2.767 5.421 34.657 34.657 0 0 0 16.227 4.035zm-0.037-29.462c-6.8 0-11.964-5.945-11.964-13.348 0-6.992 5.272-13.049 11.964-13.049 6.73 0 12.039 6.057 12 13.049 1e-3 7.41-5.158 13.31-12 13.351zm-35.108 30.662a18.059 18.059 0 0 0 0-36.117 18.059 18.059 0 0 0 0 36.117zm0-6.319a2.284 2.284 0 0 1-2.393-2.243v-7.253h-6.693a2.262 2.262 0 1 1 0-4.524h6.693v-7.216a2.261 2.261 0 0 1 2.393-2.245 2.261 2.261 0 0 1 2.393 2.243v7.216h6.692a2.262 2.262 0 0 1 0 4.524h-6.692v7.253a2.284 2.284 0 0 1-2.393 2.245z"/>
</svg>
