<?xml version="1.0" encoding="UTF-8"?>
<svg viewBox="0 0 50.719 33.595" xmlns="http://www.w3.org/2000/svg">
<defs>
<style>.a{fill:#1bcbff;}</style>
</defs>
<g transform="translate(-510.86 -585.79)">
<g transform="translate(510.86 585.79)">
<path class="a" transform="translate(-2.861 -4.791)" d="m9.606 38.386h21.933c4.243 0 6.745-2.437 6.745-6.636v-20.344c0-4.2-2.306-6.615-6.549-6.615h-22.129c-4.069 0-6.745 2.415-6.745 6.636v20.366c0 4.2 2.503 6.593 6.745 6.593zm31.55-10.531 7.333 6.332a3.878 3.878 0 0 0 2.393 1.066 2.66 2.66 0 0 0 2.7-2.894v-21.519a2.66 2.66 0 0 0-2.7-2.894 3.828 3.828 0 0 0-2.393 1.066l-7.333 6.332z"/>
</g>
</g>
</svg>
