<?xml version="1.0" encoding="UTF-8"?>
<svg viewBox="0 0 323.38 102.33" xmlns="http://www.w3.org/2000/svg">
<g transform="translate(-252.5 -848.17)" data-name="Group 2973">
<text transform="translate(254 937)" fill="#606f76" font-family="Helvetica-Bold, Helvetica" font-size="20" font-weight="700" letter-spacing=".045em" data-name="Jobs are available on our app"><tspan x="0" y="0">Jobs are available on our app</tspan></text>
<path transform="translate(20410 17447)" d="m-20156-16498h287" fill="none" stroke="#fb0" stroke-linecap="round" stroke-width="3" data-name="Path 809"/>
<path transform="matrix(.695 -.719 .719 .695 580.44 942.4)" d="M27.957-53.063a2.283,2.283,0,0,0,2.356-2.356v-6.247h.436c6.387,0,10.278,1.867,13,6.963a2.553,2.553,0,0,0,2.46,1.571c1.222,0,2.164-1.169,2.164-3.368,0-12.669-5.584-20.4-17.625-20.4h-.436v-6.212a2.363,2.363,0,0,0-2.391-2.443c-.925,0-1.536.419-2.6,1.309L11.5-71.351a2.89,2.89,0,0,0-.942,2.042,2.92,2.92,0,0,0,.942,2.042L25.322-54.3A3.841,3.841,0,0,0,27.957-53.063Z" fill="#ffbb25" data-name="Path 810"/>
</g>
</svg>
