<?xml version="1.0" encoding="UTF-8"?>
<svg viewBox="0 0 91.523 41.367" xmlns="http://www.w3.org/2000/svg">
<g transform="translate(-1554.6 -1684.1)" data-name="Group 2790">
<g transform="translate(4 -2)" fill="#0091ff" data-name="Group 2783">
<path transform="translate(1544 1729)" d="M16.2-1.5a9.729,9.729,0,0,0,9.627-9.627A9.693,9.693,0,0,0,16.2-20.754a9.693,9.693,0,0,0-9.627,9.627A9.693,9.693,0,0,0,16.2-1.5Zm.018-3.326a1.4,1.4,0,0,1-1.441-1.367V-9.76H11.415a1.392,1.392,0,0,1-1.367-1.386,1.388,1.388,0,0,1,1.367-1.367h3.363v-3.566a1.393,1.393,0,0,1,1.441-1.367,1.388,1.388,0,0,1,1.423,1.367v3.566h3.344a1.376,1.376,0,0,1,1.367,1.367A1.38,1.38,0,0,1,20.987-9.76H17.642v3.566A1.388,1.388,0,0,1,16.22-4.826Z" data-name="Path 716"/>
<path transform="translate(-18810 -15312)" d="m20448 17036h-15.559c1.1-1.545 1.193-3.906 0.27-6.48a16.312 16.312 0 0 0-5.139-6.982 16.532 16.532 0 0 1 8.967-2.516 16.849 16.849 0 0 1 11.252 4.123 11.694 11.694 0 0 1 4.264 8.324c2e-3 2.408-1.289 3.531-4.055 3.531zm-22.82 0h-26.014c-3.324 0-4.809-0.973-4.809-3.15a8.8 8.8 0 0 1 1.254-4.262 14.9 14.9 0 0 1 3.57-4.137 21.489 21.489 0 0 1 25.971 0 14.91 14.91 0 0 1 3.566 4.137 8.817 8.817 0 0 1 1.25 4.262c1e-3 2.178-1.478 3.15-4.788 3.15zm-33.256 0h-12.844a9.485 9.485 0 0 0-0.674-13.26 17.125 17.125 0 0 1 9.4-2.719 16.55 16.55 0 0 1 8.988 2.516 16.281 16.281 0 0 0-5.139 6.982c-0.924 2.574-0.826 4.934 0.266 6.479zm44.615-19.15a7.074 7.074 0 0 1-5.234-2.367 8.5 8.5 0 0 1-2.2-5.8 7.721 7.721 0 0 1 7.434-7.961 7.141 7.141 0 0 1 5.229 2.33 8.2 8.2 0 0 1 2.2 5.65c3e-3 4.493-3.331 8.148-7.429 8.148zm-48.711 0a7.077 7.077 0 0 1-5.244-2.365 8.486 8.486 0 0 1-2.187-5.781 8.089 8.089 0 0 1 2.35-5.807 7.145 7.145 0 0 1 5.082-2.174 7.711 7.711 0 0 1 7.412 7.961 8.53 8.53 0 0 1-2.187 5.8 7.056 7.056 0 0 1-5.226 2.366zm24.355-0.461a8.125 8.125 0 0 1-6.012-2.715 9.813 9.813 0 0 1-2.535-6.648 9.44 9.44 0 0 1 2.533-6.5 8.215 8.215 0 0 1 6.014-2.676c4.7 0 8.525 4.105 8.525 9.152a9.812 9.812 0 0 1-2.516 6.67 8.112 8.112 0 0 1-6.008 2.717z" data-name="Subtraction 9"/>
</g>
</g>
</svg>
