<svg id="Component_123_4" data-name="Component 123 – 4" xmlns="http://www.w3.org/2000/svg" xmlns:xlink="http://www.w3.org/1999/xlink" width="481.95" height="135.595" viewBox="0 0 481.95 135.595">
  <defs>
    <clipPath id="clip-path">
      <path id="business-tie-glyph" d="M627.878,414.283c-3.449-5.126-1.727-9.283,3.753-9.283H657.5c5.522,0,7.259,4.183,3.828,9.283l-8.195,7.353L672.21,506.26,644.6,526.932,617,506.26l19.073-84.625Z" transform="translate(-617 -405)" clip-rule="evenodd"/>
    </clipPath>
  </defs>
  <g id="Tie" transform="translate(334.678 0)">
    <g id="Mask_Group_2" data-name="Mask Group 2" transform="translate(0 0)" clip-path="url(#clip-path)">
      <path id="Path_470" data-name="Path 470" d="M.021.041,61.9,0l-.021,32.458L0,32.5Z" transform="matrix(-0.799, 0.602, -0.602, -0.799, 60.57, 3.753)" fill="#1bcbff"/>
      <path id="Path_51" data-name="Path 51" d="M2.359.065,100.442,0c1.3,0,2.351.7,2.351,1.576l-.006,8.7c0,.871-1.054,1.579-2.353,1.58l-98.083.065c-1.3,0-2.351-.7-2.351-1.576l.006-8.7C.006.773,1.06.066,2.359.065Z" transform="matrix(-0.799, 0.602, -0.602, -0.799, 69.024, 28.46)" fill="#2f2f2f"/>
      <path id="Path_51-2" data-name="Path 51" d="M2.359.065,100.442,0c1.3,0,2.351.7,2.351,1.576l-.006,8.7c0,.871-1.054,1.579-2.353,1.58l-98.083.065c-1.3,0-2.351-.7-2.351-1.576l.006-8.7C.006.773,1.06.066,2.359.065Z" transform="matrix(-0.799, 0.602, -0.602, -0.799, 69.024, 59.651)" fill="#1bcbff"/>
      <path id="Path_51-3" data-name="Path 51" d="M2.359.065,100.442,0c1.3,0,2.351.7,2.351,1.576l-.006,8.7c0,.871-1.054,1.579-2.353,1.58l-98.083.065c-1.3,0-2.351-.7-2.351-1.576l.006-8.7C.006.773,1.06.066,2.359.065Z" transform="matrix(-0.799, 0.602, -0.602, -0.799, 69.024, 90.842)" fill="#2f2f2f"/>
    </g>
  </g>
  <path id="Joob" d="M1.162-23.174H17.021q2.256,8.75,14.629,8.75,8.75,0,12.339-5.674t3.589-17.227v-62.822H65.352v62.275q0,19.961-8.477,29.6T29.668,1.367q-12.441,0-20.1-6.494T1.162-23.174Zm77.861-13.6q0-16.748,9.673-27.275T114.229-74.58q16.68,0,25.908,10.117t9.229,27.686q0,17.5-9.4,27.822T114.229,1.367q-16.68,0-25.942-10.425T79.023-36.777Zm17.773,0q0,24.2,17.432,24.2a14.983,14.983,0,0,0,12.681-6.289q4.683-6.289,4.683-17.91,0-23.857-17.363-23.857a15.073,15.073,0,0,0-12.715,6.289Q96.8-48.057,96.8-36.777Zm61.455,0q0-16.748,9.673-27.275T193.457-74.58q16.68,0,25.908,10.117t9.229,27.686q0,17.5-9.4,27.822T193.457,1.367q-16.68,0-25.942-10.425T158.252-36.777Zm17.773,0q0,24.2,17.432,24.2a14.983,14.983,0,0,0,12.681-6.289q4.683-6.289,4.683-17.91,0-23.857-17.363-23.857a15.073,15.073,0,0,0-12.715,6.289Q176.025-48.057,176.025-36.777Zm78.34,32.744-3.828,5.4H240.9V-100.488l17.09-4.1v34.18a28.086,28.086,0,0,1,14.9-4.17q16.064,0,25.908,10.151t9.844,26.011q0,18.389-9.912,29.087t-26.865,10.7A28.644,28.644,0,0,1,254.365-4.033Zm3.623-51.748v38.213a12.648,12.648,0,0,0,10.186,4.443q12.373,0,17.534-5.879t5.161-18.8q0-22.285-21.328-22.285Q261.953-60.088,257.988-55.781Z" transform="translate(-1.162 109.499)" fill="#2f2f2f"/>
  <path id="Y" d="M40.739,11.506Q38.063,18.664,29.266,23.38A42.751,42.751,0,0,1,8.763,28.1V13.312q19.333,0,19.333-9.7,0-6.422-5.352-19.667L.334-71.644H17.66l19.533,49.5,17.593-49.5H72.112Z" transform="translate(409.838 107.499)" fill="#2f2f2f"/>
</svg>
