<svg xmlns="http://www.w3.org/2000/svg" xmlns:xlink="http://www.w3.org/1999/xlink" width="407.939" height="250.467" viewBox="0 0 407.939 250.467"><defs><style>.a,.b{fill:#fff;}.a{opacity:0;}.c,.j{fill:none;}.c{stroke:#cfd3d5;}.d{fill:#606f76;}.e{fill:rgba(60,60,67,0.6);}.f{fill:#f82b60;}.g{fill:#5fc777;}.h{fill:#8e8e8e;}.i{stroke:none;}.k{filter:url(#a);}</style><filter id="a" x="0" y="0" width="407.939" height="250.467" filterUnits="userSpaceOnUse"><feOffset dx="-3" dy="3" input="SourceAlpha"/><feGaussianBlur stdDeviation="10.5" result="b"/><feFlood flood-opacity="0.161"/><feComposite operator="in" in2="b"/><feComposite in="SourceGraphic"/></filter></defs><g transform="translate(19064.5 7592.5)"><rect class="a" width="313" height="151" transform="translate(-19013 -7533)"/><g class="k" transform="matrix(1, 0, 0, 1, -19064.5, -7592.5)"><path class="b" d="M0,0H344.939V187.467H0Z" transform="translate(34.5 28.5)"/></g><path d="M.656-4.857a2.9,2.9,0,0,0,3.2,2.932A2.941,2.941,0,0,0,7.067-5.134v-7.02H5.283v7.006c0,1.086-.519,1.66-1.452,1.66A1.335,1.335,0,0,1,2.4-4.857ZM12.5-2.022c2.262,0,3.638-1.48,3.638-3.935S14.758-9.878,12.5-9.878,8.865-8.392,8.865-5.957C8.865-3.5,10.235-2.022,12.5-2.022Zm0-1.4c-1.2,0-1.881-.927-1.881-2.524s.685-2.524,1.881-2.524,1.874.927,1.874,2.524S13.7-3.426,12.5-3.426Zm9.572,1.376c1.909,0,3.105-1.5,3.105-3.9s-1.19-3.908-3.105-3.908a2.468,2.468,0,0,0-2.3,1.328h-.118v-4.129H17.939V-2.174h1.653v-1.2h.118A2.562,2.562,0,0,0,22.075-2.049Zm-.539-6.377c1.169,0,1.881.934,1.881,2.476s-.705,2.476-1.881,2.476-1.909-.948-1.909-2.476S20.367-8.426,21.535-8.426Z" transform="translate(-19004.281 -7506.836)"/><path d="M4.736-1.864v-3.79L7.86-10.67H6.609L4.235-6.759h-.1L1.764-10.67H.513L3.637-5.654v3.79Zm6.206.116c1.873,0,3.033-1.294,3.033-3.405s-1.159-3.405-3.033-3.405S7.909-7.271,7.909-5.154,9.068-1.748,10.942-1.748Zm0-.946C9.7-2.694,9-3.6,9-5.154s.7-2.459,1.947-2.459,1.947.9,1.947,2.459S12.187-2.694,10.942-2.694Zm10-5.748h-1.05V-4.55A1.655,1.655,0,0,1,18.1-2.707c-1.05,0-1.489-.549-1.489-1.733v-4h-1.05v4.259c0,1.556.769,2.435,2.246,2.435A2.053,2.053,0,0,0,19.845-2.9h.1v1.031h1Zm1.977,6.578h1.05V-5.941A1.611,1.611,0,0,1,25.7-7.54a4.214,4.214,0,0,1,.671.061v-1.05a4.508,4.508,0,0,0-.525-.031,1.837,1.837,0,0,0-1.825,1.092h-.1v-.976h-1Zm11.967.207a3.35,3.35,0,0,0,3.558-2.661H37.329A2.357,2.357,0,0,1,34.888-2.67c-1.7,0-2.758-1.385-2.758-3.594s1.062-3.6,2.752-3.6a2.42,2.42,0,0,1,2.447,1.849h1.117a3.435,3.435,0,0,0-3.564-2.862C32.489-10.878,31-9.108,31-6.264S32.5-1.657,34.888-1.657Zm7.97-.092c1.873,0,3.033-1.294,3.033-3.405s-1.159-3.405-3.033-3.405-3.033,1.288-3.033,3.405S40.984-1.748,42.857-1.748Zm0-.946c-1.245,0-1.947-.9-1.947-2.459s.7-2.459,1.947-2.459,1.947.9,1.947,2.459S44.1-2.694,42.857-2.694Zm4.681.83h1.05V-5.941a1.59,1.59,0,0,1,1.526-1.672,1.247,1.247,0,0,1,1.373,1.282v4.467h1.05V-6.093a1.48,1.48,0,0,1,1.526-1.52c.928,0,1.385.476,1.385,1.446v4.3H56.5V-6.411A1.919,1.919,0,0,0,54.4-8.559a2.2,2.2,0,0,0-2.014,1.153h-.1a1.9,1.9,0,0,0-1.819-1.153,1.861,1.861,0,0,0-1.837,1.153h-.1V-8.443h-1ZM61.616-8.559a2.372,2.372,0,0,0-2.105,1.214h-.1v-1.1h-1V.332h1.05V-2.853h.1a2.208,2.208,0,0,0,2.057,1.1c1.672,0,2.764-1.349,2.764-3.405S63.295-8.559,61.616-8.559Zm-.25,5.864c-1.184,0-1.934-.952-1.934-2.459s.751-2.459,1.941-2.459,1.922.921,1.922,2.459S62.574-2.694,61.366-2.694Zm6.493.946a2.273,2.273,0,0,0,2.026-1.086h.1v.97h1v-4.5c0-1.367-.9-2.191-2.5-2.191-1.4,0-2.441.7-2.581,1.751h1.062c.146-.519.7-.818,1.483-.818.982,0,1.489.445,1.489,1.257v.6l-1.9.116c-1.532.092-2.4.769-2.4,1.947A2,2,0,0,0,67.859-1.748Zm.2-.921c-.763,0-1.33-.391-1.33-1.062s.439-1.007,1.44-1.074l1.77-.116v.6A1.73,1.73,0,0,1,68.054-2.67Zm4.87.806h1.05V-5.758A1.668,1.668,0,0,1,75.7-7.613c1.05,0,1.55.561,1.55,1.745v4H78.3V-6.124A2.144,2.144,0,0,0,76-8.559a1.977,1.977,0,0,0-1.977,1.153h-.1V-8.443h-1Zm7.61,2.38c1.166,0,1.69-.452,2.252-1.977l2.569-6.981H84.238l-1.8,5.413h-.1L80.534-8.443H79.4l2.435,6.585-.122.391c-.275.793-.6,1.08-1.208,1.08a2.527,2.527,0,0,1-.439-.031v.9A3.107,3.107,0,0,0,80.534.516ZM94.246-4.91V-5.9h-4v.995Zm9.141,3.253a3.35,3.35,0,0,0,3.558-2.661h-1.117a2.357,2.357,0,0,1-2.441,1.648c-1.7,0-2.758-1.385-2.758-3.594s1.062-3.6,2.752-3.6a2.42,2.42,0,0,1,2.447,1.849h1.117a3.435,3.435,0,0,0-3.564-2.862c-2.392,0-3.881,1.77-3.881,4.613S101-1.657,103.388-1.657ZM109.2-9.712a.734.734,0,0,0,.732-.732.734.734,0,0,0-.732-.732.734.734,0,0,0-.732.732A.734.734,0,0,0,109.2-9.712Zm-.525,7.848h1.05V-8.443h-1.05Zm3.491-8.281v1.7h-1.062v.879h1.062v3.991c0,1.257.543,1.758,1.9,1.758a3.516,3.516,0,0,0,.616-.061v-.885a4.432,4.432,0,0,1-.488.024c-.683,0-.976-.33-.976-1.1V-7.564h1.465v-.879h-1.465v-1.7ZM116.831.516c1.166,0,1.69-.452,2.252-1.977l2.569-6.981h-1.117l-1.8,5.413h-.1l-1.806-5.413H115.7l2.435,6.585-.122.391c-.275.793-.6,1.08-1.208,1.08a2.527,2.527,0,0,1-.439-.031v.9A3.107,3.107,0,0,0,116.831.516Z" transform="translate(-19004.256 -7488.815)"/><g transform="translate(-18903.73 -7483.001)"><g class="c"><rect class="i" width="85.989" height="32.182"/><rect class="j" x="0.5" y="0.5" width="84.989" height="31.182"/></g><path d="M3.019-1.391A.57.57,0,0,0,3.6-.744c.366,0,.583-.236.583-.647v-7.9a.725.725,0,0,0-.739-.775,1.537,1.537,0,0,0-.929.418L1.147-8.639c-.271.2-.4.378-.4.573A.46.46,0,0,0,1.2-7.6a.817.817,0,0,0,.488-.2L2.965-8.72h.054ZM6.233-2.7c0,1.032,1.282,2.083,3.031,2.083,1.885,0,3.2-1.106,3.2-2.683a2.3,2.3,0,0,0-2.021-2.286v-.067A2.217,2.217,0,0,0,12.153-7.8c0-1.4-1.207-2.407-2.9-2.407-1.668,0-2.8,1.011-2.8,2.056a.507.507,0,0,0,.515.56c.264,0,.434-.142.57-.512A1.705,1.705,0,0,1,9.224-9.2,1.56,1.56,0,0,1,10.96-7.655,1.6,1.6,0,0,1,9.251-6.064h-.8a.5.5,0,0,0-.543.506.516.516,0,0,0,.543.512H9.3a1.763,1.763,0,0,1,1.973,1.726c0,1.032-.773,1.692-1.987,1.692A2.07,2.07,0,0,1,7.3-2.753c-.176-.344-.326-.465-.563-.465A.494.494,0,0,0,6.233-2.7Zm7.561-2.535c0,2.791,1.2,4.618,3.289,4.618s3.3-1.834,3.3-4.618v-.337c0-2.791-1.194-4.639-3.289-4.639s-3.3,1.847-3.3,4.639Zm1.187-.33c0-2.245.807-3.621,2.1-3.621S19.2-7.81,19.2-5.565v.317c0,2.245-.807,3.614-2.109,3.614S14.981-3,14.981-5.248Zm6.646.33c0,2.791,1.2,4.618,3.289,4.618s3.3-1.834,3.3-4.618v-.337c0-2.791-1.194-4.639-3.289-4.639s-3.3,1.847-3.3,4.639Zm1.187-.33c0-2.245.807-3.621,2.1-3.621s2.116,1.375,2.116,3.621v.317c0,2.245-.807,3.614-2.109,3.614S22.813-3,22.813-5.248Zm6.646.33c0,2.791,1.2,4.618,3.289,4.618s3.3-1.834,3.3-4.618v-.337c0-2.791-1.194-4.639-3.289-4.639s-3.3,1.847-3.3,4.639Zm1.187-.33c0-2.245.807-3.621,2.1-3.621s2.116,1.375,2.116,3.621v.317c0,2.245-.807,3.614-2.109,3.614S30.646-3,30.646-5.248Zm9.385,2.852a1.84,1.84,0,0,0,.739,1.281,3.952,3.952,0,0,0,2.618.816C45.422-.616,46.7-1.647,46.7-3.3c0-1.3-.739-2.077-2.4-2.522l-1.539-.418c-.868-.229-1.329-.721-1.329-1.409,0-.917.773-1.51,1.973-1.51a2.068,2.068,0,0,1,2.007,1.214.562.562,0,0,0,.563.391.5.5,0,0,0,.515-.539,1.847,1.847,0,0,0-.705-1.321,3.64,3.64,0,0,0-2.407-.8c-1.9,0-3.18,1.065-3.18,2.65q0,1.83,2.231,2.427l1.56.418c1.038.276,1.526.769,1.526,1.544,0,.944-.773,1.5-2.048,1.5a2.393,2.393,0,0,1-2.19-1.085c-.258-.384-.448-.526-.726-.526A.516.516,0,0,0,40.031-2.713ZM48.2-.724c.326,0,.509-.148.637-.553l.78-2.3h3.465l.78,2.3c.129.4.312.553.637.553a.506.506,0,0,0,.57-.512,1.249,1.249,0,0,0-.088-.418L52.19-9.4c-.17-.472-.407-.688-.841-.688s-.671.216-.841.688L47.721-1.654a1.32,1.32,0,0,0-.088.425A.5.5,0,0,0,48.2-.724Zm1.736-3.8,1.39-4.1h.047l1.39,4.1ZM57.71-1.391V-4.472h2.251l1.594,3.142c.2.4.38.539.678.539a.543.543,0,0,0,.576-.519,1.167,1.167,0,0,0-.109-.458l-1.566-2.96A2.592,2.592,0,0,0,62.85-7.264a2.669,2.669,0,0,0-2.97-2.751H57.642c-.8,0-1.112.29-1.112,1.032v7.592a.572.572,0,0,0,.59.647A.575.575,0,0,0,57.71-1.391Zm0-4.106V-8.969H59.73A1.681,1.681,0,0,1,61.636-7.2c0,1.112-.685,1.706-1.953,1.706Z" transform="translate(11.25 28.044)"/><path class="d" d="M.551-2.192a1.572,1.572,0,0,0,.656,1.084,3.069,3.069,0,0,0,1.969.6c1.584,0,2.588-.809,2.588-2.1,0-1.03-.575-1.624-1.937-2L2.661-4.933C1.88-5.143,1.5-5.553,1.5-6.168c0-.809.662-1.332,1.693-1.332A1.666,1.666,0,0,1,4.88-6.443a.356.356,0,0,0,.374.27.322.322,0,0,0,.336-.351,1.5,1.5,0,0,0-.6-1.084,2.843,2.843,0,0,0-1.812-.577C1.7-8.185.7-7.36.7-6.119c0,.96.58,1.591,1.747,1.909l1.194.324c.939.254,1.351.669,1.351,1.354,0,.82-.684,1.332-1.769,1.332a1.922,1.922,0,0,1-1.85-.992c-.163-.27-.293-.372-.483-.372A.342.342,0,0,0,.551-2.192Zm9.787.723h.033v.431c0,.259.136.415.363.415s.363-.156.363-.415V-4.582c0-1.176-.732-1.823-2.051-1.823a2.46,2.46,0,0,0-1.286.3,1.137,1.137,0,0,0-.656.868.284.284,0,0,0,.3.307.413.413,0,0,0,.363-.189A1.433,1.433,0,0,1,9-5.752c.873,0,1.345.41,1.345,1.192v.62H8.77C7.538-3.94,6.8-3.314,6.8-2.295A1.7,1.7,0,0,0,8.65-.574,1.874,1.874,0,0,0,10.337-1.47ZM7.576-2.311c0-.631.434-.982,1.21-.982h1.562v.7a1.423,1.423,0,0,1-1.519,1.37A1.113,1.113,0,0,1,7.576-2.311ZM13.191-.618a.365.365,0,0,0,.374-.415v-7a.365.365,0,0,0-.374-.415.365.365,0,0,0-.374.415v7A.365.365,0,0,0,13.191-.618Zm5.354-.852h.033v.431c0,.259.136.415.363.415s.363-.156.363-.415V-4.582c0-1.176-.732-1.823-2.051-1.823a2.46,2.46,0,0,0-1.286.3,1.137,1.137,0,0,0-.656.868.284.284,0,0,0,.3.307.413.413,0,0,0,.363-.189,1.433,1.433,0,0,1,1.237-.636c.873,0,1.345.41,1.345,1.192v.62H16.978c-1.231,0-1.969.626-1.969,1.645a1.7,1.7,0,0,0,1.85,1.721A1.874,1.874,0,0,0,18.546-1.47Zm-2.761-.841c0-.631.434-.982,1.21-.982h1.562v.7a1.423,1.423,0,0,1-1.519,1.37A1.113,1.113,0,0,1,15.784-2.311ZM21.73-1.033V-4.2c0-1.019.51-1.5,1.356-1.5a.953.953,0,0,0,.391-.054.281.281,0,0,0,.174-.291.3.3,0,0,0-.174-.28.771.771,0,0,0-.385-.081,1.453,1.453,0,0,0-1.34.841H21.73v-.383a.367.367,0,0,0-.369-.415.372.372,0,0,0-.38.415v4.914a.369.369,0,0,0,.38.415C21.594-.618,21.73-.774,21.73-1.033Zm2.984,2a.286.286,0,0,0,.108.227.822.822,0,0,0,.51.135c.819,0,1.335-.431,1.72-1.5l2-5.512a.768.768,0,0,0,.065-.286.35.35,0,0,0-.369-.356c-.179,0-.3.119-.391.378L26.83-1.443H26.8L25.262-5.952c-.087-.259-.217-.378-.4-.378a.361.361,0,0,0-.385.361.839.839,0,0,0,.065.286l1.882,5.1-.114.378c-.157.529-.5.89-.922.89-.119,0-.228-.011-.3-.011C24.866.672,24.714.785,24.714.968Zm5.425-6a.545.545,0,0,0,.548.545.545.545,0,0,0,.548-.545.545.545,0,0,0-.548-.545A.545.545,0,0,0,30.139-5.035Zm0,3.889a.545.545,0,0,0,.548.545.545.545,0,0,0,.548-.545.548.548,0,0,0-.548-.545A.548.548,0,0,0,30.139-1.146Z" transform="translate(11.265 13.175)"/></g><path class="e" d="M1.168-9.226v7.632H2.12V-4.318H4.04A2.351,2.351,0,0,0,6.494-6.757,2.348,2.348,0,0,0,4.05-9.226Zm.952.846H3.8A1.506,1.506,0,0,1,5.515-6.757,1.51,1.51,0,0,1,3.8-5.165H2.12Zm8,6.886c1.624,0,2.629-1.121,2.629-2.951S11.74-7.4,10.117-7.4,7.488-6.281,7.488-4.445,8.493-1.494,10.117-1.494Zm0-.82c-1.079,0-1.687-.783-1.687-2.131s.608-2.131,1.687-2.131S11.8-5.8,11.8-4.445,11.2-2.314,10.117-2.314Zm3.924-3.422c0,.825.487,1.285,1.555,1.544l.978.238c.608.148.9.413.9.8,0,.524-.55.889-1.317.889a1.256,1.256,0,0,1-1.338-.788h-.936c.1.947.973,1.555,2.242,1.555,1.3,0,2.285-.7,2.285-1.724,0-.82-.518-1.285-1.592-1.544l-.878-.212c-.672-.164-.989-.407-.989-.8,0-.508.529-.851,1.206-.851a1.162,1.162,0,0,1,1.253.756h.9A1.921,1.921,0,0,0,16.167-7.4C14.956-7.4,14.041-6.682,14.041-5.736Zm6.13-3.036V-7.3h-.92v.762h.92v3.459c0,1.089.471,1.523,1.645,1.523a3.047,3.047,0,0,0,.534-.053v-.767a3.841,3.841,0,0,1-.423.021c-.592,0-.846-.286-.846-.957V-6.534H22.35V-7.3H21.08V-8.772Zm7.251,5.7a1.477,1.477,0,0,1-1.47.772c-.968,0-1.6-.714-1.645-1.84v-.042h4.1V-4.53c0-1.772-.936-2.867-2.475-2.867-1.565,0-2.57,1.164-2.57,2.956s.989,2.946,2.57,2.946a2.277,2.277,0,0,0,2.4-1.576Zm-1.5-3.522a1.535,1.535,0,0,1,1.528,1.677H24.306A1.624,1.624,0,0,1,25.919-6.593Zm6.024,5.1A2.043,2.043,0,0,0,33.768-2.5h.085v.91h.867V-9.56h-.91V-6.4h-.079a1.948,1.948,0,0,0-1.788-1c-1.449,0-2.4,1.164-2.4,2.951S30.484-1.494,31.943-1.494Zm.212-5.083c1.031,0,1.677.825,1.677,2.131s-.64,2.131-1.677,2.131-1.666-.8-1.666-2.131S31.118-6.577,32.155-6.577Zm7.769-2.195V-7.3H39v.762h.92v3.459c0,1.089.471,1.523,1.645,1.523a3.047,3.047,0,0,0,.534-.053v-.767a3.841,3.841,0,0,1-.423.021c-.592,0-.846-.286-.846-.957V-6.534H42.1V-7.3H40.834V-8.772Zm5.818,7.277c1.624,0,2.629-1.121,2.629-2.951s-1-2.951-2.629-2.951-2.629,1.116-2.629,2.951S44.118-1.494,45.742-1.494Zm0-.82c-1.079,0-1.687-.783-1.687-2.131s.608-2.131,1.687-2.131,1.687.777,1.687,2.131S46.821-2.314,45.742-2.314Zm6.167.82A2.043,2.043,0,0,0,53.733-2.5h.085v.91h.867V-9.56h-.91V-6.4H53.7a1.948,1.948,0,0,0-1.788-1c-1.449,0-2.4,1.164-2.4,2.951S50.449-1.494,51.908-1.494Zm.212-5.083c1.031,0,1.677.825,1.677,2.131s-.64,2.131-1.677,2.131-1.666-.8-1.666-2.131S51.083-6.577,52.12-6.577Zm5.918,5.083a1.97,1.97,0,0,0,1.756-.941h.085v.841h.867V-5.5c0-1.185-.777-1.9-2.168-1.9-1.216,0-2.116.6-2.237,1.518h.92c.127-.45.6-.709,1.285-.709.851,0,1.29.386,1.29,1.089v.518l-1.645.1c-1.327.079-2.078.666-2.078,1.687A1.734,1.734,0,0,0,58.038-1.494Zm.169-.8c-.661,0-1.153-.338-1.153-.92s.381-.873,1.248-.931l1.534-.1v.524A1.5,1.5,0,0,1,58.207-2.293ZM62.7.468c1.01,0,1.465-.391,1.952-1.714L66.881-7.3h-.968L64.353-2.6h-.085L62.7-7.3h-.984l2.11,5.707-.106.338c-.238.688-.524.936-1.047.936A2.19,2.19,0,0,1,62.3-.341V.436A2.693,2.693,0,0,0,62.7.468Z" transform="translate(-19004.365 -7535.743)"/><path class="e" d="M10.9,15.281a.8.8,0,0,0,.8-.788V4.745l-.061-1.424.626.687,1.414,1.505a.716.716,0,0,0,.535.242.7.7,0,0,0,.737-.707.715.715,0,0,0-.242-.525L11.5,1.411a.823.823,0,0,0-.6-.273.792.792,0,0,0-.6.273L7.081,4.523a.715.715,0,0,0-.242.525.7.7,0,0,0,.727.707.759.759,0,0,0,.556-.242l1.4-1.505.626-.687-.061,1.424v9.748A.8.8,0,0,0,10.9,15.281ZM5.4,22.816h10.97c2.03,0,3.051-1.02,3.051-3.01V10.321c0-2-1.02-3.02-3.051-3.02H13.748V8.967h2.576a1.307,1.307,0,0,1,1.444,1.465v9.263a1.307,1.307,0,0,1-1.444,1.465H5.465A1.3,1.3,0,0,1,4.02,19.695V10.432A1.3,1.3,0,0,1,5.465,8.967H8.051V7.3H5.4c-2.02,0-3.051,1.02-3.051,3.02v9.485C2.354,21.806,3.384,22.816,5.4,22.816Z" transform="translate(-18767.008 -7555.909)"/><g transform="translate(-18732.48 -7553.104)"><path class="f" d="M2.266,10.637c0,4.573,3.836,9.079,9.862,12.948a1.951,1.951,0,0,0,.862.329,1.9,1.9,0,0,0,.862-.329c6.026-3.87,9.873-8.375,9.873-12.948,0-3.847-2.655-6.559-6.151-6.559A5.394,5.394,0,0,0,12.99,6.461,5.392,5.392,0,0,0,8.4,4.078C4.91,4.078,2.266,6.79,2.266,10.637Zm1.884-.011c0-2.8,1.827-4.675,4.29-4.675a4.418,4.418,0,0,1,3.8,2.281c.3.431.488.567.749.567s.431-.148.749-.567a4.564,4.564,0,0,1,3.813-2.281c2.463,0,4.278,1.872,4.278,4.675,0,3.926-4.119,8.193-8.625,11.189a.555.555,0,0,1-.216.113.644.644,0,0,1-.216-.113C8.269,18.819,4.149,14.552,4.149,10.626Z" transform="translate(-2.266 -4.078)"/></g><g transform="translate(-19004.172 -7483.181)"><g class="c" transform="translate(0.172 0.182)"><rect class="i" width="87" height="32"/><rect class="j" x="0.5" y="0.5" width="86" height="31"/></g><path class="g" d="M1.732-1.7a.524.524,0,0,0,.537-.586v-3.07H5.326c.336,0,.549-.183.549-.476s-.214-.476-.549-.476H2.269V-9.141H5.644c.33,0,.543-.177.543-.47a.483.483,0,0,0-.543-.482H2.184c-.7,0-.982.256-.982.9v6.9A.519.519,0,0,0,1.732-1.7Zm9.685-1.123h.061v.574A.491.491,0,0,0,12-1.7a.492.492,0,0,0,.525-.561V-7.676A.5.5,0,0,0,12-8.244a.5.5,0,0,0-.531.568v3.582A1.587,1.587,0,0,1,9.745-2.581a1.247,1.247,0,0,1-1.373-1.4V-7.676a.5.5,0,0,0-.525-.568.5.5,0,0,0-.531.568v3.96a1.9,1.9,0,0,0,2.13,2.057A1.9,1.9,0,0,0,11.417-2.825ZM14.956-1.7a.512.512,0,0,0,.525-.586v-7.7a.512.512,0,0,0-.525-.586c-.3,0-.519.189-.519.586v7.7C14.437-1.891,14.657-1.7,14.956-1.7Zm3,0a.512.512,0,0,0,.525-.586v-7.7a.512.512,0,0,0-.525-.586c-.3,0-.519.189-.519.586v7.7C17.434-1.891,17.653-1.7,17.952-1.7Zm5.334-1.764c0,1.336.445,1.8,1.6,1.8a1.706,1.706,0,0,0,.757-.128.424.424,0,0,0,.269-.4.375.375,0,0,0-.4-.391c-.116,0-.238.018-.409.018-.592,0-.763-.2-.763-.885V-7.286H25.2a.431.431,0,0,0,.488-.439.433.433,0,0,0-.488-.445h-.86V-9.226a.507.507,0,0,0-.525-.58c-.323,0-.519.214-.519.58v1.056h-.47a.433.433,0,0,0-.488.445.431.431,0,0,0,.488.439h.464ZM27.13-9.782a.66.66,0,0,0,.665.671.663.663,0,0,0,.69-.671.653.653,0,0,0-.69-.659A.65.65,0,0,0,27.13-9.782Zm1.2,7.494V-7.652c0-.391-.22-.586-.519-.586a.516.516,0,0,0-.531.586v5.364A.515.515,0,0,0,27.8-1.7.512.512,0,0,0,28.326-2.288ZM39-2.288V-6.279a1.879,1.879,0,0,0-2.118-2,1.989,1.989,0,0,0-1.953,1.208h-.043A1.745,1.745,0,0,0,33.1-8.28a1.692,1.692,0,0,0-1.739,1.123H31.3v-.5a.509.509,0,0,0-.519-.58.515.515,0,0,0-.525.586v5.364c0,.366.2.586.525.586s.525-.22.525-.586V-5.876a1.39,1.39,0,0,1,1.416-1.483,1.3,1.3,0,0,1,1.385,1.4v3.674c0,.366.189.586.519.586s.525-.22.525-.586V-5.864a1.419,1.419,0,0,1,1.44-1.5A1.239,1.239,0,0,1,37.95-6v3.716c0,.366.2.586.525.586S39-1.922,39-2.288Zm1.587-2.166a2.586,2.586,0,0,0,2.783,2.8,2.867,2.867,0,0,0,2.044-.7.96.96,0,0,0,.3-.61.418.418,0,0,0-.409-.445c-.177,0-.25.049-.58.354a1.781,1.781,0,0,1-1.306.494,1.661,1.661,0,0,1-1.77-1.806V-4.7H45.3c.452,0,.574-.2.574-.891a2.542,2.542,0,0,0-2.606-2.691,2.631,2.631,0,0,0-2.679,2.819Zm1.062-1.1v-.018a1.638,1.638,0,0,1,1.629-1.806c.946,0,1.55.7,1.55,1.806v.018Z" transform="translate(8.131 27.592)"/><path class="d" d="M2.564-1.362a.336.336,0,0,0,.342-.376V-7.445H4.678c.225,0,.366-.117.366-.308s-.142-.317-.366-.317H.455a.318.318,0,0,0-.361.317c0,.19.142.308.361.308H2.227v5.707A.332.332,0,0,0,2.564-1.362ZM4.824.074a.259.259,0,0,0,.1.205A.736.736,0,0,0,5.381.4C6.118.4,6.582.01,6.928-.961l1.8-4.989a.7.7,0,0,0,.059-.259.315.315,0,0,0-.332-.322c-.161,0-.273.107-.352.342L6.728-2.109H6.7L5.317-6.19c-.078-.234-.2-.342-.356-.342a.326.326,0,0,0-.347.327.763.763,0,0,0,.059.259L6.367-1.332l-.1.342c-.142.478-.454.806-.83.806-.107,0-.205-.01-.273-.01C4.961-.195,4.824-.092,4.824.074ZM10.575.049V-2.216h.034a1.545,1.545,0,0,0,1.513.893A1.944,1.944,0,0,0,14.11-3.49v-.947A1.934,1.934,0,0,0,12.152-6.6a1.613,1.613,0,0,0-1.577.942h-.034V-6.18c0-.239-.117-.381-.322-.381S9.9-6.419,9.9-6.18V.049c0,.229.122.376.332.376A.336.336,0,0,0,10.575.049Zm0-3.5v-.942a1.426,1.426,0,0,1,1.44-1.6c.884,0,1.421.615,1.421,1.718v.625c0,1.118-.552,1.723-1.4,1.723A1.427,1.427,0,0,1,10.575-3.451Zm4.677-.112a2.026,2.026,0,0,0,2.153,2.241,2.183,2.183,0,0,0,1.557-.532.842.842,0,0,0,.273-.517.282.282,0,0,0-.273-.3c-.117,0-.171.034-.391.254a1.491,1.491,0,0,1-1.137.488,1.432,1.432,0,0,1-1.5-1.6V-3.8h3.041c.3,0,.391-.142.391-.61A2.008,2.008,0,0,0,17.332-6.6a2.061,2.061,0,0,0-2.08,2.26Zm.679-.825V-4.4a1.427,1.427,0,0,1,1.4-1.6c.825,0,1.352.615,1.352,1.6v.015ZM24.655-6.6a2.059,2.059,0,0,0-2.148,2.236v.806a2.061,2.061,0,0,0,2.148,2.236A2.062,2.062,0,0,0,26.8-3.558v-.806A2.062,2.062,0,0,0,24.655-6.6Zm0,.605c.879,0,1.465.659,1.465,1.7v.659c0,1.069-.581,1.7-1.465,1.7s-1.465-.64-1.465-1.7v-.659C23.19-5.34,23.776-5.995,24.655-5.995Zm4.452,4.257V-5.931h.849a.287.287,0,0,0,.322-.288.285.285,0,0,0-.322-.293h-.849V-7.1c0-.527.21-.762.649-.762.229,0,.312.039.493.039a.246.246,0,0,0,.264-.264.3.3,0,0,0-.132-.244,1.036,1.036,0,0,0-.561-.127,1.222,1.222,0,0,0-1.386,1.4v.547h-.508a.282.282,0,0,0-.322.288.288.288,0,0,0,.322.293h.508v4.194a.33.33,0,0,0,.337.376A.33.33,0,0,0,29.107-1.738Zm4.174-6.073a.463.463,0,0,0,.464.474.466.466,0,0,0,.478-.474.458.458,0,0,0-.478-.464A.457.457,0,0,0,33.281-7.811ZM32.847.352c.806,0,1.24-.469,1.24-1.386v-5.15a.332.332,0,0,0-.337-.376.33.33,0,0,0-.337.376v4.95c0,.737-.171,1.015-.591,1.015-.059,0-.171-.01-.225-.01-.2,0-.312.1-.312.273a.24.24,0,0,0,.137.225A.856.856,0,0,0,32.847.352ZM37.636-6.6a2.059,2.059,0,0,0-2.148,2.236v.806a2.061,2.061,0,0,0,2.148,2.236,2.062,2.062,0,0,0,2.143-2.236v-.806A2.062,2.062,0,0,0,37.636-6.6Zm0,.605c.879,0,1.465.659,1.465,1.7v.659c0,1.069-.581,1.7-1.465,1.7s-1.465-.64-1.465-1.7v-.659C36.171-5.34,36.757-5.995,37.636-5.995Zm5.746,4.672A1.944,1.944,0,0,0,45.369-3.49v-.947A1.935,1.935,0,0,0,43.406-6.6a1.54,1.54,0,0,0-1.552.942H41.82V-8.074a.336.336,0,0,0-.342-.376c-.21,0-.332.146-.332.376v6.332c0,.239.117.376.317.376s.322-.137.322-.376v-.474h.034A1.619,1.619,0,0,0,43.382-1.323ZM41.82-3.471v-.9a1.453,1.453,0,0,1,1.46-1.626c.869,0,1.406.644,1.406,1.743v.61c0,1.108-.542,1.714-1.386,1.714A1.459,1.459,0,0,1,41.82-3.471ZM46.687-5.36a.492.492,0,0,0,.493.493.492.492,0,0,0,.493-.493.492.492,0,0,0-.493-.493A.492.492,0,0,0,46.687-5.36Zm0,3.52a.492.492,0,0,0,.493.493.492.492,0,0,0,.493-.493.5.5,0,0,0-.493-.493A.5.5,0,0,0,46.687-1.84Z" transform="translate(8.316 13.908)"/></g><path class="h" d="M3.749,0H45.409a3.749,3.749,0,1,1,0,7.5H3.749a3.749,3.749,0,0,1,0-7.5Z" transform="translate(-19004.172 -7436.522)"/><path class="h" d="M3.749,0H74.57a3.749,3.749,0,1,1,0,7.5H3.749a3.749,3.749,0,0,1,0-7.5Z" transform="translate(-19004.172 -7416.526)"/><path class="h" d="M3.749,0H67.071a3.749,3.749,0,1,1,0,7.5H3.749a3.749,3.749,0,0,1,0-7.5Z" transform="translate(-19004.172 -7399.862)"/><path class="h" d="M3.749,0H74.57a3.749,3.749,0,1,1,0,7.5H3.749a3.749,3.749,0,0,1,0-7.5Z" transform="translate(-18946.682 -7436.522)"/><path class="h" d="M3.749,0H42.076a3.749,3.749,0,1,1,0,7.5H3.749a3.749,3.749,0,0,1,0-7.5Z" transform="translate(-18917.52 -7416.526)"/><path class="h" d="M3.749,0H78.736a3.749,3.749,0,0,1,0,7.5H3.749a3.749,3.749,0,0,1,0-7.5Z" transform="translate(-18925.02 -7399.862)"/><path class="h" d="M3.749,0H138.725a3.749,3.749,0,1,1,0,7.5H3.749a3.749,3.749,0,0,1,0-7.5Z" transform="translate(-18860.029 -7436.522)"/><path class="h" d="M3.749,0H52.907a3.749,3.749,0,1,1,0,7.5H3.749a3.749,3.749,0,0,1,0-7.5Z" transform="translate(-18774.213 -7416.526)"/><path class="h" d="M3.749,0H77.07a3.749,3.749,0,1,1,0,7.5H3.749a3.749,3.749,0,0,1,0-7.5Z" transform="translate(-18863.363 -7416.526)"/><path class="h" d="M3.749,0H112.9a3.749,3.749,0,1,1,0,7.5H3.749a3.749,3.749,0,0,1,0-7.5Z" transform="translate(-18834.201 -7399.862)"/></g></svg>