<svg xmlns="http://www.w3.org/2000/svg" xmlns:xlink="http://www.w3.org/1999/xlink" width="289.859" height="587.323" viewBox="0 0 289.859 587.323"><defs><style>.a{clip-rule:evenodd;}.b,.f{fill:#fff;}.c,.n{fill:#f7f8f8;}.c{opacity:0.03;}.d{fill:#0091ff;}.e{fill:#cfd3d5;}.f{opacity:0;}.g{fill:rgba(60,60,67,0.6);}.h{fill:#f82b60;}.i,.s{fill:none;}.i{stroke:#cfd3d5;}.j{fill:#9538ff;}.k{fill:#606f76;}.l{fill:#8e8e8e;}.m{fill:#38a3ff;}.o{fill:#1bcbff;}.p{clip-path:url(#e);}.q{fill:#585f69;}.r{stroke:none;}.t{filter:url(#c);}.u{filter:url(#a);}</style><filter id="a" x="17.087" y="374.895" width="255.181" height="139.686" filterUnits="userSpaceOnUse"><feOffset dy="1" input="SourceAlpha"/><feGaussianBlur result="b"/><feFlood flood-opacity="0.161"/><feComposite operator="in" in2="b"/><feComposite in="SourceGraphic"/></filter><filter id="c" x="18.087" y="223.895" width="255.181" height="139.686" filterUnits="userSpaceOnUse"><feOffset dy="1" input="SourceAlpha"/><feGaussianBlur result="d"/><feFlood flood-opacity="0.161"/><feComposite operator="in" in2="d"/><feComposite in="SourceGraphic"/></filter><clipPath id="e"><path class="a" d="M618.507,406.286c-.478-.71-.239-1.286.52-1.286h3.585c.765,0,1.006.58.53,1.286l-1.135,1.019,2.643,11.726-3.825,2.864L617,419.031l2.643-11.726Z" transform="translate(-617 -405)"/></clipPath></defs><g transform="translate(-160.001 -183.105)"><g transform="translate(22918 17621)"><g transform="translate(-22742 -17731.6)"><path class="b" d="M-22557.287-17417.594l14.123-13.99,57.1,6.848,11.043,70.646v457.389l-11.043,31.119-41.254,6.252h-198.2l-24.209-20.723v-537.541l24.209-13.99,60.51,6.848,11.582,14.859h90.236Z" transform="translate(22742 17731.6)"/><rect class="b" width="257" height="55" transform="translate(0 807.599)"/><path class="c" d="M0,0H256.68V54.56H0Z" transform="translate(0 808)"/><path class="d" d="M2.181-4.437v3.175c0,.581-.3.919-.817.919A.8.8,0,0,1,.571-.858C.5-1.015.444-1.066.345-1.066c-.126,0-.2.092-.2.236A.833.833,0,0,0,.4-.28a1.314,1.314,0,0,0,.988.373A1.23,1.23,0,0,0,2.659-1.282V-4.437A.236.236,0,0,0,2.42-4.7.236.236,0,0,0,2.181-4.437Zm2.95.8a1.441,1.441,0,0,0-1.5,1.565V-1.5A1.443,1.443,0,0,0,5.13.062,1.444,1.444,0,0,0,6.631-1.5v-.564A1.444,1.444,0,0,0,5.13-3.633Zm0,.424c.615,0,1.025.461,1.025,1.193v.461c0,.749-.407,1.193-1.025,1.193S4.1-.81,4.1-1.555v-.461C4.1-2.751,4.515-3.209,5.13-3.209ZM9.153.062a1.361,1.361,0,0,0,1.391-1.518v-.663A1.355,1.355,0,0,0,9.17-3.633a1.078,1.078,0,0,0-1.087.66H8.06V-4.666a.235.235,0,0,0-.239-.263c-.147,0-.232.1-.232.263V-.232c0,.167.082.263.222.263s.226-.1.226-.263V-.564H8.06A1.133,1.133,0,0,0,9.153.062ZM8.06-1.442v-.629A1.017,1.017,0,0,1,9.082-3.209c.608,0,.984.451.984,1.22v.427c0,.776-.379,1.2-.971,1.2A1.021,1.021,0,0,1,8.06-1.442Zm3.223.7a.736.736,0,0,0,.41.571,1.878,1.878,0,0,0,.933.232c.793,0,1.323-.39,1.323-1.046,0-.513-.314-.79-.919-.943L12.4-2.085c-.386-.1-.578-.273-.578-.564,0-.369.308-.584.776-.584a.922.922,0,0,1,.813.42c.113.133.161.167.256.167a.192.192,0,0,0,.205-.205.737.737,0,0,0-.349-.533,1.634,1.634,0,0,0-.909-.25c-.766,0-1.261.393-1.261,1.019,0,.5.308.8.913.943l.656.157c.338.085.564.277.564.571,0,.383-.342.6-.834.6a1.039,1.039,0,0,1-.909-.448c-.1-.133-.157-.178-.243-.178A.2.2,0,0,0,11.283-.742Z" transform="translate(122 847.6)"/><path d="M.827.034A.237.237,0,0,0,1.07-.229v-1.6H2.218A1.347,1.347,0,0,0,3.681-3.24,1.357,1.357,0,0,0,2.218-4.662H1.06c-.335,0-.468.126-.468.434v4A.232.232,0,0,0,.827.034ZM1.07-2.259V-4.228H2.2a.9.9,0,0,1,.991.988c0,.7-.369.981-1.3.981Zm3.9,2.03V-2.235c0-.646.321-.95.854-.95a.6.6,0,0,0,.246-.034A.178.178,0,0,0,6.183-3.4a.188.188,0,0,0-.109-.178.483.483,0,0,0-.243-.051.915.915,0,0,0-.844.533H4.973v-.243a.232.232,0,0,0-.232-.263.235.235,0,0,0-.239.263V-.229a.233.233,0,0,0,.239.263C4.888.034,4.973-.065,4.973-.229Zm3.2-3.4a1.441,1.441,0,0,0-1.5,1.565V-1.5A1.443,1.443,0,0,0,8.172.062,1.444,1.444,0,0,0,9.673-1.5v-.564A1.444,1.444,0,0,0,8.172-3.633Zm0,.424c.615,0,1.025.461,1.025,1.193v.461c0,.749-.407,1.193-1.025,1.193S7.147-.81,7.147-1.555v-.461C7.147-2.751,7.557-3.209,8.172-3.209ZM11.29-.229V-3.165h.595a.2.2,0,0,0,.226-.2.2.2,0,0,0-.226-.205H11.29v-.41c0-.369.147-.533.455-.533.161,0,.219.027.345.027a.172.172,0,0,0,.185-.185.208.208,0,0,0-.092-.171.725.725,0,0,0-.393-.089.856.856,0,0,0-.971.978v.383h-.355a.2.2,0,0,0-.226.2.2.2,0,0,0,.226.205h.355V-.229a.231.231,0,0,0,.236.263A.231.231,0,0,0,11.29-.229Zm1.562-4.252a.326.326,0,0,0,.325.332.326.326,0,0,0,.335-.332.321.321,0,0,0-.335-.325A.32.32,0,0,0,12.852-4.481Zm.564,4.252V-3.343a.23.23,0,0,0-.232-.263.233.233,0,0,0-.239.263V-.229a.233.233,0,0,0,.236.263A.231.231,0,0,0,13.416-.229Zm1.391.263a.231.231,0,0,0,.236-.263V-4.666a.231.231,0,0,0-.236-.263.231.231,0,0,0-.236.263V-.229A.231.231,0,0,0,14.807.034Zm1.21-1.542A1.418,1.418,0,0,0,17.524.062a1.529,1.529,0,0,0,1.09-.373.59.59,0,0,0,.191-.362.2.2,0,0,0-.191-.208c-.082,0-.12.024-.273.178a1.044,1.044,0,0,1-.8.342A1,1,0,0,1,16.492-1.48v-.195h2.129c.212,0,.273-.1.273-.427a1.406,1.406,0,0,0-1.422-1.531,1.443,1.443,0,0,0-1.456,1.583Zm.475-.578V-2.1a1,1,0,0,1,.981-1.121c.578,0,.947.431.947,1.121v.01Z" transform="translate(39 847.6)"/><g transform="translate(117.8 819.638)"><path class="d" d="M3.4,7.882H5.142a1.062,1.062,0,0,0,0-2.124H3.4a1.062,1.062,0,0,0,0,2.124Zm0,6.168H5.142a1.062,1.062,0,1,0,0-2.124H3.4a1.062,1.062,0,0,0,0,2.124Zm0,6.168H5.142A1.064,1.064,0,0,0,6.2,19.155,1.048,1.048,0,0,0,5.142,18.1H3.4a1.046,1.046,0,0,0-1.051,1.051A1.062,1.062,0,0,0,3.4,20.217Z" transform="translate(-2.354 -5.758)"/><path class="d" d="M13.3,7.817H26.124a.869.869,0,1,0,0-1.738H13.3a.869.869,0,1,0,0,1.738Zm0,6.168H26.124a.869.869,0,1,0,0-1.738H13.3a.869.869,0,1,0,0,1.738Zm0,6.168H26.124a.869.869,0,1,0,0-1.738H13.3a.869.869,0,1,0,0,1.738Z" transform="translate(-6.376 -5.886)"/></g><g transform="translate(39.68 816.68)"><path class="e" d="M10.529,20.615A8.932,8.932,0,0,0,19.4,11.736,8.938,8.938,0,0,0,10.52,2.867,8.93,8.93,0,0,0,1.65,11.736,8.94,8.94,0,0,0,10.529,20.615Zm0-1.583a7.295,7.295,0,1,1,7.295-7.295A7.26,7.26,0,0,1,10.529,19.031Z" transform="translate(-1.65 -2.867)"/><path class="e" d="M13.741,13.608a1.871,1.871,0,0,0,1.809-1.986,1.817,1.817,0,1,0-3.625,0A1.881,1.881,0,0,0,13.741,13.608Zm-3.212,3.943h6.416a.419.419,0,0,0,.436-.465,3.544,3.544,0,0,0-3.64-2.776,3.544,3.544,0,0,0-3.64,2.776A.414.414,0,0,0,10.529,17.551Z" transform="translate(-4.861 -4.839)"/></g><g transform="translate(199 817.599)"><path class="e" d="M14.876,7.457c0-4.5-2.458-6.025-4.757-6.365,0-.023,0-.046,0-.074A1.079,1.079,0,0,0,8.99,0,1.062,1.062,0,0,0,7.876,1.018a.366.366,0,0,0,0,.074C5.577,1.437,3.1,2.971,3.1,7.466c0,5.242-1.325,5.8-3.1,7.277H17.98C16.21,13.265,14.876,12.7,14.876,7.457Z"/><path class="e" d="M2.517,1.8A2.441,2.441,0,0,0,5.034,0H0A2.437,2.437,0,0,0,2.517,1.8Z" transform="translate(6.832 16.182)"/></g><path d="M-18.124-.229V-3.842h.021L-15.8-.232c.126.2.205.263.349.263.178,0,.273-.116.273-.328V-4.433A.232.232,0,0,0-15.41-4.7c-.147,0-.232.1-.232.263V-.817h-.024L-17.956-4.4c-.113-.181-.205-.294-.355-.294-.185,0-.28.116-.28.328V-.229c0,.161.085.263.232.263A.232.232,0,0,0-18.124-.229Zm5.455-3.4a1.441,1.441,0,0,0-1.5,1.565V-1.5a1.443,1.443,0,0,0,1.5,1.565,1.444,1.444,0,0,0,1.5-1.565v-.564A1.444,1.444,0,0,0-12.669-3.633Zm0,.424c.615,0,1.025.461,1.025,1.193v.461c0,.749-.407,1.193-1.025,1.193s-1.025-.448-1.025-1.193v-.461C-13.694-2.751-13.284-3.209-12.669-3.209Zm2.649,2.3c0,.721.239.96.878.96A.925.925,0,0,0-8.755,0a.192.192,0,0,0,.13-.188.175.175,0,0,0-.191-.181c-.062,0-.13.01-.246.01-.362,0-.485-.116-.485-.516V-3.165h.584a.2.2,0,0,0,.226-.2.2.2,0,0,0-.226-.205h-.584v-.643a.231.231,0,0,0-.236-.263.231.231,0,0,0-.236.263v.643h-.325a.2.2,0,0,0-.226.205.2.2,0,0,0,.226.2h.325Zm2.068-3.575a.326.326,0,0,0,.325.332.326.326,0,0,0,.335-.332.321.321,0,0,0-.335-.325A.32.32,0,0,0-7.952-4.481Zm.564,4.252V-3.343a.23.23,0,0,0-.232-.263.233.233,0,0,0-.239.263V-.229a.233.233,0,0,0,.236.263A.231.231,0,0,0-7.388-.229Zm1.8,0V-3.165H-5a.2.2,0,0,0,.226-.2A.2.2,0,0,0-5-3.572H-5.59v-.41c0-.369.147-.533.455-.533.161,0,.219.027.345.027a.172.172,0,0,0,.185-.185A.208.208,0,0,0-4.7-4.843a.725.725,0,0,0-.393-.089.856.856,0,0,0-.971.978v.383h-.355a.2.2,0,0,0-.226.2.2.2,0,0,0,.226.205h.355V-.229a.231.231,0,0,0,.236.263A.231.231,0,0,0-5.59-.229Zm1.562-4.252a.326.326,0,0,0,.325.332.326.326,0,0,0,.335-.332A.321.321,0,0,0-3.7-4.806.32.32,0,0,0-4.028-4.481Zm.564,4.252V-3.343A.23.23,0,0,0-3.7-3.606a.233.233,0,0,0-.239.263V-.229A.233.233,0,0,0-3.7.034.231.231,0,0,0-3.464-.229Zm.981-1.248A1.383,1.383,0,0,0-1.02.062,1.6,1.6,0,0,0-.193-.15a.819.819,0,0,0,.444-.6A.205.205,0,0,0,.043-.974a.33.33,0,0,0-.256.181.946.946,0,0,1-.817.424c-.646,0-.978-.458-.978-1.135v-.567c0-.68.338-1.135.971-1.135a.929.929,0,0,1,.813.434.312.312,0,0,0,.26.181A.2.2,0,0,0,.244-2.82.829.829,0,0,0-.2-3.415a1.6,1.6,0,0,0-.841-.219A1.38,1.38,0,0,0-2.483-2.1Zm5.7.971h.021v.273c0,.164.085.263.229.263s.229-.1.229-.263V-2.478c0-.745-.461-1.155-1.292-1.155a1.543,1.543,0,0,0-.81.191.72.72,0,0,0-.414.55.18.18,0,0,0,.188.195.26.26,0,0,0,.229-.12.9.9,0,0,1,.779-.4c.55,0,.848.26.848.755v.393H2.234c-.776,0-1.241.4-1.241,1.042A1.071,1.071,0,0,0,2.158.062,1.179,1.179,0,0,0,3.221-.506Zm-1.74-.533c0-.4.273-.622.762-.622h.984v.441a.9.9,0,0,1-.957.868A.7.7,0,0,1,1.482-1.039Zm3.476.133c0,.721.239.96.878.96A.925.925,0,0,0,6.222,0a.192.192,0,0,0,.13-.188.175.175,0,0,0-.191-.181c-.062,0-.13.01-.246.01-.362,0-.485-.116-.485-.516V-3.165h.584a.2.2,0,0,0,.226-.2.2.2,0,0,0-.226-.205H5.429v-.643a.231.231,0,0,0-.236-.263.231.231,0,0,0-.236.263v.643H4.633a.2.2,0,0,0-.226.205.2.2,0,0,0,.226.2h.325ZM7.026-4.481a.326.326,0,0,0,.325.332.326.326,0,0,0,.335-.332.321.321,0,0,0-.335-.325A.32.32,0,0,0,7.026-4.481ZM7.59-.229V-3.343a.23.23,0,0,0-.232-.263.233.233,0,0,0-.239.263V-.229a.233.233,0,0,0,.236.263A.231.231,0,0,0,7.59-.229Zm2.485-3.4a1.441,1.441,0,0,0-1.5,1.565V-1.5a1.443,1.443,0,0,0,1.5,1.565,1.444,1.444,0,0,0,1.5-1.565v-.564A1.444,1.444,0,0,0,10.074-3.633Zm0,.424c.615,0,1.025.461,1.025,1.193v.461c0,.749-.407,1.193-1.025,1.193S9.049-.81,9.049-1.555v-.461C9.049-2.751,9.459-3.209,10.074-3.209Zm5.274,2.98v-2.2a1.109,1.109,0,0,0-1.22-1.2,1.077,1.077,0,0,0-1.111.728h-.024v-.434c0-.164-.089-.267-.232-.267a.236.236,0,0,0-.239.267v3.11a.231.231,0,0,0,.236.263.231.231,0,0,0,.236-.263v-1.8a1.033,1.033,0,0,1,1.029-1.176.8.8,0,0,1,.851.916V-.229a.231.231,0,0,0,.236.263A.233.233,0,0,0,15.348-.229Zm.827-.513a.736.736,0,0,0,.41.571,1.878,1.878,0,0,0,.933.232c.793,0,1.323-.39,1.323-1.046,0-.513-.314-.79-.919-.943l-.632-.157c-.386-.1-.578-.273-.578-.564,0-.369.308-.584.776-.584a.922.922,0,0,1,.813.42c.113.133.161.167.256.167a.192.192,0,0,0,.205-.205.737.737,0,0,0-.349-.533,1.634,1.634,0,0,0-.909-.25c-.766,0-1.261.393-1.261,1.019,0,.5.308.8.913.943l.656.157c.338.085.564.277.564.571,0,.383-.342.6-.834.6a1.039,1.039,0,0,1-.909-.448c-.1-.133-.157-.178-.243-.178A.2.2,0,0,0,16.176-.742Z" transform="translate(208 847.6)"/></g><path d="M1301.886,1510.823a42.811,42.811,0,0,1-8.553-.863,42.359,42.359,0,0,1-32.963-32.977,42.666,42.666,0,0,1-.863-8.542V965.878a42.452,42.452,0,0,1,.866-8.549,42.024,42.024,0,0,1,6.374-15.143,42.292,42.292,0,0,1,35.14-18.685h205.1a42.841,42.841,0,0,1,8.554.863,42.356,42.356,0,0,1,32.963,32.978,42.662,42.662,0,0,1,.863,8.542v502.561a42.708,42.708,0,0,1-.863,8.552,42.377,42.377,0,0,1-32.978,32.965,42.8,42.8,0,0,1-8.539.861Zm-9.563-569.32a25.568,25.568,0,0,0-15.625,23.578v502.963a25.559,25.559,0,0,0,25.585,25.586h204.7a25.567,25.567,0,0,0,25.589-25.586V965.081a25.564,25.564,0,0,0-25.589-25.588h-26.6c-2.739,0-4.279,1.2-4.582,3.579a33.25,33.25,0,0,1-.658,3.641,25.356,25.356,0,0,1-1.948,5.523,14.307,14.307,0,0,1-3.942,5.042,10.582,10.582,0,0,1-6.65,2.205H1346.662a10.411,10.411,0,0,1-6.467-2.148,14.654,14.654,0,0,1-3.975-4.946,25.339,25.339,0,0,1-2.042-5.491,23.782,23.782,0,0,1-.673-3.785,4.123,4.123,0,0,0-1.236-2.9,3.031,3.031,0,0,0-2-.72h-27.987A25.436,25.436,0,0,0,1292.323,941.5Zm140.105,1a4.8,4.8,0,1,0,3.391-1.405A4.795,4.795,0,0,0,1432.428,942.5Zm-45.386,3.39a2.807,2.807,0,0,0,2.8,2.8h30.387a2.8,2.8,0,1,0,0-5.6h-30.387A2.807,2.807,0,0,0,1387.042,945.888Zm-26.583,542.145a1.8,1.8,0,1,1,0-3.6h88.355a1.8,1.8,0,1,1,0,3.6Z" transform="translate(-24017.506 -18361.395)"/></g><g transform="translate(19207.088 8122)"><rect class="f" width="232" height="112" transform="translate(-19018.088 -7542)"/><g class="u" transform="matrix(1, 0, 0, 1, -19047.09, -7938.89)"><path class="b" d="M0,0H255.181V138.686H0Z" transform="translate(17.09 374.89)"/></g><path d="M.386-1.895A2.045,2.045,0,0,0,2.642.176,2.077,2.077,0,0,0,4.912-2.09V-7.046H3.652V-2.1c0,.767-.366,1.172-1.025,1.172a.942.942,0,0,1-1.011-.967Zm8.364,2a2.47,2.47,0,0,0,2.568-2.778A2.469,2.469,0,0,0,8.75-5.439,2.474,2.474,0,0,0,6.182-2.671,2.468,2.468,0,0,0,8.75.107Zm0-.991c-.845,0-1.328-.654-1.328-1.782S7.905-4.448,8.75-4.448s1.323.654,1.323,1.782S9.595-.884,8.75-.884Zm6.758.972c1.348,0,2.192-1.06,2.192-2.754s-.84-2.759-2.192-2.759a1.743,1.743,0,0,0-1.626.938H13.8V-7.4H12.588V0h1.167V-.845h.083A1.809,1.809,0,0,0,15.508.088Zm-.381-4.5c.825,0,1.328.659,1.328,1.748s-.5,1.748-1.328,1.748-1.348-.669-1.348-1.748S14.3-4.414,15.127-4.414Z" transform="translate(-19011.088 -7524)"/><path d="M3.349,0V-2.729L5.6-6.341H4.7L2.988-3.524h-.07L1.208-6.341h-.9l2.25,3.612V0ZM7.818.083A2.156,2.156,0,0,0,10-2.369,2.154,2.154,0,0,0,7.818-4.821,2.154,2.154,0,0,0,5.634-2.369,2.156,2.156,0,0,0,7.818.083Zm0-.681c-.9,0-1.4-.65-1.4-1.771s.505-1.771,1.4-1.771,1.4.646,1.4,1.771S8.714-.6,7.818-.6Zm7.2-4.14h-.756v2.8A1.192,1.192,0,0,1,12.973-.606c-.756,0-1.072-.4-1.072-1.248V-4.737h-.756V-1.67c0,1.121.554,1.753,1.617,1.753a1.478,1.478,0,0,0,1.468-.826h.07V0h.721ZM16.444,0H17.2V-2.936a1.16,1.16,0,0,1,1.244-1.151,3.035,3.035,0,0,1,.483.044V-4.8a3.246,3.246,0,0,0-.378-.022,1.323,1.323,0,0,0-1.314.787h-.07v-.7h-.721Zm8.618.149a2.412,2.412,0,0,0,2.562-1.916h-.8A1.7,1.7,0,0,1,25.062-.58c-1.222,0-1.986-1-1.986-2.588s.765-2.593,1.982-2.593A1.743,1.743,0,0,1,26.82-4.43h.8a2.473,2.473,0,0,0-2.566-2.061c-1.723,0-2.795,1.274-2.795,3.322S23.339.149,25.062.149ZM30.8.083a2.156,2.156,0,0,0,2.184-2.452A2.154,2.154,0,0,0,30.8-4.821a2.154,2.154,0,0,0-2.184,2.452A2.156,2.156,0,0,0,30.8.083Zm0-.681c-.9,0-1.4-.65-1.4-1.771S29.9-4.14,30.8-4.14s1.4.646,1.4,1.771S31.7-.6,30.8-.6Zm3.371.6h.756V-2.936a1.145,1.145,0,0,1,1.1-1.2.9.9,0,0,1,.989.923V0h.756V-3.045a1.066,1.066,0,0,1,1.1-1.094c.668,0,1,.343,1,1.042V0h.756V-3.274a1.382,1.382,0,0,0-1.507-1.547,1.586,1.586,0,0,0-1.45.831H37.6a1.368,1.368,0,0,0-1.31-.831,1.34,1.34,0,0,0-1.323.831h-.07v-.747h-.721ZM44.31-4.821a1.708,1.708,0,0,0-1.516.875h-.07v-.791H42V1.582h.756V-.712h.07a1.59,1.59,0,0,0,1.481.8c1.2,0,1.991-.971,1.991-2.452S45.519-4.821,44.31-4.821ZM44.13-.6c-.853,0-1.393-.686-1.393-1.771s.541-1.771,1.4-1.771,1.384.664,1.384,1.771S45-.6,44.13-.6Zm4.676.681A1.637,1.637,0,0,0,50.265-.7h.07V0h.721V-3.243c0-.984-.646-1.578-1.8-1.578-1.011,0-1.758.5-1.859,1.261h.765c.105-.374.5-.589,1.068-.589.708,0,1.072.321,1.072.905v.431l-1.367.083c-1.1.066-1.727.554-1.727,1.4A1.441,1.441,0,0,0,48.806.083Zm.141-.664c-.549,0-.958-.281-.958-.765s.316-.725,1.037-.773L50.3-2.2v.435A1.246,1.246,0,0,1,48.946-.58ZM52.453,0h.756V-2.8A1.2,1.2,0,0,1,54.453-4.14c.756,0,1.116.4,1.116,1.257V0h.756V-3.067a1.544,1.544,0,0,0-1.657-1.753,1.424,1.424,0,0,0-1.424.831h-.07v-.747h-.721Zm5.48,1.714c.839,0,1.217-.325,1.622-1.424L61.4-4.737h-.8l-1.3,3.9h-.07l-1.3-3.9h-.817L58.869,0l-.088.281c-.2.571-.435.778-.87.778a1.82,1.82,0,0,1-.316-.022v.646A2.237,2.237,0,0,0,57.933,1.714Zm9.875-3.907v-.716H64.925v.716ZM74.391.149a2.412,2.412,0,0,0,2.562-1.916h-.8A1.7,1.7,0,0,1,74.391-.58c-1.222,0-1.986-1-1.986-2.588s.765-2.593,1.982-2.593A1.743,1.743,0,0,1,76.148-4.43h.8a2.473,2.473,0,0,0-2.566-2.061c-1.723,0-2.795,1.274-2.795,3.322S72.668.149,74.391.149Zm4.188-5.8a.529.529,0,0,0,.527-.527.529.529,0,0,0-.527-.527.529.529,0,0,0-.527.527A.529.529,0,0,0,78.579-5.651ZM78.2,0h.756V-4.737H78.2Zm2.514-5.963v1.226H79.95V-4.1h.765V-1.23c0,.905.391,1.266,1.367,1.266a2.532,2.532,0,0,0,.444-.044V-.646a3.192,3.192,0,0,1-.352.018c-.492,0-.7-.237-.7-.8V-4.1h1.055v-.633H81.47V-5.963Zm3.357,7.677c.839,0,1.217-.325,1.622-1.424l1.85-5.027h-.8l-1.3,3.9h-.07l-1.3-3.9h-.817L85.008,0,84.92.286c-.2.571-.435.778-.87.778a1.82,1.82,0,0,1-.316-.022v.646A2.237,2.237,0,0,0,84.072,1.714Z" transform="translate(-19011.088 -7510)"/><path class="g" d="M.629-4.932V0h.615V-1.76H2.485A1.519,1.519,0,0,0,4.071-3.336a1.517,1.517,0,0,0-1.579-1.6Zm.615.547H2.331A.973.973,0,0,1,3.438-3.336.976.976,0,0,1,2.331-2.307H1.244ZM6.412.065a1.677,1.677,0,0,0,1.7-1.907,1.675,1.675,0,0,0-1.7-1.907,1.675,1.675,0,0,0-1.7,1.907A1.677,1.677,0,0,0,6.412.065Zm0-.53c-.7,0-1.09-.506-1.09-1.377S5.715-3.22,6.412-3.22s1.09.5,1.09,1.377S7.109-.465,6.412-.465ZM8.948-2.676c0,.533.314.831,1,1l.632.154c.393.1.584.267.584.52,0,.338-.355.574-.851.574A.812.812,0,0,1,9.454-.94h-.6c.065.612.629,1,1.449,1,.837,0,1.477-.455,1.477-1.114,0-.53-.335-.831-1.029-1l-.567-.137C9.745-2.29,9.54-2.447,9.54-2.7c0-.328.342-.55.779-.55a.751.751,0,0,1,.81.489h.581a1.241,1.241,0,0,0-1.388-.988C9.54-3.75,8.948-3.288,8.948-2.676ZM12.91-4.638v.954h-.595v.492h.595V-.957c0,.7.3.984,1.063.984a1.969,1.969,0,0,0,.345-.034V-.5a2.483,2.483,0,0,1-.273.014c-.383,0-.547-.185-.547-.619V-3.192h.82v-.492H13.5v-.954ZM17.6-.954a.954.954,0,0,1-.95.5c-.625,0-1.032-.461-1.063-1.189v-.027h2.649V-1.9c0-1.145-.6-1.853-1.6-1.853a1.684,1.684,0,0,0-1.661,1.911c0,1.166.639,1.9,1.661,1.9A1.471,1.471,0,0,0,18.184-.954ZM16.625-3.23a.992.992,0,0,1,.988,1.083h-2.03A1.05,1.05,0,0,1,16.625-3.23ZM20.518.065A1.32,1.32,0,0,0,21.7-.588h.055V0h.561V-5.147h-.588V-3.1h-.051a1.259,1.259,0,0,0-1.155-.646c-.937,0-1.548.752-1.548,1.907S19.575.065,20.518.065Zm.137-3.285c.667,0,1.083.533,1.083,1.377S21.325-.465,20.655-.465s-1.077-.516-1.077-1.377S19.985-3.22,20.655-3.22Zm5.021-1.418v.954h-.595v.492h.595V-.957c0,.7.3.984,1.063.984a1.969,1.969,0,0,0,.345-.034V-.5a2.483,2.483,0,0,1-.273.014c-.383,0-.547-.185-.547-.619V-3.192h.82v-.492h-.82v-.954Zm3.76,4.7a1.677,1.677,0,0,0,1.7-1.907,1.675,1.675,0,0,0-1.7-1.907,1.675,1.675,0,0,0-1.7,1.907A1.677,1.677,0,0,0,29.436.065Zm0-.53c-.7,0-1.09-.506-1.09-1.377s.393-1.377,1.09-1.377,1.09.5,1.09,1.377S30.133-.465,29.436-.465Zm3.985.53A1.32,1.32,0,0,0,34.6-.588h.055V0h.561V-5.147h-.588V-3.1h-.051a1.259,1.259,0,0,0-1.155-.646c-.937,0-1.548.752-1.548,1.907S32.478.065,33.421.065Zm.137-3.285c.667,0,1.083.533,1.083,1.377S34.228-.465,33.558-.465s-1.077-.516-1.077-1.377S32.888-3.22,33.558-3.22ZM37.382.065a1.273,1.273,0,0,0,1.135-.608h.055V0h.561V-2.522c0-.766-.5-1.227-1.4-1.227-.786,0-1.367.39-1.446.981h.595c.082-.291.39-.458.831-.458.55,0,.834.25.834.7v.335l-1.063.065c-.858.051-1.343.431-1.343,1.09A1.121,1.121,0,0,0,37.382.065Zm.109-.516c-.427,0-.745-.219-.745-.595s.246-.564.807-.6l.991-.065v.338A.969.969,0,0,1,37.492-.451ZM40.4,1.333c.653,0,.947-.253,1.261-1.107L43.1-3.685h-.625L41.463-.653h-.055L40.4-3.685h-.636L41.125,0l-.068.219c-.154.444-.338.6-.677.6A1.415,1.415,0,0,1,40.134.81v.5A1.74,1.74,0,0,0,40.4,1.333Z" transform="translate(-19011.088 -7545)"/><path class="g" d="M8.676,11.6a.59.59,0,0,0,.59-.583V3.806L9.221,2.753l.463.508,1.046,1.113a.53.53,0,0,0,.4.179.521.521,0,0,0,.546-.523.529.529,0,0,0-.179-.389L9.116,1.34a.609.609,0,0,0-.441-.2.586.586,0,0,0-.441.2l-2.384,2.3a.529.529,0,0,0-.179.389.514.514,0,0,0,.538.523.561.561,0,0,0,.411-.179L7.659,3.261l.463-.508L8.078,3.806v7.211A.592.592,0,0,0,8.676,11.6ZM4.61,17.175h8.116a1.988,1.988,0,0,0,2.257-2.227V7.931A1.99,1.99,0,0,0,12.726,5.7H10.783V6.93h1.906a.967.967,0,0,1,1.069,1.084v6.853a.967.967,0,0,1-1.069,1.084H4.655a.963.963,0,0,1-1.069-1.084V8.014A.963.963,0,0,1,4.655,6.93H6.568V5.7H4.61A1.993,1.993,0,0,0,2.354,7.931v7.017A1.988,1.988,0,0,0,4.61,17.175Z" transform="translate(-18836.055 -7558.311)"/><g transform="translate(-18809.9 -7555.939)"><path class="h" d="M2.266,8.931c0,3.383,2.838,6.716,7.3,9.579a1.443,1.443,0,0,0,.638.243,1.407,1.407,0,0,0,.638-.243c4.458-2.863,7.3-6.2,7.3-9.579a4.564,4.564,0,0,0-4.55-4.852A3.99,3.99,0,0,0,10.2,5.841,3.989,3.989,0,0,0,6.807,4.078,4.557,4.557,0,0,0,2.266,8.931Zm1.394-.008A3.187,3.187,0,0,1,6.833,5.463,3.268,3.268,0,0,1,9.645,7.151c.218.319.361.42.554.42s.319-.109.554-.42a3.377,3.377,0,0,1,2.821-1.687,3.181,3.181,0,0,1,3.165,3.459c0,2.9-3.047,6.061-6.38,8.278a.411.411,0,0,1-.16.084.476.476,0,0,1-.16-.084C6.707,14.984,3.659,11.827,3.659,8.922Z" transform="translate(-2.266 -4.078)"/></g><g transform="translate(-19010.857 -7504.555)"><g class="i" transform="translate(-0.231 -0.445)"><rect class="r" width="66" height="26"/><rect class="s" x="0.5" y="0.5" width="65" height="25"/></g><path class="j" d="M1.1.044A.377.377,0,0,0,1.49-.378V-5.621A.377.377,0,0,0,1.1-6.042a.374.374,0,0,0-.382.422V-.378A.374.374,0,0,0,1.1.044ZM6.645-.378V-3.16A1.417,1.417,0,0,0,5.071-4.693a1.357,1.357,0,0,0-1.4.918H3.63V-4.25a.363.363,0,0,0-.374-.413.371.371,0,0,0-.378.422V-.378c0,.264.141.422.378.422s.378-.158.378-.422V-2.584c0-.9.479-1.441,1.239-1.441.65,0,1.011.378,1.011,1.094V-.378c0,.264.141.422.378.422A.372.372,0,0,0,6.645-.378Zm1.569-.848c0,.962.321,1.3,1.156,1.3a1.228,1.228,0,0,0,.545-.092.306.306,0,0,0,.193-.29.27.27,0,0,0-.29-.281c-.083,0-.171.013-.294.013-.426,0-.549-.145-.549-.637v-2.76h.615a.31.31,0,0,0,.352-.316.311.311,0,0,0-.352-.321h-.62v-.76a.365.365,0,0,0-.378-.417c-.233,0-.374.154-.374.417v.76H7.879a.311.311,0,0,0-.352.321.31.31,0,0,0,.352.316h.334Zm2.558-.712a1.862,1.862,0,0,0,2,2.017,2.065,2.065,0,0,0,1.472-.505.692.692,0,0,0,.215-.439.3.3,0,0,0-.294-.321c-.127,0-.18.035-.417.255a1.283,1.283,0,0,1-.94.356,1.2,1.2,0,0,1-1.274-1.3v-.242h2.628c.325,0,.413-.141.413-.642A1.83,1.83,0,0,0,12.7-4.7a1.9,1.9,0,0,0-1.929,2.03Zm.765-.8v-.013a1.18,1.18,0,0,1,1.173-1.3c.681,0,1.116.505,1.116,1.3v.013ZM16.475-.378V-2.861c0-.76.352-1.125,1.028-1.129a.7.7,0,0,0,.334-.062.3.3,0,0,0,.149-.286.31.31,0,0,0-.149-.277.6.6,0,0,0-.325-.079,1.145,1.145,0,0,0-1.02.62h-.022V-4.25a.362.362,0,0,0-.369-.413.376.376,0,0,0-.382.422V-.378c0,.264.141.422.378.422S16.475-.114,16.475-.378Zm6.223,0V-3.16a1.417,1.417,0,0,0-1.573-1.534,1.357,1.357,0,0,0-1.4.918h-.04V-4.25a.363.363,0,0,0-.374-.413.371.371,0,0,0-.378.422V-.378c0,.264.141.422.378.422s.378-.158.378-.422V-2.584c0-.9.479-1.441,1.239-1.441.65,0,1.011.378,1.011,1.094V-.378c0,.264.141.422.378.422A.372.372,0,0,0,22.7-.378ZM23.722-.94a.876.876,0,0,0,.514.716,2.593,2.593,0,0,0,1.257.3c1.081,0,1.749-.532,1.749-1.375,0-.655-.374-1.046-1.178-1.239l-.857-.207c-.461-.114-.677-.316-.677-.65,0-.426.347-.686.914-.686a1.21,1.21,0,0,1,.98.457c.185.189.255.233.391.233a.3.3,0,0,0,.321-.312.88.88,0,0,0-.448-.664A2.206,2.206,0,0,0,25.475-4.7c-1.028,0-1.687.532-1.687,1.354,0,.65.387,1.055,1.191,1.239l.879.2c.4.1.642.343.642.668,0,.426-.374.694-.967.694a1.384,1.384,0,0,1-1.112-.488c-.154-.189-.246-.25-.369-.25A.309.309,0,0,0,23.722-.94Zm8.42.563V-3.151a1.431,1.431,0,0,0-1.556-1.542,1.439,1.439,0,0,0-1.433.918h-.04V-5.919a.37.37,0,0,0-.382-.422c-.233,0-.374.154-.374.422V-.378c0,.264.136.422.374.422a.372.372,0,0,0,.382-.422V-2.584c0-.892.479-1.441,1.23-1.441a.974.974,0,0,1,1.037,1.1V-.378c0,.264.136.422.374.422A.377.377,0,0,0,32.142-.378Zm1.208-5.4a.476.476,0,0,0,.479.483.477.477,0,0,0,.5-.483.47.47,0,0,0-.5-.475A.468.468,0,0,0,33.35-5.774Zm.861,5.4V-4.241c0-.281-.158-.422-.374-.422a.372.372,0,0,0-.382.422V-.378a.371.371,0,0,0,.378.422A.369.369,0,0,0,34.211-.378Zm2.162,1.644V-.681h.04A1.346,1.346,0,0,0,37.74.075a1.761,1.761,0,0,0,1.8-1.978V-2.72a1.751,1.751,0,0,0-1.771-1.973,1.4,1.4,0,0,0-1.389.809h-.04V-4.25c0-.264-.132-.413-.36-.413s-.36.154-.36.422V1.266c0,.264.141.422.378.422S36.374,1.529,36.374,1.266Zm0-3.12v-.826a1.188,1.188,0,0,1,1.2-1.354c.769,0,1.2.532,1.2,1.472v.5c0,.936-.431,1.477-1.178,1.477A1.191,1.191,0,0,1,36.374-1.854Z" transform="translate(5.77 20.555)"/><path class="k" d="M1.529.029A.2.2,0,0,0,1.734-.2V-3.621H2.8c.135,0,.22-.07.22-.185S2.933-4,2.8-4H.264a.191.191,0,0,0-.217.19c0,.114.085.185.217.185H1.327V-.2A.2.2,0,0,0,1.529.029ZM2.886.891a.155.155,0,0,0,.059.123.442.442,0,0,0,.275.073c.442,0,.721-.234.929-.817L5.227-2.725a.419.419,0,0,0,.035-.155.189.189,0,0,0-.2-.193c-.1,0-.164.064-.211.205L4.028-.419H4.011L3.182-2.868c-.047-.141-.117-.205-.214-.205a.2.2,0,0,0-.208.2.458.458,0,0,0,.035.155L3.812.047,3.75.252c-.085.287-.272.483-.5.483-.064,0-.123-.006-.164-.006C2.968.729,2.886.791,2.886.891ZM6.337.876V-.483h.021a.927.927,0,0,0,.908.536,1.167,1.167,0,0,0,1.192-1.3v-.568a1.161,1.161,0,0,0-1.175-1.3.968.968,0,0,0-.946.565H6.316v-.313c0-.144-.07-.229-.193-.229s-.19.085-.19.229V.876c0,.138.073.226.2.226A.2.2,0,0,0,6.337.876Zm0-2.1V-1.79A.856.856,0,0,1,7.2-2.751c.53,0,.853.369.853,1.031v.375c0,.671-.331,1.034-.841,1.034A.856.856,0,0,1,6.337-1.225Zm2.807-.067A1.216,1.216,0,0,0,10.436.053a1.31,1.31,0,0,0,.935-.319.506.506,0,0,0,.164-.311.169.169,0,0,0-.164-.179c-.07,0-.1.021-.234.152a.9.9,0,0,1-.683.293.859.859,0,0,1-.9-.958v-.167h1.825c.182,0,.234-.085.234-.366a1.2,1.2,0,0,0-1.219-1.312A1.237,1.237,0,0,0,9.144-1.758Zm.407-.5V-1.8a.856.856,0,0,1,.841-.961c.5,0,.812.369.812.961v.009Zm5.235-1.327A1.235,1.235,0,0,0,13.5-1.772v.483A1.237,1.237,0,0,0,14.786.053a1.238,1.238,0,0,0,1.286-1.342v-.483A1.238,1.238,0,0,0,14.786-3.114Zm0,.363c.527,0,.879.4.879,1.022v.4c0,.642-.349,1.022-.879,1.022s-.879-.384-.879-1.022v-.4C13.907-2.358,14.259-2.751,14.786-2.751ZM17.458-.2V-2.713h.51a.172.172,0,0,0,.193-.173.171.171,0,0,0-.193-.176h-.51v-.352c0-.316.126-.457.39-.457.138,0,.188.023.3.023A.148.148,0,0,0,18.3-4a.178.178,0,0,0-.079-.146.622.622,0,0,0-.337-.076.733.733,0,0,0-.832.838v.328h-.3a.169.169,0,0,0-.193.173.173.173,0,0,0,.193.176h.3V-.2a.2.2,0,0,0,.2.226A.2.2,0,0,0,17.458-.2Zm2.5-3.645a.278.278,0,0,0,.278.284.28.28,0,0,0,.287-.284.275.275,0,0,0-.287-.278A.275.275,0,0,0,19.963-3.841Zm-.261,4.9c.483,0,.744-.281.744-.832V-2.865a.2.2,0,0,0-.2-.226.2.2,0,0,0-.2.226V.105c0,.442-.1.609-.354.609-.035,0-.1-.006-.135-.006-.117,0-.187.062-.187.164a.144.144,0,0,0,.082.135A.514.514,0,0,0,19.7,1.058Zm2.874-4.172a1.235,1.235,0,0,0-1.289,1.342v.483A1.237,1.237,0,0,0,22.576.053a1.238,1.238,0,0,0,1.286-1.342v-.483A1.238,1.238,0,0,0,22.576-3.114Zm0,.363c.527,0,.879.4.879,1.022v.4c0,.642-.349,1.022-.879,1.022S21.7-.694,21.7-1.333v-.4C21.7-2.358,22.049-2.751,22.576-2.751Zm3.448,2.8a1.167,1.167,0,0,0,1.192-1.3v-.568a1.161,1.161,0,0,0-1.178-1.3.924.924,0,0,0-.932.565h-.021V-4a.2.2,0,0,0-.205-.226c-.126,0-.2.088-.2.226V-.2c0,.144.07.226.19.226s.193-.082.193-.226V-.483h.021A.971.971,0,0,0,26.024.053Zm-.937-1.289v-.539a.872.872,0,0,1,.876-.976c.521,0,.844.387.844,1.046v.366c0,.665-.325,1.028-.832,1.028A.875.875,0,0,1,25.087-1.236ZM28.008-2.37a.3.3,0,0,0,.3.3.3.3,0,0,0,.3-.3.3.3,0,0,0-.3-.3A.3.3,0,0,0,28.008-2.37Zm0,2.112a.3.3,0,0,0,.3.3.3.3,0,0,0,.3-.3.3.3,0,0,0-.3-.3A.3.3,0,0,0,28.008-.258Z" transform="translate(5.77 7.555)"/></g><path class="l" d="M2.774,0H33.593a2.774,2.774,0,1,1,0,5.547H2.774A2.774,2.774,0,0,1,2.774,0Z" transform="translate(-19010.893 -7469.694)"/><path class="l" d="M2.774,0H55.166a2.774,2.774,0,0,1,0,5.547H2.774A2.774,2.774,0,0,1,2.774,0Z" transform="translate(-19010.893 -7454.901)"/><path class="l" d="M2.774,0H49.619a2.774,2.774,0,1,1,0,5.547H2.774A2.774,2.774,0,0,1,2.774,0Z" transform="translate(-19010.893 -7442.573)"/><path class="l" d="M2.774,0H55.166a2.774,2.774,0,0,1,0,5.547H2.774A2.774,2.774,0,0,1,2.774,0Z" transform="translate(-18968.363 -7469.694)"/><path class="l" d="M2.774,0H31.127a2.774,2.774,0,0,1,0,5.547H2.774A2.774,2.774,0,0,1,2.774,0Z" transform="translate(-18946.789 -7454.901)"/><path class="l" d="M2.774,0H58.248a2.774,2.774,0,0,1,0,5.547H2.774A2.774,2.774,0,0,1,2.774,0Z" transform="translate(-18952.336 -7442.573)"/><path class="l" d="M2.774,0h99.854a2.774,2.774,0,0,1,0,5.547H2.774A2.774,2.774,0,0,1,2.774,0Z" transform="translate(-18904.258 -7469.694)"/><path class="l" d="M2.774,0H39.14a2.774,2.774,0,1,1,0,5.547H2.774A2.774,2.774,0,0,1,2.774,0Z" transform="translate(-18840.771 -7454.901)"/><path class="l" d="M2.774,0H57.015a2.774,2.774,0,1,1,0,5.547H2.774A2.774,2.774,0,0,1,2.774,0Z" transform="translate(-18906.723 -7454.901)"/><path class="l" d="M2.774,0H83.52a2.774,2.774,0,1,1,0,5.547H2.774A2.774,2.774,0,0,1,2.774,0Z" transform="translate(-18885.15 -7442.573)"/></g><g transform="translate(19208.088 7971)"><rect class="f" width="232" height="112" transform="translate(-19018.088 -7542)"/><g class="t" transform="matrix(1, 0, 0, 1, -19048.09, -7787.89)"><path class="b" d="M0,0H255.181V138.686H0Z" transform="translate(18.09 223.89)"/></g><path d="M.386-1.895A2.045,2.045,0,0,0,2.642.176,2.077,2.077,0,0,0,4.912-2.09V-7.046H3.652V-2.1c0,.767-.366,1.172-1.025,1.172a.942.942,0,0,1-1.011-.967Zm8.364,2a2.47,2.47,0,0,0,2.568-2.778A2.469,2.469,0,0,0,8.75-5.439,2.474,2.474,0,0,0,6.182-2.671,2.468,2.468,0,0,0,8.75.107Zm0-.991c-.845,0-1.328-.654-1.328-1.782S7.905-4.448,8.75-4.448s1.323.654,1.323,1.782S9.595-.884,8.75-.884Zm6.758.972c1.348,0,2.192-1.06,2.192-2.754s-.84-2.759-2.192-2.759a1.743,1.743,0,0,0-1.626.938H13.8V-7.4H12.588V0h1.167V-.845h.083A1.809,1.809,0,0,0,15.508.088Zm-.381-4.5c.825,0,1.328.659,1.328,1.748s-.5,1.748-1.328,1.748-1.348-.669-1.348-1.748S14.3-4.414,15.127-4.414Z" transform="translate(-19011.088 -7524)"/><path d="M3.349,0V-2.729L5.6-6.341H4.7L2.988-3.524h-.07L1.208-6.341h-.9l2.25,3.612V0ZM7.818.083A2.156,2.156,0,0,0,10-2.369,2.154,2.154,0,0,0,7.818-4.821,2.154,2.154,0,0,0,5.634-2.369,2.156,2.156,0,0,0,7.818.083Zm0-.681c-.9,0-1.4-.65-1.4-1.771s.505-1.771,1.4-1.771,1.4.646,1.4,1.771S8.714-.6,7.818-.6Zm7.2-4.14h-.756v2.8A1.192,1.192,0,0,1,12.973-.606c-.756,0-1.072-.4-1.072-1.248V-4.737h-.756V-1.67c0,1.121.554,1.753,1.617,1.753a1.478,1.478,0,0,0,1.468-.826h.07V0h.721ZM16.444,0H17.2V-2.936a1.16,1.16,0,0,1,1.244-1.151,3.035,3.035,0,0,1,.483.044V-4.8a3.246,3.246,0,0,0-.378-.022,1.323,1.323,0,0,0-1.314.787h-.07v-.7h-.721Zm8.618.149a2.412,2.412,0,0,0,2.562-1.916h-.8A1.7,1.7,0,0,1,25.062-.58c-1.222,0-1.986-1-1.986-2.588s.765-2.593,1.982-2.593A1.743,1.743,0,0,1,26.82-4.43h.8a2.473,2.473,0,0,0-2.566-2.061c-1.723,0-2.795,1.274-2.795,3.322S23.339.149,25.062.149ZM30.8.083a2.156,2.156,0,0,0,2.184-2.452A2.154,2.154,0,0,0,30.8-4.821a2.154,2.154,0,0,0-2.184,2.452A2.156,2.156,0,0,0,30.8.083Zm0-.681c-.9,0-1.4-.65-1.4-1.771S29.9-4.14,30.8-4.14s1.4.646,1.4,1.771S31.7-.6,30.8-.6Zm3.371.6h.756V-2.936a1.145,1.145,0,0,1,1.1-1.2.9.9,0,0,1,.989.923V0h.756V-3.045a1.066,1.066,0,0,1,1.1-1.094c.668,0,1,.343,1,1.042V0h.756V-3.274a1.382,1.382,0,0,0-1.507-1.547,1.586,1.586,0,0,0-1.45.831H37.6a1.368,1.368,0,0,0-1.31-.831,1.34,1.34,0,0,0-1.323.831h-.07v-.747h-.721ZM44.31-4.821a1.708,1.708,0,0,0-1.516.875h-.07v-.791H42V1.582h.756V-.712h.07a1.59,1.59,0,0,0,1.481.8c1.2,0,1.991-.971,1.991-2.452S45.519-4.821,44.31-4.821ZM44.13-.6c-.853,0-1.393-.686-1.393-1.771s.541-1.771,1.4-1.771,1.384.664,1.384,1.771S45-.6,44.13-.6Zm4.676.681A1.637,1.637,0,0,0,50.265-.7h.07V0h.721V-3.243c0-.984-.646-1.578-1.8-1.578-1.011,0-1.758.5-1.859,1.261h.765c.105-.374.5-.589,1.068-.589.708,0,1.072.321,1.072.905v.431l-1.367.083c-1.1.066-1.727.554-1.727,1.4A1.441,1.441,0,0,0,48.806.083Zm.141-.664c-.549,0-.958-.281-.958-.765s.316-.725,1.037-.773L50.3-2.2v.435A1.246,1.246,0,0,1,48.946-.58ZM52.453,0h.756V-2.8A1.2,1.2,0,0,1,54.453-4.14c.756,0,1.116.4,1.116,1.257V0h.756V-3.067a1.544,1.544,0,0,0-1.657-1.753,1.424,1.424,0,0,0-1.424.831h-.07v-.747h-.721Zm5.48,1.714c.839,0,1.217-.325,1.622-1.424L61.4-4.737h-.8l-1.3,3.9h-.07l-1.3-3.9h-.817L58.869,0l-.088.281c-.2.571-.435.778-.87.778a1.82,1.82,0,0,1-.316-.022v.646A2.237,2.237,0,0,0,57.933,1.714Zm9.875-3.907v-.716H64.925v.716ZM74.391.149a2.412,2.412,0,0,0,2.562-1.916h-.8A1.7,1.7,0,0,1,74.391-.58c-1.222,0-1.986-1-1.986-2.588s.765-2.593,1.982-2.593A1.743,1.743,0,0,1,76.148-4.43h.8a2.473,2.473,0,0,0-2.566-2.061c-1.723,0-2.795,1.274-2.795,3.322S72.668.149,74.391.149Zm4.188-5.8a.529.529,0,0,0,.527-.527.529.529,0,0,0-.527-.527.529.529,0,0,0-.527.527A.529.529,0,0,0,78.579-5.651ZM78.2,0h.756V-4.737H78.2Zm2.514-5.963v1.226H79.95V-4.1h.765V-1.23c0,.905.391,1.266,1.367,1.266a2.532,2.532,0,0,0,.444-.044V-.646a3.192,3.192,0,0,1-.352.018c-.492,0-.7-.237-.7-.8V-4.1h1.055v-.633H81.47V-5.963Zm3.357,7.677c.839,0,1.217-.325,1.622-1.424l1.85-5.027h-.8l-1.3,3.9h-.07l-1.3-3.9h-.817L85.008,0,84.92.286c-.2.571-.435.778-.87.778a1.82,1.82,0,0,1-.316-.022v.646A2.237,2.237,0,0,0,84.072,1.714Z" transform="translate(-19011.088 -7510)"/><g transform="translate(-18936.299 -7506.33)"><g class="i" transform="translate(0.486 1.33)"><rect class="r" width="70.409" height="26.09"/><rect class="s" x="0.5" y="0.5" width="69.409" height="25.09"/></g><path d="M.5.026a.823.823,0,0,0,.436.6A2.156,2.156,0,0,0,2.107.941c1.335,0,2.026-.991,2.026-2.9,0-1.81-.667-2.785-1.918-2.785a1.766,1.766,0,0,0-1.89,1.85,1.705,1.705,0,0,0,1.734,1.83,1.373,1.373,0,0,0,1.363-.863h.036C3.458-.486,3,.341,2.1.341a1.288,1.288,0,0,1-.955-.42C.992-.222.908-.27.8-.27A.281.281,0,0,0,.5.026Zm2.833-2.9A1.121,1.121,0,0,1,2.175-1.665,1.123,1.123,0,0,1,1.016-2.88,1.152,1.152,0,0,1,2.175-4.135,1.154,1.154,0,0,1,3.338-2.876ZM4.844-1.785C4.844-.13,5.552.953,6.783.953S8.725-.134,8.725-1.785v-.2c0-1.654-.7-2.749-1.938-2.749S4.844-3.639,4.844-1.985Zm.7-.2c0-1.331.476-2.146,1.239-2.146s1.247.815,1.247,2.146v.188C8.029-.462,7.554.349,6.787.349S5.544-.462,5.544-1.793ZM11.075-.29a1.092,1.092,0,0,0,.436.759,2.32,2.32,0,0,0,1.543.484C14.252.953,15,.341,15-.638c0-.771-.436-1.231-1.415-1.495l-.907-.248c-.512-.136-.783-.428-.783-.835,0-.543.456-.9,1.163-.9a1.218,1.218,0,0,1,1.183.719.331.331,0,0,0,.332.232.294.294,0,0,0,.3-.32,1.1,1.1,0,0,0-.416-.783,2.137,2.137,0,0,0-1.419-.472c-1.119,0-1.874.631-1.874,1.571q0,1.085,1.315,1.439l.919.248c.611.164.9.456.9.915,0,.559-.456.891-1.207.891a1.408,1.408,0,0,1-1.291-.643c-.152-.228-.264-.312-.428-.312A.305.305,0,0,0,11.075-.29ZM15.886.889c.192,0,.3-.088.376-.328L16.721-.8h2.042l.46,1.363c.076.236.184.328.376.328a.3.3,0,0,0,.336-.3.744.744,0,0,0-.052-.248L18.24-4.254c-.1-.28-.24-.408-.5-.408s-.4.128-.5.408L15.606.337a.787.787,0,0,0-.052.252A.3.3,0,0,0,15.886.889Zm1.023-2.254.819-2.43h.028l.819,2.43ZM21.493.493V-1.333H22.82L23.759.529c.12.236.224.32.4.32A.321.321,0,0,0,24.5.541a.7.7,0,0,0-.064-.272l-.923-1.754a1.536,1.536,0,0,0,1.011-1.5,1.577,1.577,0,0,0-1.75-1.63H21.453c-.472,0-.655.172-.655.611v4.5a.349.349,0,1,0,.7,0Zm0-2.434V-4h1.191a.993.993,0,0,1,1.123,1.047c0,.659-.4,1.011-1.151,1.011ZM27.351,1.9l1.814-6.442a.468.468,0,0,0,.016-.1.3.3,0,0,0-.308-.3.29.29,0,0,0-.292.216L26.768,1.712a.3.3,0,0,0-.02.1.306.306,0,0,0,.308.3A.294.294,0,0,0,27.351,1.9Zm7.657-1.4V-2.029a1.3,1.3,0,0,0-1.415-1.4,1.309,1.309,0,0,0-1.3.835h-.036v-1.95a.336.336,0,0,0-.348-.384c-.212,0-.34.14-.34.384V.493c0,.24.124.384.34.384a.338.338,0,0,0,.348-.384V-1.513c0-.811.436-1.311,1.119-1.311a.886.886,0,0,1,.943,1V.493c0,.24.124.384.34.384A.343.343,0,0,0,35.008.493ZM37.8-3.435A1.719,1.719,0,0,0,36-1.585v.639A1.72,1.72,0,0,0,37.8.909,1.719,1.719,0,0,0,39.6-.946v-.639A1.718,1.718,0,0,0,37.8-3.435Zm0,.6c.679,0,1.1.52,1.1,1.311v.52c0,.811-.424,1.319-1.1,1.319s-1.111-.508-1.111-1.319v-.52C36.691-2.316,37.122-2.836,37.8-2.836ZM43.28.141h.04V.517a.344.344,0,1,0,.687-.008V-3.036a.326.326,0,0,0-.344-.372.327.327,0,0,0-.348.372V-.69A1.039,1.039,0,0,1,42.185.3a.817.817,0,0,1-.9-.919V-3.036a.326.326,0,0,0-.344-.372.327.327,0,0,0-.348.372V-.442A1.243,1.243,0,0,0,41.99.9,1.241,1.241,0,0,0,43.28.141Zm2.638.352V-1.765c0-.691.32-1.023.935-1.027a.633.633,0,0,0,.3-.056.27.27,0,0,0,.136-.26.282.282,0,0,0-.136-.252.549.549,0,0,0-.3-.072,1.041,1.041,0,0,0-.927.563h-.02v-.16a.329.329,0,0,0-.336-.376.342.342,0,0,0-.348.384V.493c0,.24.128.384.344.384S45.918.733,45.918.493Z" transform="translate(11.911 20.632)"/><path class="k" d="M.275-.251A1,1,0,0,0,.69.437a1.93,1.93,0,0,0,1.243.38c1,0,1.634-.514,1.634-1.336,0-.654-.363-1.031-1.223-1.267l-.736-.206c-.493-.134-.733-.394-.733-.784,0-.514.418-.846,1.069-.846a1.052,1.052,0,0,1,1.065.671.225.225,0,0,0,.236.171A.2.2,0,0,0,3.458-3a.953.953,0,0,0-.38-.688,1.788,1.788,0,0,0-1.144-.367C1-4.057.371-3.533.371-2.745c0,.61.367,1.01,1.1,1.213l.754.206c.593.161.853.425.853.86,0,.521-.432.846-1.117.846A1.212,1.212,0,0,1,.8-.251c-.1-.171-.185-.236-.3-.236A.216.216,0,0,0,.275-.251ZM6.455.208h.021V.482c0,.164.086.264.229.264s.229-.1.229-.264v-2.25c0-.747-.462-1.158-1.295-1.158a1.546,1.546,0,0,0-.812.192.722.722,0,0,0-.414.551.18.18,0,0,0,.188.2.26.26,0,0,0,.229-.12.9.9,0,0,1,.781-.4c.551,0,.849.26.849.757v.394h-1c-.778,0-1.243.4-1.243,1.045A1.073,1.073,0,0,0,5.389.776,1.181,1.181,0,0,0,6.455.208ZM4.711-.327c0-.4.274-.623.764-.623h.987v.442A.9.9,0,0,1,5.5.362.7.7,0,0,1,4.711-.327ZM8.256.749A.231.231,0,0,0,8.493.485V-3.961a.231.231,0,0,0-.236-.264.231.231,0,0,0-.236.264V.485A.231.231,0,0,0,8.256.749ZM11.637.208h.021V.482c0,.164.086.264.229.264s.229-.1.229-.264v-2.25c0-.747-.462-1.158-1.295-1.158a1.546,1.546,0,0,0-.812.192.722.722,0,0,0-.414.551.18.18,0,0,0,.188.2.26.26,0,0,0,.229-.12.9.9,0,0,1,.781-.4c.551,0,.849.26.849.757v.394h-1c-.778,0-1.243.4-1.243,1.045A1.073,1.073,0,0,0,10.572.776,1.181,1.181,0,0,0,11.637.208ZM9.894-.327c0-.4.274-.623.764-.623h.987v.442a.9.9,0,0,1-.959.87A.7.7,0,0,1,9.894-.327Zm3.754.812V-1.525c0-.647.322-.952.856-.952a.6.6,0,0,0,.247-.034.179.179,0,0,0,.11-.185.188.188,0,0,0-.11-.178.484.484,0,0,0-.243-.051.917.917,0,0,0-.846.534h-.014v-.243a.232.232,0,0,0-.233-.264.235.235,0,0,0-.24.264V.485a.234.234,0,0,0,.24.264C13.562.749,13.648.65,13.648.485Zm1.884,1.271A.182.182,0,0,0,15.6,1.9a.517.517,0,0,0,.322.086c.517,0,.843-.274,1.086-.956l1.261-3.5a.49.49,0,0,0,.041-.182.221.221,0,0,0-.233-.226c-.113,0-.192.075-.247.24L16.868.225h-.021l-.969-2.864c-.055-.164-.137-.24-.25-.24a.229.229,0,0,0-.243.229.535.535,0,0,0,.041.182L16.614.77l-.072.24c-.1.336-.319.565-.582.565-.075,0-.144-.007-.192-.007C15.628,1.568,15.532,1.64,15.532,1.756Zm3.425-3.812a.345.345,0,0,0,.346.346.345.345,0,0,0,.346-.346A.345.345,0,0,0,19.3-2.4.345.345,0,0,0,18.957-2.056Zm0,2.47A.346.346,0,1,0,19.3.067.345.345,0,0,0,18.957.413Z" transform="translate(11.903 10.231)"/></g><path class="g" d="M.629-4.932V0h.615V-1.76H2.485A1.519,1.519,0,0,0,4.071-3.336a1.517,1.517,0,0,0-1.579-1.6Zm.615.547H2.331A.973.973,0,0,1,3.438-3.336.976.976,0,0,1,2.331-2.307H1.244ZM6.412.065a1.677,1.677,0,0,0,1.7-1.907,1.675,1.675,0,0,0-1.7-1.907,1.675,1.675,0,0,0-1.7,1.907A1.677,1.677,0,0,0,6.412.065Zm0-.53c-.7,0-1.09-.506-1.09-1.377S5.715-3.22,6.412-3.22s1.09.5,1.09,1.377S7.109-.465,6.412-.465ZM8.948-2.676c0,.533.314.831,1,1l.632.154c.393.1.584.267.584.52,0,.338-.355.574-.851.574A.812.812,0,0,1,9.454-.94h-.6c.065.612.629,1,1.449,1,.837,0,1.477-.455,1.477-1.114,0-.53-.335-.831-1.029-1l-.567-.137C9.745-2.29,9.54-2.447,9.54-2.7c0-.328.342-.55.779-.55a.751.751,0,0,1,.81.489h.581a1.241,1.241,0,0,0-1.388-.988C9.54-3.75,8.948-3.288,8.948-2.676ZM12.91-4.638v.954h-.595v.492h.595V-.957c0,.7.3.984,1.063.984a1.969,1.969,0,0,0,.345-.034V-.5a2.483,2.483,0,0,1-.273.014c-.383,0-.547-.185-.547-.619V-3.192h.82v-.492H13.5v-.954ZM17.6-.954a.954.954,0,0,1-.95.5c-.625,0-1.032-.461-1.063-1.189v-.027h2.649V-1.9c0-1.145-.6-1.853-1.6-1.853a1.684,1.684,0,0,0-1.661,1.911c0,1.166.639,1.9,1.661,1.9A1.471,1.471,0,0,0,18.184-.954ZM16.625-3.23a.992.992,0,0,1,.988,1.083h-2.03A1.05,1.05,0,0,1,16.625-3.23ZM20.518.065A1.32,1.32,0,0,0,21.7-.588h.055V0h.561V-5.147h-.588V-3.1h-.051a1.259,1.259,0,0,0-1.155-.646c-.937,0-1.548.752-1.548,1.907S19.575.065,20.518.065Zm.137-3.285c.667,0,1.083.533,1.083,1.377S21.325-.465,20.655-.465s-1.077-.516-1.077-1.377S19.985-3.22,20.655-3.22Zm5.021-1.418v.954h-.595v.492h.595V-.957c0,.7.3.984,1.063.984a1.969,1.969,0,0,0,.345-.034V-.5a2.483,2.483,0,0,1-.273.014c-.383,0-.547-.185-.547-.619V-3.192h.82v-.492h-.82v-.954Zm3.76,4.7a1.677,1.677,0,0,0,1.7-1.907,1.675,1.675,0,0,0-1.7-1.907,1.675,1.675,0,0,0-1.7,1.907A1.677,1.677,0,0,0,29.436.065Zm0-.53c-.7,0-1.09-.506-1.09-1.377s.393-1.377,1.09-1.377,1.09.5,1.09,1.377S30.133-.465,29.436-.465Zm3.985.53A1.32,1.32,0,0,0,34.6-.588h.055V0h.561V-5.147h-.588V-3.1h-.051a1.259,1.259,0,0,0-1.155-.646c-.937,0-1.548.752-1.548,1.907S32.478.065,33.421.065Zm.137-3.285c.667,0,1.083.533,1.083,1.377S34.228-.465,33.558-.465s-1.077-.516-1.077-1.377S32.888-3.22,33.558-3.22ZM37.382.065a1.273,1.273,0,0,0,1.135-.608h.055V0h.561V-2.522c0-.766-.5-1.227-1.4-1.227-.786,0-1.367.39-1.446.981h.595c.082-.291.39-.458.831-.458.55,0,.834.25.834.7v.335l-1.063.065c-.858.051-1.343.431-1.343,1.09A1.121,1.121,0,0,0,37.382.065Zm.109-.516c-.427,0-.745-.219-.745-.595s.246-.564.807-.6l.991-.065v.338A.969.969,0,0,1,37.492-.451ZM40.4,1.333c.653,0,.947-.253,1.261-1.107L43.1-3.685h-.625L41.463-.653h-.055L40.4-3.685h-.636L41.125,0l-.068.219c-.154.444-.338.6-.677.6A1.415,1.415,0,0,1,40.134.81v.5A1.74,1.74,0,0,0,40.4,1.333Z" transform="translate(-19011.088 -7545)"/><path class="g" d="M8.676,11.6a.59.59,0,0,0,.59-.583V3.806L9.221,2.753l.463.508,1.046,1.113a.53.53,0,0,0,.4.179.521.521,0,0,0,.546-.523.529.529,0,0,0-.179-.389L9.116,1.34a.609.609,0,0,0-.441-.2.586.586,0,0,0-.441.2l-2.384,2.3a.529.529,0,0,0-.179.389.514.514,0,0,0,.538.523.561.561,0,0,0,.411-.179L7.659,3.261l.463-.508L8.078,3.806v7.211A.592.592,0,0,0,8.676,11.6ZM4.61,17.175h8.116a1.988,1.988,0,0,0,2.257-2.227V7.931A1.99,1.99,0,0,0,12.726,5.7H10.783V6.93h1.906a.967.967,0,0,1,1.069,1.084v6.853a.967.967,0,0,1-1.069,1.084H4.655a.963.963,0,0,1-1.069-1.084V8.014A.963.963,0,0,1,4.655,6.93H6.568V5.7H4.61A1.993,1.993,0,0,0,2.354,7.931v7.017A1.988,1.988,0,0,0,4.61,17.175Z" transform="translate(-18836.055 -7558.311)"/><g transform="translate(-18809.9 -7555.939)"><path class="h" d="M2.266,8.931c0,3.383,2.838,6.716,7.3,9.579a1.443,1.443,0,0,0,.638.243,1.407,1.407,0,0,0,.638-.243c4.458-2.863,7.3-6.2,7.3-9.579a4.564,4.564,0,0,0-4.55-4.852A3.99,3.99,0,0,0,10.2,5.841,3.989,3.989,0,0,0,6.807,4.078,4.557,4.557,0,0,0,2.266,8.931Zm1.394-.008A3.187,3.187,0,0,1,6.833,5.463,3.268,3.268,0,0,1,9.645,7.151c.218.319.361.42.554.42s.319-.109.554-.42a3.377,3.377,0,0,1,2.821-1.687,3.181,3.181,0,0,1,3.165,3.459c0,2.9-3.047,6.061-6.38,8.278a.411.411,0,0,1-.16.084.476.476,0,0,1-.16-.084C6.707,14.984,3.659,11.827,3.659,8.922Z" transform="translate(-2.266 -4.078)"/></g><g transform="translate(-19010.857 -7504.555)"><g class="i" transform="translate(-0.231 -0.445)"><rect class="r" width="66" height="26"/><rect class="s" x="0.5" y="0.5" width="65" height="25"/></g><path class="m" d="M1.1.044A.377.377,0,0,0,1.49-.378v-2.21h2.2c.242,0,.4-.132.4-.343s-.154-.343-.4-.343H1.49V-5.313H3.92c.237,0,.391-.127.391-.338A.348.348,0,0,0,3.92-6H1.428c-.505,0-.708.185-.708.65v4.97A.374.374,0,0,0,1.1.044Zm4.5,0a.369.369,0,0,0,.378-.422V-5.919A.369.369,0,0,0,5.6-6.341c-.215,0-.374.136-.374.422V-.378C5.225-.092,5.383.044,5.6.044ZM7.167-1.938a1.862,1.862,0,0,0,2,2.017,2.065,2.065,0,0,0,1.472-.505.692.692,0,0,0,.215-.439.3.3,0,0,0-.294-.321c-.127,0-.18.035-.417.255a1.283,1.283,0,0,1-.94.356,1.2,1.2,0,0,1-1.274-1.3v-.242H10.56c.325,0,.413-.141.413-.642A1.83,1.83,0,0,0,9.1-4.7a1.9,1.9,0,0,0-1.929,2.03Zm.765-.8v-.013a1.18,1.18,0,0,1,1.173-1.3c.681,0,1.116.505,1.116,1.3v.013ZM11.865-.3a.344.344,0,0,0,.347.343.439.439,0,0,0,.36-.246l1.011-1.542h.048L14.669-.193a.46.46,0,0,0,.382.237.348.348,0,0,0,.343-.352.474.474,0,0,0-.088-.264L14.041-2.3,15.3-4.056a.4.4,0,0,0,.079-.237.33.33,0,0,0-.338-.347.432.432,0,0,0-.369.237L13.632-2.861h-.048L12.542-4.408a.448.448,0,0,0-.374-.237.344.344,0,0,0-.347.343.508.508,0,0,0,.083.268L13.175-2.3,11.949-.558A.455.455,0,0,0,11.865-.3Zm4.526-5.476a.476.476,0,0,0,.479.483.477.477,0,0,0,.5-.483.47.47,0,0,0-.5-.475A.468.468,0,0,0,16.392-5.774Zm.861,5.4V-4.241c0-.281-.158-.422-.374-.422a.372.372,0,0,0-.382.422V-.378a.371.371,0,0,0,.378.422A.369.369,0,0,0,17.253-.378Zm3.542.453a1.761,1.761,0,0,0,1.8-1.978V-2.72a1.749,1.749,0,0,0-1.771-1.973,1.346,1.346,0,0,0-1.367.8h-.04v-2.03c0-.264-.141-.422-.378-.422s-.378.158-.378.422V-.378c0,.268.132.422.36.422s.365-.149.365-.413V-.681h.04A1.416,1.416,0,0,0,20.795.075Zm-1.38-1.947V-2.65a1.222,1.222,0,0,1,1.226-1.384c.751,0,1.182.558,1.182,1.5v.479c0,.932-.422,1.468-1.165,1.468A1.222,1.222,0,0,1,19.415-1.872ZM24.192.044a.369.369,0,0,0,.378-.422V-5.919a.369.369,0,0,0-.378-.422c-.215,0-.374.136-.374.422V-.378C23.818-.092,23.977.044,24.192.044Zm1.569-1.982a1.862,1.862,0,0,0,2,2.017,2.065,2.065,0,0,0,1.472-.505.692.692,0,0,0,.215-.439.3.3,0,0,0-.294-.321c-.127,0-.18.035-.417.255a1.283,1.283,0,0,1-.94.356,1.2,1.2,0,0,1-1.274-1.3v-.242h2.628c.325,0,.413-.141.413-.642A1.83,1.83,0,0,0,27.69-4.7a1.9,1.9,0,0,0-1.929,2.03Zm.765-.8v-.013a1.18,1.18,0,0,1,1.173-1.3c.681,0,1.116.505,1.116,1.3v.013ZM33.086-.668c.163.584.277.712.584.712.29,0,.4-.127.563-.712l.831-2.9h.022l.853,2.9c.167.584.3.712.584.712s.391-.127.549-.712l.9-3.388a.865.865,0,0,0,.044-.229.34.34,0,0,0-.36-.356c-.185,0-.316.145-.382.413l-.76,3.292h-.035l-.857-3.019c-.163-.571-.259-.686-.549-.686s-.391.119-.545.686L33.688-.936h-.031L32.924-4.21c-.066-.277-.211-.431-.4-.431a.379.379,0,0,0-.4.4A1.139,1.139,0,0,0,32.155-4ZM40.768-4.7a1.89,1.89,0,0,0-1.986,2.035v.7A1.892,1.892,0,0,0,40.768.079,1.891,1.891,0,0,0,42.75-1.96v-.7A1.889,1.889,0,0,0,40.768-4.7Zm0,.659c.747,0,1.213.571,1.213,1.441v.571c0,.892-.466,1.45-1.213,1.45s-1.222-.558-1.222-1.45V-2.6C39.546-3.467,40.021-4.039,40.768-4.039Zm3.9,3.661V-2.861c0-.76.352-1.125,1.028-1.129a.7.7,0,0,0,.334-.062.3.3,0,0,0,.149-.286.31.31,0,0,0-.149-.277.6.6,0,0,0-.325-.079,1.145,1.145,0,0,0-1.02.62h-.022V-4.25a.362.362,0,0,0-.369-.413.376.376,0,0,0-.382.422V-.378c0,.264.141.422.378.422S44.666-.114,44.666-.378Zm3.226,0V-1.7l.505-.475L49.913-.211a.444.444,0,0,0,.352.224.354.354,0,0,0,.347-.347.521.521,0,0,0-.136-.325l-1.538-2L50.3-4.047a.46.46,0,0,0,.163-.321.309.309,0,0,0-.316-.312.509.509,0,0,0-.36.2L47.922-2.6h-.031V-5.919c0-.268-.141-.422-.378-.422s-.378.154-.378.422V-.378c0,.264.141.422.378.422S47.892-.114,47.892-.378Z" transform="translate(5.77 20.555)"/><path class="k" d="M1.529.029A.2.2,0,0,0,1.734-.2V-3.621H2.8c.135,0,.22-.07.22-.185S2.933-4,2.8-4H.264a.191.191,0,0,0-.217.19c0,.114.085.185.217.185H1.327V-.2A.2.2,0,0,0,1.529.029ZM2.886.891a.155.155,0,0,0,.059.123.442.442,0,0,0,.275.073c.442,0,.721-.234.929-.817L5.227-2.725a.419.419,0,0,0,.035-.155.189.189,0,0,0-.2-.193c-.1,0-.164.064-.211.205L4.028-.419H4.011L3.182-2.868c-.047-.141-.117-.205-.214-.205a.2.2,0,0,0-.208.2.458.458,0,0,0,.035.155L3.812.047,3.75.252c-.085.287-.272.483-.5.483-.064,0-.123-.006-.164-.006C2.968.729,2.886.791,2.886.891ZM6.337.876V-.483h.021a.927.927,0,0,0,.908.536,1.167,1.167,0,0,0,1.192-1.3v-.568a1.161,1.161,0,0,0-1.175-1.3.968.968,0,0,0-.946.565H6.316v-.313c0-.144-.07-.229-.193-.229s-.19.085-.19.229V.876c0,.138.073.226.2.226A.2.2,0,0,0,6.337.876Zm0-2.1V-1.79A.856.856,0,0,1,7.2-2.751c.53,0,.853.369.853,1.031v.375c0,.671-.331,1.034-.841,1.034A.856.856,0,0,1,6.337-1.225Zm2.807-.067A1.216,1.216,0,0,0,10.436.053a1.31,1.31,0,0,0,.935-.319.506.506,0,0,0,.164-.311.169.169,0,0,0-.164-.179c-.07,0-.1.021-.234.152a.9.9,0,0,1-.683.293.859.859,0,0,1-.9-.958v-.167h1.825c.182,0,.234-.085.234-.366a1.2,1.2,0,0,0-1.219-1.312A1.237,1.237,0,0,0,9.144-1.758Zm.407-.5V-1.8a.856.856,0,0,1,.841-.961c.5,0,.812.369.812.961v.009Zm5.235-1.327A1.235,1.235,0,0,0,13.5-1.772v.483A1.237,1.237,0,0,0,14.786.053a1.238,1.238,0,0,0,1.286-1.342v-.483A1.238,1.238,0,0,0,14.786-3.114Zm0,.363c.527,0,.879.4.879,1.022v.4c0,.642-.349,1.022-.879,1.022s-.879-.384-.879-1.022v-.4C13.907-2.358,14.259-2.751,14.786-2.751ZM17.458-.2V-2.713h.51a.172.172,0,0,0,.193-.173.171.171,0,0,0-.193-.176h-.51v-.352c0-.316.126-.457.39-.457.138,0,.188.023.3.023A.148.148,0,0,0,18.3-4a.178.178,0,0,0-.079-.146.622.622,0,0,0-.337-.076.733.733,0,0,0-.832.838v.328h-.3a.169.169,0,0,0-.193.173.173.173,0,0,0,.193.176h.3V-.2a.2.2,0,0,0,.2.226A.2.2,0,0,0,17.458-.2Zm2.5-3.645a.278.278,0,0,0,.278.284.28.28,0,0,0,.287-.284.275.275,0,0,0-.287-.278A.275.275,0,0,0,19.963-3.841Zm-.261,4.9c.483,0,.744-.281.744-.832V-2.865a.2.2,0,0,0-.2-.226.2.2,0,0,0-.2.226V.105c0,.442-.1.609-.354.609-.035,0-.1-.006-.135-.006-.117,0-.187.062-.187.164a.144.144,0,0,0,.082.135A.514.514,0,0,0,19.7,1.058Zm2.874-4.172a1.235,1.235,0,0,0-1.289,1.342v.483A1.237,1.237,0,0,0,22.576.053a1.238,1.238,0,0,0,1.286-1.342v-.483A1.238,1.238,0,0,0,22.576-3.114Zm0,.363c.527,0,.879.4.879,1.022v.4c0,.642-.349,1.022-.879,1.022S21.7-.694,21.7-1.333v-.4C21.7-2.358,22.049-2.751,22.576-2.751Zm3.448,2.8a1.167,1.167,0,0,0,1.192-1.3v-.568a1.161,1.161,0,0,0-1.178-1.3.924.924,0,0,0-.932.565h-.021V-4a.2.2,0,0,0-.205-.226c-.126,0-.2.088-.2.226V-.2c0,.144.07.226.19.226s.193-.082.193-.226V-.483h.021A.971.971,0,0,0,26.024.053Zm-.937-1.289v-.539a.872.872,0,0,1,.876-.976c.521,0,.844.387.844,1.046v.366c0,.665-.325,1.028-.832,1.028A.875.875,0,0,1,25.087-1.236ZM28.008-2.37a.3.3,0,0,0,.3.3.3.3,0,0,0,.3-.3.3.3,0,0,0-.3-.3A.3.3,0,0,0,28.008-2.37Zm0,2.112a.3.3,0,0,0,.3.3.3.3,0,0,0,.3-.3.3.3,0,0,0-.3-.3A.3.3,0,0,0,28.008-.258Z" transform="translate(5.77 7.555)"/></g><path class="l" d="M2.774,0H33.593a2.774,2.774,0,1,1,0,5.547H2.774A2.774,2.774,0,0,1,2.774,0Z" transform="translate(-19010.893 -7469.694)"/><path class="l" d="M2.774,0H55.166a2.774,2.774,0,0,1,0,5.547H2.774A2.774,2.774,0,0,1,2.774,0Z" transform="translate(-19010.893 -7454.901)"/><path class="l" d="M2.774,0H49.619a2.774,2.774,0,1,1,0,5.547H2.774A2.774,2.774,0,0,1,2.774,0Z" transform="translate(-19010.893 -7442.573)"/><path class="l" d="M2.774,0H55.166a2.774,2.774,0,0,1,0,5.547H2.774A2.774,2.774,0,0,1,2.774,0Z" transform="translate(-18968.363 -7469.694)"/><path class="l" d="M2.774,0H31.127a2.774,2.774,0,0,1,0,5.547H2.774A2.774,2.774,0,0,1,2.774,0Z" transform="translate(-18946.789 -7454.901)"/><path class="l" d="M2.774,0H58.248a2.774,2.774,0,0,1,0,5.547H2.774A2.774,2.774,0,0,1,2.774,0Z" transform="translate(-18952.336 -7442.573)"/><path class="l" d="M2.774,0h99.854a2.774,2.774,0,0,1,0,5.547H2.774A2.774,2.774,0,0,1,2.774,0Z" transform="translate(-18904.258 -7469.694)"/><path class="l" d="M2.774,0H39.14a2.774,2.774,0,1,1,0,5.547H2.774A2.774,2.774,0,0,1,2.774,0Z" transform="translate(-18840.771 -7454.901)"/><path class="l" d="M2.774,0H57.015a2.774,2.774,0,1,1,0,5.547H2.774A2.774,2.774,0,0,1,2.774,0Z" transform="translate(-18906.723 -7454.901)"/><path class="l" d="M2.774,0H83.52a2.774,2.774,0,1,1,0,5.547H2.774A2.774,2.774,0,0,1,2.774,0Z" transform="translate(-18885.15 -7442.573)"/></g><g transform="translate(178 -1076)"><rect class="n" width="255" height="20" transform="translate(0 1339)"/><path class="k" d="M4.559-3.714H5.3L3.217-9.362h-.7L.438-3.714h.74L1.745-5.33H3.992ZM2.837-8.45H2.9l.885,2.521H1.953ZM6.242-3.714h.673V-9.608H6.242Zm2.02,0h.673V-9.608H8.262Zm4.6-5.033a.471.471,0,0,0,.47-.47.471.471,0,0,0-.47-.47.471.471,0,0,0-.47.47A.471.471,0,0,0,12.865-8.747Zm.329.814H12.52v4.438c0,.466-.157.654-.634.654h-.1v.575H11.9c.885,0,1.292-.372,1.292-1.241ZM16.211-3.64a1.92,1.92,0,0,0,1.945-2.184,1.918,1.918,0,0,0-1.945-2.184,1.918,1.918,0,0,0-1.945,2.184A1.92,1.92,0,0,0,16.211-3.64Zm0-.607c-.8,0-1.249-.579-1.249-1.577S15.413-7.4,16.211-7.4s1.249.575,1.249,1.577S17.01-4.246,16.211-4.246Zm5.1.607c1.069,0,1.769-.865,1.769-2.184s-.7-2.184-1.769-2.184a1.457,1.457,0,0,0-1.323.74h-.063V-9.608h-.673v5.894h.642v-.673h.063A1.514,1.514,0,0,0,21.311-3.64ZM21.154-7.4c.771,0,1.229.591,1.229,1.577s-.458,1.577-1.229,1.577-1.245-.6-1.245-1.577S20.387-7.4,21.154-7.4Zm2.885.622c0,.611.36.951,1.151,1.143l.724.176c.45.11.669.305.669.595,0,.387-.407.658-.975.658a.929.929,0,0,1-.99-.583h-.693c.074.7.72,1.151,1.66,1.151.959,0,1.691-.521,1.691-1.276,0-.607-.384-.951-1.178-1.143l-.65-.157c-.5-.121-.732-.3-.732-.591,0-.376.391-.63.892-.63a.86.86,0,0,1,.928.56H27.2a1.421,1.421,0,0,0-1.589-1.131C24.716-8.007,24.039-7.479,24.039-6.778Z" transform="translate(31.587 1355.046)"/><path class="k" d="M-11.233-5.137a3.165,3.165,0,0,0,1.918-.645l2.145,2.15a.4.4,0,0,0,.278.114.385.385,0,0,0,.392-.4.388.388,0,0,0-.11-.278L-8.746-6.334a3.156,3.156,0,0,0,.7-1.994,3.2,3.2,0,0,0-3.191-3.191,3.2,3.2,0,0,0-3.191,3.191A3.2,3.2,0,0,0-11.233-5.137Zm0-.535a2.666,2.666,0,0,1-2.655-2.655,2.669,2.669,0,0,1,2.655-2.655A2.669,2.669,0,0,1-8.578-8.328,2.666,2.666,0,0,1-11.233-5.672Z" transform="translate(33.277 1356.365)"/></g><g transform="translate(23069 17871)"><path class="o" d="M8.229,0h19.4a8.229,8.229,0,0,1,0,16.458H8.229A8.229,8.229,0,0,1,8.229,0Z" transform="translate(-22866 -17626.857)"/><path d="M-9.118-4.357h1.193l-2.209-6.212h-1.248l-2.2,6.212h1.124l.534-1.606h2.286Zm-1.7-5.046h.073L-9.9-6.819h-1.769ZM-2.9-5.308h-2.85v-5.261H-6.858v6.212H-2.9Zm5.157,0H-.589v-5.261H-1.7v6.212H2.261Z" transform="translate(-22842.766 -17611.332)"/><g transform="translate(-22802.893 -17623.797)"><path d="M.842-6.23A2.05,2.05,0,0,0,3.15-4.461c1.421,0,2.32-.728,2.32-1.868,0-.913-.517-1.412-1.8-1.735l-.65-.172c-.857-.22-1.2-.5-1.2-.986,0-.629.547-1.042,1.373-1.042A1.273,1.273,0,0,1,4.6-9.248H5.38a1.976,1.976,0,0,0-2.161-1.718c-1.313,0-2.2.715-2.2,1.769,0,.883.486,1.391,1.61,1.675l.8.207c.857.215,1.244.551,1.244,1.081,0,.616-.616,1.068-1.451,1.068-.883,0-1.5-.413-1.6-1.063Zm9.574-3.018h-.74V-6.5A1.168,1.168,0,0,1,8.411-5.2c-.74,0-1.05-.387-1.05-1.223V-9.248H6.62v3c0,1.1.542,1.718,1.584,1.718a1.448,1.448,0,0,0,1.438-.809h.069v.728h.706Zm1.782-.9a.518.518,0,0,0,.517-.517.518.518,0,0,0-.517-.517.518.518,0,0,0-.517.517A.518.518,0,0,0,12.2-10.144Zm-.37,5.536h.74V-9.248h-.74Zm2.462-5.842v1.2h-.749v.62h.749v2.816c0,.887.383,1.24,1.339,1.24a2.481,2.481,0,0,0,.435-.043V-5.24a3.127,3.127,0,0,1-.344.017c-.482,0-.689-.232-.689-.779V-8.628h1.033v-.62H15.032v-1.2Zm4.185,5.924a1.6,1.6,0,0,0,1.429-.766h.069v.685h.706V-7.784c0-.964-.633-1.546-1.765-1.546-.99,0-1.722.491-1.821,1.236h.749c.1-.366.491-.577,1.046-.577.693,0,1.05.314,1.05.887v.422L18.6-7.281c-1.081.065-1.692.542-1.692,1.373A1.411,1.411,0,0,0,18.476-4.525Zm.138-.65c-.538,0-.939-.276-.939-.749s.31-.71,1.016-.758l1.248-.082v.426A1.221,1.221,0,0,1,18.614-5.175Zm5.743.65c1.175,0,1.946-.951,1.946-2.4s-.766-2.4-1.946-2.4a1.6,1.6,0,0,0-1.455.814h-.069v-2.574h-.74v6.483H22.8v-.74h.069A1.665,1.665,0,0,0,24.357-4.525Zm-.172-4.137c.848,0,1.352.65,1.352,1.735s-.5,1.735-1.352,1.735-1.369-.663-1.369-1.735S23.341-8.663,24.184-8.663Zm3.324,4.055h.74v-6.483h-.74Zm5.252-1.2a1.2,1.2,0,0,1-1.2.629c-.788,0-1.3-.581-1.339-1.5v-.034h3.336V-7c0-1.442-.762-2.333-2.015-2.333a2.121,2.121,0,0,0-2.092,2.407c0,1.468.805,2.4,2.092,2.4A1.853,1.853,0,0,0,33.5-5.808ZM31.537-8.676a1.249,1.249,0,0,1,1.244,1.365H30.224A1.322,1.322,0,0,1,31.537-8.676Zm5.984-1.774v1.2h-.749v.62h.749v2.816c0,.887.383,1.24,1.339,1.24a2.481,2.481,0,0,0,.435-.043V-5.24a3.127,3.127,0,0,1-.344.017c-.482,0-.689-.232-.689-.779V-8.628H39.3v-.62H38.262v-1.2Zm4.736,5.924a2.112,2.112,0,0,0,2.14-2.4,2.11,2.11,0,0,0-2.14-2.4,2.11,2.11,0,0,0-2.14,2.4A2.112,2.112,0,0,0,42.257-4.525Zm0-.667c-.878,0-1.373-.637-1.373-1.735s.5-1.735,1.373-1.735,1.373.633,1.373,1.735S43.135-5.193,42.257-5.193Zm5.79.585h.74V-7.483a1.122,1.122,0,0,1,1.076-1.18.879.879,0,0,1,.969.9v3.151h.74V-7.591a1.044,1.044,0,0,1,1.076-1.072c.654,0,.977.336.977,1.02v3.035h.74V-7.815A1.354,1.354,0,0,0,52.891-9.33a1.554,1.554,0,0,0-1.421.814H51.4a1.34,1.34,0,0,0-1.283-.814,1.313,1.313,0,0,0-1.3.814h-.069v-.732h-.706Zm10.745-1.2a1.2,1.2,0,0,1-1.2.629c-.788,0-1.3-.581-1.339-1.5v-.034h3.336V-7c0-1.442-.762-2.333-2.015-2.333a2.121,2.121,0,0,0-2.092,2.407c0,1.468.805,2.4,2.092,2.4a1.853,1.853,0,0,0,1.954-1.283ZM57.57-8.676a1.249,1.249,0,0,1,1.244,1.365H56.257A1.322,1.322,0,0,1,57.57-8.676Z" transform="translate(11.194 12.717)"/><path d="M6.935-10.075a2.276,2.276,0,0,0,2.159-2.394A2.247,2.247,0,0,0,6.935-14.8a2.252,2.252,0,0,0-2.154,2.334A2.27,2.27,0,0,0,6.935-10.075Zm-3.523,5h7.034c.742,0,1.047-.213,1.047-.687,0-1.4-1.75-3.332-4.564-3.332S2.366-7.168,2.366-5.767C2.366-5.293,2.671-5.08,3.413-5.08Z" transform="translate(-2.366 14.797)"/></g><g transform="translate(-22696.291 -17622.602)"><path d="M2.123-4.607v-6.212H1.348v6.212Zm4.021,0h.74v-6.483h-.74Zm2.566-5.536a.518.518,0,0,0,.517-.517.518.518,0,0,0-.517-.517.518.518,0,0,0-.517.517A.518.518,0,0,0,8.709-10.144Zm-.37,5.536h.74V-9.248h-.74Zm3-2.613h-.069v-3.87h-.74v6.483h.74V-6.368l.443-.413,1.739,2.174H14.4L12.27-7.259l2-1.989h-.908Zm6.793,1.412a1.2,1.2,0,0,1-1.2.629c-.788,0-1.3-.581-1.339-1.5v-.034h3.336V-7c0-1.442-.762-2.333-2.015-2.333a2.121,2.121,0,0,0-2.092,2.407c0,1.468.805,2.4,2.092,2.4a1.853,1.853,0,0,0,1.955-1.283ZM16.915-8.676a1.249,1.249,0,0,1,1.244,1.365H15.6A1.322,1.322,0,0,1,16.915-8.676Z" transform="translate(11.947 11.52)"/><path d="M-15.876-6.683a.656.656,0,0,0,.28-.1c2.477-1.607,4.12-3.452,4.12-5.334a2.484,2.484,0,0,0-2.455-2.644,2.178,2.178,0,0,0-1.945,1.218,2.179,2.179,0,0,0-1.94-1.218,2.481,2.481,0,0,0-2.455,2.644c0,1.882,1.643,3.727,4.12,5.334A.619.619,0,0,0-15.876-6.683Z" transform="translate(20.271 14.76)"/></g><g transform="translate(-22875.18 -17651.246)"><rect width="12" height="2" rx="1" transform="translate(1.18 0.246)"/><rect width="13" height="2" rx="1" transform="translate(0.18 5.246)"/><rect width="8" height="2" rx="1" transform="translate(5.18 10.246)"/></g><g transform="translate(-22690.398 -17653.744)"><g class="p" transform="translate(39.612 0)"><path class="o" d="M0,.006,8.577,0l0,4.5L0,4.5Z" transform="matrix(-0.799, 0.602, -0.602, -0.799, 8.393, 0.52)"/><path class="k" d="M.327.009,13.918,0c.18,0,.326.1.326.218V1.424c0,.121-.146.219-.326.219L.326,1.652c-.18,0-.326-.1-.326-.218V.228C0,.107.147.009.327.009Z" transform="matrix(-0.799, 0.602, -0.602, -0.799, 9.564, 3.944)"/><path class="o" d="M.327.009,13.918,0c.18,0,.326.1.326.218V1.424c0,.121-.146.219-.326.219L.326,1.652c-.18,0-.326-.1-.326-.218V.228C0,.107.147.009.327.009Z" transform="matrix(-0.799, 0.602, -0.602, -0.799, 9.564, 8.266)"/><path class="k" d="M.327.009,13.918,0c.18,0,.326.1.326.218V1.424c0,.121-.146.219-.326.219L.326,1.652c-.18,0-.326-.1-.326-.218V.228C0,.107.147.009.327.009Z" transform="matrix(-0.799, 0.602, -0.602, -0.799, 9.564, 12.588)"/></g><g transform="translate(0 0)"><path class="q" d="M243.378,365.614a1.6,1.6,0,0,0,1.2.406v.733a1.914,1.914,0,0,1-1.911-1.03,1.889,1.889,0,0,1-.807.768,2.732,2.732,0,0,1-1.243.263h-2.644a4,4,0,0,1-1.53-.282,2.448,2.448,0,0,1-1.1-.867,2.484,2.484,0,0,1-.411-1.465,4.955,4.955,0,0,1,.248-1.446h.762a4.33,4.33,0,0,0-.228,1.307,1.817,1.817,0,0,0,.634,1.52,2.542,2.542,0,0,0,1.624.5h2.644a1.431,1.431,0,0,0,1.6-1.634v-4.9h.762v4.9A1.7,1.7,0,0,0,243.378,365.614Zm-3.189-2.931h-2.476v-.7h.317a1.108,1.108,0,0,1-.094-1.317,1.238,1.238,0,0,1,.475-.426,1.42,1.42,0,0,1,.668-.158,1.854,1.854,0,0,1,.812.208l-.327.644a1.2,1.2,0,0,0-.485-.109.583.583,0,0,0-.416.149.505.505,0,0,0-.158.386.574.574,0,0,0,.193.456.7.7,0,0,0,.48.168h1.01Z" transform="translate(-234.93 -359.484)"/><path class="q" d="M274.843,387.794a.465.465,0,0,1,.307-.1h1.981v.733H275.15a.459.459,0,0,1-.312-.1.336.336,0,0,1-.114-.267A.33.33,0,0,1,274.843,387.794Z" transform="translate(-265.505 -381.159)"/><path class="q" d="M283.392,387.794a.465.465,0,0,1,.307-.1h1.981v.733H283.7a.458.458,0,0,1-.312-.1.335.335,0,0,1-.114-.267A.33.33,0,0,1,283.392,387.794Z" transform="translate(-272.073 -381.159)"/><path class="q" d="M286.363,368.109a1.6,1.6,0,0,0,1.2.406v.733a1.914,1.914,0,0,1-1.911-1.03,1.888,1.888,0,0,1-.807.768,2.73,2.73,0,0,1-1.243.263.436.436,0,0,1-.307-.109.359.359,0,0,1-.119-.277.311.311,0,0,1,.114-.252.475.475,0,0,1,.312-.094,1.431,1.431,0,0,0,1.6-1.634v-2.189h.762v2.189A1.7,1.7,0,0,0,286.363,368.109Zm-5.658-4.595a.446.446,0,0,1-.139-.327.432.432,0,0,1,.139-.322.456.456,0,0,1,.327-.134.456.456,0,0,1,.456.456.455.455,0,0,1-.134.327.431.431,0,0,1-.322.139A.447.447,0,0,1,280.705,363.514Zm1.584,0a.446.446,0,0,1-.139-.327.432.432,0,0,1,.139-.322.456.456,0,0,1,.327-.134.456.456,0,0,1,.455.456.455.455,0,0,1-.134.327.431.431,0,0,1-.322.139A.447.447,0,0,1,282.29,363.514Z" transform="translate(-269.993 -361.979)"/><path class="q" d="M315.748,368.656a2.639,2.639,0,0,1,1.055,1.02,2.9,2.9,0,0,1,.376,1.476v2.367h-7.833a.459.459,0,0,1-.312-.1.336.336,0,0,1-.114-.267.331.331,0,0,1,.119-.267.465.465,0,0,1,.307-.1h.891v-4.5h.753v1.961a3.313,3.313,0,0,1,1.263-1.436,3.6,3.6,0,0,1,1.956-.525A3.191,3.191,0,0,1,315.748,368.656Zm.668,2.5a2.043,2.043,0,0,0-.584-1.525,2.191,2.191,0,0,0-1.6-.574,3.314,3.314,0,0,0-1.584.391,3.264,3.264,0,0,0-1.183,1.055,2.74,2.74,0,0,0-.48,1.466v.822h5.437Z" transform="translate(-291.778 -366.25)"/><path class="q" d="M350.929,375.751h-1.1v.386a2.09,2.09,0,0,1-.356,1.332,1.318,1.318,0,0,1-1.089.441,3.728,3.728,0,0,1-.911-.129l.159-.683a3.132,3.132,0,0,0,.624.079.746.746,0,0,0,.614-.243,1.266,1.266,0,0,0,.2-.8V371.2h.763v3.822h1.1Z" transform="translate(-321.399 -368.482)"/><path class="q" d="M366.692,367.673h-5.714a.475.475,0,0,1-.312-.094.321.321,0,0,1-.114-.262.346.346,0,0,1,.114-.282.476.476,0,0,1,.312-.094H362.6a2.144,2.144,0,0,1-.574-.827,2.853,2.853,0,0,1,.129-2.327,2.351,2.351,0,0,1,1.015-.971,3.812,3.812,0,0,1,1.8-.371h1.723Zm-.763-4.466h-.98a2.522,2.522,0,0,0-1.8.54,1.789,1.789,0,0,0-.56,1.342,1.741,1.741,0,0,0,.56,1.327,2.6,2.6,0,0,0,1.817.525h.961Zm-1.981-1.743a.446.446,0,0,1-.139-.327.43.43,0,0,1,.139-.322.455.455,0,0,1,.327-.134.457.457,0,0,1,.456.455.454.454,0,0,1-.134.327.43.43,0,0,1-.322.139A.446.446,0,0,1,363.948,361.463Z" transform="translate(-331.447 -360.404)"/><path class="q" d="M2.6-16.692q1.141,0,1.624.05l-.037.525H2.809a.362.362,0,0,0-.254.07.34.34,0,0,0-.072.248v.736h1.5v.537h-1.5v1.657h-.7V-15.94A.7.7,0,0,1,2-16.5.867.867,0,0,1,2.6-16.692Zm6.336.008v2.323a1.787,1.787,0,0,1-.322,1.209,1.442,1.442,0,0,1-1.1.353,1.541,1.541,0,0,1-1.151-.355,1.734,1.734,0,0,1-.337-1.207v-2.323h.69v2.323a1.268,1.268,0,0,0,.167.76.73.73,0,0,0,.6.211.712.712,0,0,0,.591-.211,1.281,1.281,0,0,0,.165-.76v-2.323Zm3.451-.05a1.656,1.656,0,0,1,1.023.242,1.078,1.078,0,0,1,.3.878,1.164,1.164,0,0,1-.165.674.745.745,0,0,1-.546.285v.029a.621.621,0,0,1,.3.176.87.87,0,0,1,.209.386l.343,1.194h-.736l-.306-1.182a.467.467,0,0,0-.155-.265.463.463,0,0,0-.283-.079l-.686,0v1.529H11v-3.815Q11.525-16.734,12.389-16.734Zm-.7.57v1.2h.686a.746.746,0,0,0,.5-.128.645.645,0,0,0,.138-.479.621.621,0,0,0-.136-.469.774.774,0,0,0-.5-.122Zm5.179-.587a4.946,4.946,0,0,1,1.2.128l-.045.492q-.525-.021-1.132-.021a1.136,1.136,0,0,0-.5.074q-.128.074-.128.36a.491.491,0,0,0,.091.337.776.776,0,0,0,.335.172l.732.227a1.08,1.08,0,0,1,.61.405,1.273,1.273,0,0,1,.176.707,1.688,1.688,0,0,1-.07.533.637.637,0,0,1-.242.326,1.029,1.029,0,0,1-.413.163,3.667,3.667,0,0,1-.626.043,6.475,6.475,0,0,1-1.24-.12l.045-.508q.905.021,1.211.021a.99.99,0,0,0,.506-.087q.126-.087.126-.376a.514.514,0,0,0-.085-.341.714.714,0,0,0-.316-.163l-.769-.244a1.055,1.055,0,0,1-.589-.4,1.25,1.25,0,0,1-.18-.707,1.6,1.6,0,0,1,.072-.529.6.6,0,0,1,.244-.312,1.046,1.046,0,0,1,.4-.147A3.828,3.828,0,0,1,16.865-16.75Zm4.236.066h.674a.239.239,0,0,1,.248.186l1.145,3.629h-.707l-.318-1.079H20.729l-.314,1.079h-.707L20.849-16.5A.25.25,0,0,1,21.1-16.684Zm.265.525-.091.326-.38,1.318h1.083l-.38-1.318q-.07-.256-.083-.326Zm6.22.07H26.412v3.22h-.7v-3.22H24.548v-.6h3.038Zm2.781-.6h.674a.239.239,0,0,1,.248.186l1.145,3.629h-.707l-.318-1.079H30l-.314,1.079h-.707L30.115-16.5A.25.25,0,0,1,30.367-16.684Zm.265.525-.091.326-.38,1.318h1.083l-.38-1.318q-.07-.256-.083-.326Zm6.315-.525-1.029,1.537a1.322,1.322,0,0,1-.252.289v.017a1.262,1.262,0,0,1,.3.326l1.058,1.645h-.777l-1.091-1.719h-.376a1.954,1.954,0,0,1,.037.376v1.343h-.69v-3.815h.69v1.124a2.588,2.588,0,0,1-.037.442h.376l1.041-1.566Z" transform="translate(-1.371 29.566)"/></g></g></g></g></svg>