<?xml version="1.0" encoding="UTF-8"?>
<svg viewBox="0 0 67.882 91.493" xmlns="http://www.w3.org/2000/svg">
<g transform="translate(-9 -1)" fill="#0091ff">
<path transform="translate(4.757)" d="M21.951,33.465V20.184a16.233,16.233,0,1,1,32.465,0V33.465h2.951V20.184a19.184,19.184,0,1,0-38.368,0V33.465Z" data-name="Path 785"/>
<path transform="translate(0 11.417)" d="M73.931,25H11.951A2.951,2.951,0,0,0,9,27.951V78.125a2.951,2.951,0,0,0,2.951,2.951H73.931a2.951,2.951,0,0,0,2.951-2.951V27.951A2.951,2.951,0,0,0,73.931,25ZM44.417,57.333v8.987H41.465V57.333a8.854,8.854,0,1,1,2.951,0Z" data-name="Path 786"/>
</g>
</svg>
