<?xml version="1.0" encoding="UTF-8"?>
<svg viewBox="0 0 73.335 48.913" xmlns="http://www.w3.org/2000/svg">
<g transform="translate(-740.55 -1693.7)" data-name="Group 2781">
<path transform="translate(738.19 1689.4)" d="m12.481 52.7h31.28c6.051 0 9.62-3.476 9.62-9.465v-29.01c0-5.989-3.289-9.434-9.341-9.434h-31.559c-5.8 0-9.62 3.445-9.62 9.465v29.044c0 5.991 3.569 9.4 9.62 9.4zm45-15.019 10.458 9.03a5.53 5.53 0 0 0 3.413 1.521 3.793 3.793 0 0 0 3.848-4.124v-30.69a3.793 3.793 0 0 0-3.848-4.127 5.459 5.459 0 0 0-3.413 1.521l-10.458 9.03z" fill="#0091ff" stroke="rgba(0,0,0,0)" data-name="Path 633"/>
</g>
</svg>
