<?xml version="1.0" encoding="UTF-8"?>
<svg viewBox="0 0 56.117 59.918" xmlns="http://www.w3.org/2000/svg">
<path transform="translate(-2.098 -.512)" d="M36.23,60.43H39.9a38.05,38.05,0,0,0,8.081-.665c3.7-.9,5.981-3.456,5.981-6.725a5.784,5.784,0,0,0-.319-1.914,6.844,6.844,0,0,0,2.871-5.582,7.021,7.021,0,0,0-.611-3.03,7.117,7.117,0,0,0,1.967-5.024,7.333,7.333,0,0,0-.877-3.536,7.239,7.239,0,0,0,1.223-4.174,7.018,7.018,0,0,0-7.044-7.1H41.095c-.638,0-1.063-.292-1.063-.824,0-2.9,4.546-9.623,4.546-15.019A6.022,6.022,0,0,0,38.463.512c-2.605,0-4.333,1.356-6.061,4.652C29.159,11.384,25.3,16.887,19,24.6H13.927C7.388,24.6,2.1,32.013,2.1,41.077c0,8.958,5.8,16.4,12.84,16.4h8.8A26.762,26.762,0,0,0,36.23,60.43Zm3.7-4.014-3.668-.053c-11.138-.08-18.714-6.38-18.714-15.418,0-5.742,1.3-9.41,4.918-14.248,3.987-5.343,9.517-11.75,13.531-19.7,1.037-2.127,1.622-2.472,2.472-2.472a2.021,2.021,0,0,1,2.1,2.313c0,4.306-4.546,10.846-4.546,15.019,0,3,2.5,4.838,5.662,4.838h9.49A2.992,2.992,0,0,1,54.2,29.78a3.856,3.856,0,0,1-1.462,3.11,1.155,1.155,0,0,0-.4.824,1.016,1.016,0,0,0,.266.665,5.228,5.228,0,0,1,1.249,3.11,3.981,3.981,0,0,1-1.808,3.27,1.6,1.6,0,0,0-.771,1.249,1.42,1.42,0,0,0,.133.532c.771,1.462,1.09,2.047,1.09,3,0,1.435-.9,2.525-2.818,3.509a1.057,1.057,0,0,0-.638.93,1.3,1.3,0,0,0,.133.505,6.032,6.032,0,0,1,.771,2.552c0,1.3-.957,2.339-2.924,2.818A30.767,30.767,0,0,1,39.925,56.416ZM14.937,53.465c-4.705,0-8.826-5.662-8.826-12.388,0-6.858,3.722-12.467,7.815-12.467H16.4a24.979,24.979,0,0,0-2.871,12.255,17.625,17.625,0,0,0,5.024,12.6Z" fill="#fff" data-name="Path 808"/>
</svg>
