<?xml version="1.0" encoding="UTF-8"?>
<svg viewBox="0 0 306.22 60.753" xmlns="http://www.w3.org/2000/svg">
<defs>
<style>.a,.d{fill:#fff;}.a{clip-rule:evenodd;}.b{fill:#fb0;}.b,.c{stroke:rgba(0,0,0,0);}.c{fill:#d0f0fe;}.e{clip-path:url(#a);}</style>
<clipPath id="a">
<path class="a" transform="translate(-617 -405)" d="M622.4,409.611c-1.713-2.547-.858-4.611,1.864-4.611h12.853c2.743,0,3.606,2.078,1.9,4.611l-4.071,3.653,9.475,42.039-13.713,10.269L617,455.3l9.475-42.039Z"/>
</clipPath>
</defs>
<g transform="translate(-131.6 -74.999)">
<path class="b" transform="translate(323 104)" d="M16.149,0V-3.822a3.9,3.9,0,0,0-.137-1.144,1.353,1.353,0,0,0-.42-.662,1.509,1.509,0,0,0-.714-.3,5.987,5.987,0,0,0-1-.074h-.189v4.431a6.58,6.58,0,0,1-.42,2.363,5.042,5.042,0,0,1-1.3,1.921,6.38,6.38,0,0,1-2.247,1.3,9.711,9.711,0,0,1-3.234.483,7.62,7.62,0,0,1-2.919-.5A5.96,5.96,0,0,1,1.575,2.7,4.985,4.985,0,0,1,.431.924,5.623,5.623,0,0,1,.063-1.05a5.576,5.576,0,0,1,.389-2.1A9.455,9.455,0,0,1,1.449-5L3.423-3.843a5.566,5.566,0,0,0-.7,1.4A4.1,4.1,0,0,0,2.5-1.2,2.935,2.935,0,0,0,2.772.073a2.757,2.757,0,0,0,.808,1A4.041,4.041,0,0,0,4.9,1.733a6.124,6.124,0,0,0,1.8.241,8,8,0,0,0,1.848-.2,4.827,4.827,0,0,0,1.46-.588A2.8,2.8,0,0,0,10.962.22,2.561,2.561,0,0,0,11.3-1.092V-8.358h2.919a4.415,4.415,0,0,1,3.276,1.071,4.45,4.45,0,0,1,1.05,3.234v1.617h1.344a.522.522,0,0,1,.43.168.613.613,0,0,1,.136.4V-.588a.714.714,0,0,1-.136.378.476.476,0,0,1-.43.21ZM3.78,6.636a1.139,1.139,0,0,1,.357-.851,1.244,1.244,0,0,1,.9-.346,1.244,1.244,0,0,1,.9.346,1.139,1.139,0,0,1,.357.851,1.164,1.164,0,0,1-.357.871,1.244,1.244,0,0,1-.9.347,1.244,1.244,0,0,1-.9-.347A1.164,1.164,0,0,1,3.78,6.636Zm3.255,0a1.139,1.139,0,0,1,.357-.851,1.35,1.35,0,0,1,1.806,0,1.139,1.139,0,0,1,.357.851,1.164,1.164,0,0,1-.357.871,1.35,1.35,0,0,1-1.806,0A1.164,1.164,0,0,1,7.035,6.636ZM19.761,0Q19.4,0,19.3-.168a.7.7,0,0,1-.1-.378V-1.785a.8.8,0,0,1,.136-.441.476.476,0,0,1,.431-.21h2.016A.637.637,0,0,0,22.4-2.73a1.7,1.7,0,0,0,.157-.8v-4.83h2.394v3.99a2.288,2.288,0,0,0,.4,1.386,1.686,1.686,0,0,0,1.449.546h.735q.357,0,.462.168a.737.737,0,0,1,.1.4V-.588a.714.714,0,0,1-.137.378.476.476,0,0,1-.43.21h-.8a2.316,2.316,0,0,1-1.481-.441,3.305,3.305,0,0,1-.85-.966A2.922,2.922,0,0,1,23.4-.4a2.821,2.821,0,0,1-1.522.4Zm2.52,2.646a1.123,1.123,0,0,1,.367-.851,1.28,1.28,0,0,1,.914-.347,1.253,1.253,0,0,1,.892.347,1.123,1.123,0,0,1,.367.851,1.147,1.147,0,0,1-.367.872,1.253,1.253,0,0,1-.892.346,1.28,1.28,0,0,1-.914-.346A1.147,1.147,0,0,1,22.281,2.646ZM27.384,0a.491.491,0,0,1-.42-.168.614.614,0,0,1-.126-.378V-1.785a.8.8,0,0,1,.136-.441.456.456,0,0,1,.41-.21h2.877V-8.358h2.394V0Zm.168,2.646a1.139,1.139,0,0,1,.357-.851,1.35,1.35,0,0,1,1.806,0,1.139,1.139,0,0,1,.357.851,1.164,1.164,0,0,1-.357.872,1.35,1.35,0,0,1-1.806,0A1.164,1.164,0,0,1,27.552,2.646Zm3.255,0a1.139,1.139,0,0,1,.357-.851,1.35,1.35,0,0,1,1.806,0,1.139,1.139,0,0,1,.357.851,1.164,1.164,0,0,1-.357.872,1.35,1.35,0,0,1-1.806,0A1.164,1.164,0,0,1,30.807,2.646ZM41.727,0a2.3,2.3,0,0,1-1.113-.273,2.952,2.952,0,0,1-.819-.63v.567a5.969,5.969,0,0,1-.252,1.764,4.105,4.105,0,0,1-.756,1.428,3.551,3.551,0,0,1-1.239.955,3.948,3.948,0,0,1-1.7.346q-.378,0-.725-.031t-.6-.074q-.168-.021-.3-.042a1.6,1.6,0,0,1-.262-.063l.252-2.394.588.126q.252.042.535.074a4.7,4.7,0,0,0,.514.031A1.274,1.274,0,0,0,37.086,1.2,3.737,3.737,0,0,0,37.4-.525V-8.358h2.394v3.99a2.333,2.333,0,0,0,.389,1.386,1.709,1.709,0,0,0,1.48.546H42.4q.357,0,.462.168a.737.737,0,0,1,.1.4V-.588a.753.753,0,0,1-.126.378A.472.472,0,0,1,42.4,0ZM52.92-.588a.714.714,0,0,1-.136.378.5.5,0,0,1-.451.21h-.4A3.469,3.469,0,0,1,50.6-.273a3.728,3.728,0,0,1-1.082-.651,1.778,1.778,0,0,1-.829.756A2.6,2.6,0,0,1,47.775,0h-5.5a.518.518,0,0,1-.441-.168.614.614,0,0,1-.126-.378V-1.785a.8.8,0,0,1,.137-.441.476.476,0,0,1,.431-.21h6.195a4.3,4.3,0,0,1-.347-.861,7.835,7.835,0,0,1-.242-1.491,2.361,2.361,0,0,0-.556-1.5,1.648,1.648,0,0,0-1.187-.431,5.43,5.43,0,0,0-1.071.136,5.649,5.649,0,0,0-1.3.451l-.588-2.289q.252-.084.661-.21t.872-.241q.462-.115.955-.2a5.579,5.579,0,0,1,.935-.084,3.618,3.618,0,0,1,1.69.357,3.283,3.283,0,0,1,1.113.924,3.991,3.991,0,0,1,.641,1.25,6.742,6.742,0,0,1,.273,1.333q.042.42.137.914a5.256,5.256,0,0,0,.262.924,2.256,2.256,0,0,0,.441.724.9.9,0,0,0,.693.294h.483a.545.545,0,0,1,.462.168.646.646,0,0,1,.126.4ZM45.255,2.646a1.123,1.123,0,0,1,.368-.851,1.28,1.28,0,0,1,.914-.347,1.253,1.253,0,0,1,.892.347,1.123,1.123,0,0,1,.368.851,1.147,1.147,0,0,1-.368.872,1.253,1.253,0,0,1-.892.346,1.28,1.28,0,0,1-.914-.346A1.147,1.147,0,0,1,45.255,2.646ZM52.206,0a.491.491,0,0,1-.42-.168.614.614,0,0,1-.126-.378V-1.785a.8.8,0,0,1,.137-.441.456.456,0,0,1,.41-.21h2.877V-8.358h2.394V0ZM53.3-11.634a1.173,1.173,0,0,1,.357-.861,1.224,1.224,0,0,1,.9-.357,1.224,1.224,0,0,1,.9.357,1.173,1.173,0,0,1,.357.861,1.173,1.173,0,0,1-.357.861,1.224,1.224,0,0,1-.9.357,1.224,1.224,0,0,1-.9-.357A1.173,1.173,0,0,1,53.3-11.634Zm3.276,0a1.173,1.173,0,0,1,.357-.861,1.224,1.224,0,0,1,.9-.357,1.224,1.224,0,0,1,.9.357,1.173,1.173,0,0,1,.357.861,1.173,1.173,0,0,1-.357.861,1.224,1.224,0,0,1-.9.357,1.224,1.224,0,0,1-.9-.357A1.173,1.173,0,0,1,56.574-11.634ZM74.55,0a7.168,7.168,0,0,1-2.5-.378A4.343,4.343,0,0,1,70.424-1.4a3.693,3.693,0,0,1-.882-1.47,5.639,5.639,0,0,1-.262-1.712,4.389,4.389,0,0,1,.357-1.753,4.512,4.512,0,0,1,.987-1.449,4.66,4.66,0,0,1,1.48-.977,4.7,4.7,0,0,1,1.837-.357,4.163,4.163,0,0,1,1.628.3,3.484,3.484,0,0,1,1.229.85,3.813,3.813,0,0,1,.777,1.292,4.763,4.763,0,0,1,.273,1.648v4.7a7.065,7.065,0,0,1-.4,2.341,5.661,5.661,0,0,1-1.239,2.037A6.207,6.207,0,0,1,74.088,5.5a7.734,7.734,0,0,1-3.045.546,8.769,8.769,0,0,1-3.087-.483,6.144,6.144,0,0,1-2.09-1.249A4.7,4.7,0,0,1,64.69,2.6,5.13,5.13,0,0,1,64.323.735a6.96,6.96,0,0,1,.21-1.754,11.558,11.558,0,0,1,.451-1.407,6.2,6.2,0,0,1,.451-.934,2.164,2.164,0,0,1,.21-.315L67.6-2.625a7.025,7.025,0,0,0-.441.861,7.608,7.608,0,0,0-.3.882A3.768,3.768,0,0,0,66.717.147a3.585,3.585,0,0,0,.252,1.344,2.843,2.843,0,0,0,.8,1.1,3.951,3.951,0,0,0,1.4.746,6.745,6.745,0,0,0,2.048.273A5.335,5.335,0,0,0,73.164,3.3a3.768,3.768,0,0,0,1.3-.819,3.184,3.184,0,0,0,.745-1.155A4.613,4.613,0,0,0,75.495,0Zm.882-2.436V-5.124a1.649,1.649,0,0,0-.462-1.165,1.669,1.669,0,0,0-1.281-.494,1.913,1.913,0,0,0-.735.147,2.068,2.068,0,0,0-.651.431,2.163,2.163,0,0,0-.473.682,2.243,2.243,0,0,0-.178.924,2.032,2.032,0,0,0,.22.977,1.948,1.948,0,0,0,.588.672,2.559,2.559,0,0,0,.851.388,4.063,4.063,0,0,0,1.029.126Zm-4.389-9.2A1.173,1.173,0,0,1,71.4-12.5a1.224,1.224,0,0,1,.9-.357,1.224,1.224,0,0,1,.9.357,1.173,1.173,0,0,1,.357.861,1.173,1.173,0,0,1-.357.861,1.224,1.224,0,0,1-.9.357,1.224,1.224,0,0,1-.9-.357A1.173,1.173,0,0,1,71.043-11.634Zm3.276,0a1.173,1.173,0,0,1,.357-.861,1.224,1.224,0,0,1,.9-.357,1.224,1.224,0,0,1,.9.357,1.173,1.173,0,0,1,.357.861,1.173,1.173,0,0,1-.357.861,1.224,1.224,0,0,1-.9.357,1.224,1.224,0,0,1-.9-.357A1.173,1.173,0,0,1,74.319-11.634ZM93.513,0A2.267,2.267,0,0,1,92.1-.441a3.814,3.814,0,0,1-.913-.966,2.3,2.3,0,0,1-1.05,1.061A3.288,3.288,0,0,1,88.641,0H79.926V-2.436h4.326v-8.673h2.394v8.673h1.89a.634.634,0,0,0,.63-.294,1.8,1.8,0,0,0,.147-.8V-15.036h2.415V-4.368a2.333,2.333,0,0,0,.389,1.386,1.655,1.655,0,0,0,1.438.546h.735a.545.545,0,0,1,.462.168.646.646,0,0,1,.126.4V-.588a.714.714,0,0,1-.136.378A.5.5,0,0,1,94.29,0Zm13-3.633a4.977,4.977,0,0,0-.189-1.48,2.372,2.372,0,0,0-.535-.956,2,2,0,0,0-.84-.514,3.542,3.542,0,0,0-1.082-.158,3.568,3.568,0,0,0-1.407.3,4.673,4.673,0,0,0-1.323.861A5.083,5.083,0,0,0,100.1-4.221a5.078,5.078,0,0,0-.557,1.785h6.972ZM94.185,0a.518.518,0,0,1-.441-.168.614.614,0,0,1-.126-.378V-1.785a.8.8,0,0,1,.136-.441.476.476,0,0,1,.43-.21h2.9v-12.6H99.5v8.421a6,6,0,0,1,2.121-1.827,5.5,5.5,0,0,1,2.52-.63,5.025,5.025,0,0,1,2.069.4,4.25,4.25,0,0,1,1.5,1.1,4.653,4.653,0,0,1,.913,1.67,6.952,6.952,0,0,1,.3,2.1V0Zm17.766-15.036h2.373V0h-2.373Z"/>
<path class="c" transform="translate(321 135)" d="M1.659-14.868h5.8a6.985,6.985,0,0,1,1.659.2,4.253,4.253,0,0,1,1.46.651,3.48,3.48,0,0,1,1.039,1.166,3.48,3.48,0,0,1,.4,1.722A3.049,3.049,0,0,1,11.3-9.051,3.97,3.97,0,0,1,9.429-7.875v.042a3.845,3.845,0,0,1,1.292.388,3.422,3.422,0,0,1,1.019.777A3.59,3.59,0,0,1,12.4-5.576a3.639,3.639,0,0,1,.241,1.333,3.9,3.9,0,0,1-.483,2.027,3.833,3.833,0,0,1-1.271,1.3,5.436,5.436,0,0,1-1.806.7A10.217,10.217,0,0,1,7.014,0H1.659ZM4.3-8.82H6.72A3.2,3.2,0,0,0,8.7-9.335a1.633,1.633,0,0,0,.661-1.354,1.631,1.631,0,0,0-.682-1.438A3.943,3.943,0,0,0,6.489-12.6H4.3Zm0,6.552H6.741a10.005,10.005,0,0,0,1.082-.063,3.258,3.258,0,0,0,1.061-.294,2.092,2.092,0,0,0,.8-.661A1.934,1.934,0,0,0,10-4.452,1.759,1.759,0,0,0,9.24-6.1a4.841,4.841,0,0,0-2.394-.452H4.3Zm12.747-1.89a2.56,2.56,0,0,0,.882,1.764,2.76,2.76,0,0,0,1.827.63,3.007,3.007,0,0,0,1.586-.388,4.4,4.4,0,0,0,1.123-.977l1.806,1.365A5.118,5.118,0,0,1,22.3-.21a5.816,5.816,0,0,1-2.289.462,6.05,6.05,0,0,1-2.142-.378A5.138,5.138,0,0,1,16.128-1.2a5.082,5.082,0,0,1-1.166-1.669,5.331,5.331,0,0,1-.431-2.174,5.331,5.331,0,0,1,.431-2.173,5.082,5.082,0,0,1,1.166-1.67,5.138,5.138,0,0,1,1.743-1.071,6.05,6.05,0,0,1,2.142-.378,4.9,4.9,0,0,1,1.921.368A4.121,4.121,0,0,1,23.425-8.9a4.9,4.9,0,0,1,.966,1.712,7.261,7.261,0,0,1,.347,2.341v.693Zm5.166-1.89a2.364,2.364,0,0,0-.693-1.764,2.626,2.626,0,0,0-1.869-.63,2.448,2.448,0,0,0-1.8.651,2.905,2.905,0,0,0-.809,1.743Zm3.7-1.89V-10.08h2.079V-13h2.52v2.919h2.772v2.142H30.513v4.41a2.195,2.195,0,0,0,.284,1.2,1.241,1.241,0,0,0,1.124.441,4.079,4.079,0,0,0,.735-.073,1.54,1.54,0,0,0,.63-.241V-.084a3.242,3.242,0,0,1-.976.263A8.181,8.181,0,0,1,31.29.252,5.156,5.156,0,0,1,29.642.032a2.175,2.175,0,0,1-1.008-.672,2.552,2.552,0,0,1-.5-1.123,7.871,7.871,0,0,1-.137-1.554v-4.62ZM41.559-1.386H41.5A3.142,3.142,0,0,1,40.11-.126a4.452,4.452,0,0,1-1.848.378A4.906,4.906,0,0,1,36.908.063,3.669,3.669,0,0,1,35.732-.5a2.913,2.913,0,0,1-.83-.945,2.68,2.68,0,0,1-.315-1.323,3.049,3.049,0,0,1,.294-1.4,2.868,2.868,0,0,1,.788-.966,3.991,3.991,0,0,1,1.144-.619A7.84,7.84,0,0,1,38.167-6.1a12.009,12.009,0,0,1,1.417-.147q.714-.031,1.344-.031h.63v-.273a1.637,1.637,0,0,0-.651-1.418,2.753,2.753,0,0,0-1.659-.473,3.9,3.9,0,0,0-1.491.284,3.775,3.775,0,0,0-1.2.766L35.238-8.715A4.693,4.693,0,0,1,37.2-9.965a7.417,7.417,0,0,1,2.321-.368,5.843,5.843,0,0,1,1.806.242,3.973,3.973,0,0,1,1.218.62,2.739,2.739,0,0,1,.746.872,4.046,4.046,0,0,1,.378,1,5.456,5.456,0,0,1,.136.977q.021.472.021.829V0H41.559Zm-.147-3.129h-.525q-.525,0-1.176.042a6.17,6.17,0,0,0-1.229.2,2.7,2.7,0,0,0-.977.473,1.016,1.016,0,0,0-.4.84,1.073,1.073,0,0,0,.157.6,1.426,1.426,0,0,0,.41.409,1.715,1.715,0,0,0,.567.242,2.764,2.764,0,0,0,.63.074A2.614,2.614,0,0,0,40.8-2.257a2.307,2.307,0,0,0,.609-1.691Z"/>
<g transform="translate(131.6 74.999)">
<path class="d" transform="translate(-234.93 -359.48)" d="M265.448,381.63a5.792,5.792,0,0,0,4.329,1.466v2.648q-5.117,0-6.905-3.721a6.824,6.824,0,0,1-2.915,2.773,9.868,9.868,0,0,1-4.49.948h-9.552a14.456,14.456,0,0,1-5.527-1.019,8.843,8.843,0,0,1-3.972-3.131,8.976,8.976,0,0,1-1.485-5.294,17.9,17.9,0,0,1,.895-5.224h2.755a15.642,15.642,0,0,0-.823,4.723,6.565,6.565,0,0,0,2.29,5.492,9.184,9.184,0,0,0,5.867,1.806h9.552q5.8,0,5.8-5.9V359.484h2.754v17.709A6.123,6.123,0,0,0,265.448,381.63Zm-11.52-10.59h-8.944V368.5h1.145a4,4,0,0,1-.34-4.758,4.472,4.472,0,0,1,1.717-1.538,5.128,5.128,0,0,1,2.415-.572,6.7,6.7,0,0,1,2.934.752l-1.181,2.325a4.336,4.336,0,0,0-1.753-.393,2.108,2.108,0,0,0-1.5.537,1.825,1.825,0,0,0-.572,1.4,2.075,2.075,0,0,0,.7,1.646,2.544,2.544,0,0,0,1.735.608h3.649Z"/>
<path class="d" transform="translate(-241.42 -364.08)" d="m275.15 388.05a1.679 1.679 0 0 1 1.109-0.358h7.155v2.648h-7.155a1.656 1.656 0 0 1-1.127-0.358 1.215 1.215 0 0 1-0.412-0.966 1.192 1.192 0 0 1 0.43-0.966z"/>
<path class="d" transform="translate(-242.81 -364.08)" d="m283.7 388.05a1.679 1.679 0 0 1 1.109-0.358h7.155v2.648h-7.155a1.654 1.654 0 0 1-1.127-0.358 1.212 1.212 0 0 1-0.412-0.966 1.192 1.192 0 0 1 0.43-0.966z"/>
<path class="d" transform="translate(-242.37 -360.01)" d="M301.507,382.159a5.793,5.793,0,0,0,4.329,1.466v2.648q-5.117,0-6.905-3.721a6.819,6.819,0,0,1-2.915,2.773,9.864,9.864,0,0,1-4.49.948,1.576,1.576,0,0,1-1.109-.394,1.3,1.3,0,0,1-.429-1,1.124,1.124,0,0,1,.412-.912,1.717,1.717,0,0,1,1.127-.341q5.8,0,5.8-5.9v-7.906h2.755v7.906A6.123,6.123,0,0,0,301.507,382.159Zm-20.439-16.6a1.613,1.613,0,0,1-.5-1.18,1.559,1.559,0,0,1,.5-1.163,1.647,1.647,0,0,1,1.181-.483,1.649,1.649,0,0,1,1.646,1.646,1.642,1.642,0,0,1-.483,1.18,1.557,1.557,0,0,1-1.163.5A1.614,1.614,0,0,1,281.067,365.559Zm5.724,0a1.613,1.613,0,0,1-.5-1.18,1.559,1.559,0,0,1,.5-1.163,1.647,1.647,0,0,1,1.181-.483,1.649,1.649,0,0,1,1.646,1.646,1.642,1.642,0,0,1-.483,1.18,1.557,1.557,0,0,1-1.163.5A1.615,1.615,0,0,1,286.792,365.559Z"/>
<path class="d" transform="translate(-246.99 -360.92)" d="M333.586,369.613a9.534,9.534,0,0,1,3.81,3.685,10.489,10.489,0,0,1,1.36,5.331v8.551h-28.3a1.657,1.657,0,0,1-1.127-.358,1.215,1.215,0,0,1-.411-.966,1.194,1.194,0,0,1,.429-.966,1.68,1.68,0,0,1,1.109-.358h3.22V368.289H316.4v7.084a11.971,11.971,0,0,1,4.562-5.188,13.017,13.017,0,0,1,7.066-1.9A11.531,11.531,0,0,1,333.586,369.613ZM336,378.629a7.38,7.38,0,0,0-2.11-5.51,7.916,7.916,0,0,0-5.8-2.075,11.972,11.972,0,0,0-5.724,1.413,11.79,11.79,0,0,0-4.275,3.811,9.9,9.9,0,0,0-1.735,5.295v2.969H336Z"/>
<path class="d" transform="translate(-253.28 -361.39)" d="M359.959,387.653h-3.971v1.4a7.548,7.548,0,0,1-1.287,4.811,4.762,4.762,0,0,1-3.935,1.592,13.465,13.465,0,0,1-3.291-.464l.573-2.468a11.329,11.329,0,0,0,2.254.286,2.7,2.7,0,0,0,2.217-.876,4.572,4.572,0,0,0,.716-2.879V371.2h2.755V385h3.971Z"/>
<path class="d" transform="translate(-255.41 -359.68)" d="M382.733,385.939H362.09a1.715,1.715,0,0,1-1.127-.341,1.161,1.161,0,0,1-.411-.948,1.248,1.248,0,0,1,.411-1.019,1.719,1.719,0,0,1,1.127-.341h5.867a7.748,7.748,0,0,1-2.075-2.987,10.307,10.307,0,0,1,.465-8.407,8.493,8.493,0,0,1,3.667-3.506,13.772,13.772,0,0,1,6.493-1.342h6.225ZM379.978,369.8h-3.542q-4.472,0-6.493,1.95a6.463,6.463,0,0,0-2.021,4.848,6.29,6.29,0,0,0,2.021,4.793q2.021,1.9,6.565,1.9h3.47Zm-7.155-6.3a1.61,1.61,0,0,1-.5-1.18,1.553,1.553,0,0,1,.5-1.163,1.644,1.644,0,0,1,1.181-.483,1.65,1.65,0,0,1,1.646,1.646,1.64,1.64,0,0,1-.484,1.18,1.552,1.552,0,0,1-1.162.5A1.612,1.612,0,0,1,372.823,363.507Z"/>
<path class="d" transform="translate(-.291 63.048)" d="M4.74-16.541q4.121,0,5.868.179l-.134,1.9H5.487a1.307,1.307,0,0,0-.918.254,1.227,1.227,0,0,0-.261.9v2.658h5.42v1.941H4.307V-2.73H1.784V-13.824a2.545,2.545,0,0,1,.8-2.008A3.132,3.132,0,0,1,4.74-16.541Zm22.889.03V-8.12q0,3.091-1.165,4.367T22.478-2.477q-2.941,0-4.158-1.284T17.1-8.12v-8.391H19.6V-8.12a4.583,4.583,0,0,0,.6,2.747,2.637,2.637,0,0,0,2.172.761,2.573,2.573,0,0,0,2.135-.761,4.628,4.628,0,0,0,.6-2.747v-8.391ZM40.1-16.691a5.984,5.984,0,0,1,3.7.873,3.894,3.894,0,0,1,1.082,3.173,4.205,4.205,0,0,1-.6,2.434,2.692,2.692,0,0,1-1.971,1.03v.1a2.245,2.245,0,0,1,1.082.635,3.144,3.144,0,0,1,.754,1.4L45.382-2.73H42.724L41.619-7a1.686,1.686,0,0,0-.56-.956,1.673,1.673,0,0,0-1.023-.284l-2.479-.015V-2.73H35.079V-16.511Q36.976-16.691,40.1-16.691Zm-2.538,2.06v4.33h2.479a2.7,2.7,0,0,0,1.814-.463,2.329,2.329,0,0,0,.5-1.732,2.243,2.243,0,0,0-.493-1.695,2.794,2.794,0,0,0-1.822-.44Zm18.708-2.12a17.868,17.868,0,0,1,4.33.463l-.164,1.777q-1.9-.075-4.091-.075a4.1,4.1,0,0,0-1.822.269q-.463.269-.463,1.3a1.772,1.772,0,0,0,.328,1.217,2.8,2.8,0,0,0,1.209.62l2.643.821a3.9,3.9,0,0,1,2.2,1.463,4.6,4.6,0,0,1,.635,2.553,6.1,6.1,0,0,1-.254,1.926,2.3,2.3,0,0,1-.873,1.18,3.717,3.717,0,0,1-1.493.59,13.248,13.248,0,0,1-2.262.157,23.392,23.392,0,0,1-4.479-.433l.164-1.836q3.27.075,4.375.075A3.578,3.578,0,0,0,58.08-5q.455-.314.455-1.359a1.858,1.858,0,0,0-.306-1.232,2.581,2.581,0,0,0-1.142-.59L54.31-9.061a3.811,3.811,0,0,1-2.128-1.433,4.516,4.516,0,0,1-.649-2.553,5.8,5.8,0,0,1,.261-1.911,2.153,2.153,0,0,1,.881-1.127,3.779,3.779,0,0,1,1.441-.53A13.831,13.831,0,0,1,56.266-16.75Zm15.3.239H74a.864.864,0,0,1,.9.672L79.035-2.73H76.482l-1.15-3.9H70.226l-1.135,3.9H66.538L70.659-15.84A.9.9,0,0,1,71.57-16.511Zm.956,1.9-.328,1.18L70.824-8.673h3.912l-1.374-4.763q-.254-.926-.3-1.18ZM95-14.361h-4.24V-2.73H88.233V-14.361h-4.21v-2.15H95Zm10.048-2.15h2.434a.864.864,0,0,1,.9.672L112.51-2.73h-2.553l-1.15-3.9H103.7l-1.135,3.9h-2.553l4.121-13.109A.9.9,0,0,1,105.045-16.511Zm.956,1.9-.328,1.18L104.3-8.673h3.912l-1.374-4.763q-.254-.926-.3-1.18Zm22.814-1.9L125.1-10.957a4.776,4.776,0,0,1-.911,1.045v.06a4.559,4.559,0,0,1,1.075,1.18l3.822,5.942h-2.807l-3.942-6.211h-1.359a7.063,7.063,0,0,1,.134,1.359V-2.73h-2.493V-16.511h2.493v4.061a9.352,9.352,0,0,1-.134,1.6h1.359l3.763-5.659Z"/>
<g class="e" transform="translate(135.92)">
<path class="d" transform="matrix(-.799 .602 -.602 -.799 30.089 1.865)" d="M.011.02,30.75,0,30.74,16.124,0,16.145Z"/>
<path class="d" transform="matrix(-.799 .602 -.602 -.799 34.289 14.138)" d="M1.172.032,49.9,0c.645,0,1.168.35,1.168.783l0,4.322c0,.433-.524.784-1.169.785L1.168,5.922C.523,5.922,0,5.572,0,5.139L0,.817C0,.384.526.033,1.172.032Z"/>
<path class="d" transform="matrix(-.799 .602 -.602 -.799 34.289 29.633)" d="M1.172.032,49.9,0c.645,0,1.168.35,1.168.783l0,4.322c0,.433-.524.784-1.169.785L1.168,5.922C.523,5.922,0,5.572,0,5.139L0,.817C0,.384.526.033,1.172.032Z"/>
<path class="d" transform="matrix(-.799 .602 -.602 -.799 34.289 45.127)" d="M1.172.032,49.9,0c.645,0,1.168.35,1.168.783l0,4.322c0,.433-.524.784-1.169.785L1.168,5.922C.523,5.922,0,5.572,0,5.139L0,.817C0,.384.526.033,1.172.032Z"/>
</g>
</g>
</g>
</svg>
