<?xml version="1.0" encoding="UTF-8"?>
<svg viewBox="0 0 200.35 46.132" xmlns="http://www.w3.org/2000/svg">
<defs>
<style>.a{fill:#fff;stroke:rgba(0,0,0,0);stroke-miterlimit:10;}.b{fill:#fb0;}</style>
</defs>
<g transform="translate(-107.5 -103.5)">
<path class="a" transform="translate(108 104)" d="M120,45.132a18.783,18.783,0,0,1-6.819-1.181,14.561,14.561,0,0,1-5.208-3.383,15,15,0,0,1-3.348-5.307,19.55,19.55,0,0,1-1.178-6.952,19.781,19.781,0,0,1,1.178-6.984,14.656,14.656,0,0,1,8.556-8.754A18.371,18.371,0,0,1,120,11.361a18.615,18.615,0,0,1,6.851,1.21,14.587,14.587,0,0,1,8.586,8.754,19.8,19.8,0,0,1,1.178,6.984,19.549,19.549,0,0,1-1.178,6.952,15,15,0,0,1-3.349,5.307,14.682,14.682,0,0,1-5.238,3.383A19.034,19.034,0,0,1,120,45.132Zm-7.752-16.824h0a18.8,18.8,0,0,0,.373,3.755,9.994,9.994,0,0,0,1.271,3.291,6.791,6.791,0,0,0,2.386,2.328,7.316,7.316,0,0,0,3.72.869,7.485,7.485,0,0,0,3.75-.869,6.724,6.724,0,0,0,2.418-2.328,9.992,9.992,0,0,0,1.271-3.291,18.92,18.92,0,0,0,.372-3.755,19.437,19.437,0,0,0-.372-3.787,9.625,9.625,0,0,0-1.271-3.29,7.089,7.089,0,0,0-2.418-2.329A7.281,7.281,0,0,0,120,18a6.763,6.763,0,0,0-6.106,3.229,9.619,9.619,0,0,0-1.271,3.29,19.334,19.334,0,0,0-.372,3.787ZM33.228,44.777h-.119a9.6,9.6,0,0,1-4.287-.9,8.878,8.878,0,0,1-3.036-2.425,10.5,10.5,0,0,1-1.825-3.533,14.511,14.511,0,0,1-.617-4.273,14.982,14.982,0,0,1,.6-4.272,10.006,10.006,0,0,1,1.8-3.512,8.781,8.781,0,0,1,3.036-2.383,9.693,9.693,0,0,1,4.246-.884,10.541,10.541,0,0,1,1.764.164,8.99,8.99,0,0,1,1.887.555,7.986,7.986,0,0,1,1.784,1.027,5.6,5.6,0,0,1,1.416,1.582h.082V14.992h3.487V44.325H39.961V41.449h-.083A5.126,5.126,0,0,1,37.171,44,10.3,10.3,0,0,1,33.228,44.777Zm.166-19.1a6.014,6.014,0,0,0-2.995.7,5.569,5.569,0,0,0-1.968,1.848,8.06,8.06,0,0,0-1.067,2.63,13.951,13.951,0,0,0-.327,3.04,10.814,10.814,0,0,0,.39,2.9,7.764,7.764,0,0,0,1.189,2.525,5.861,5.861,0,0,0,2.052,1.769,6.251,6.251,0,0,0,2.933.656,5.756,5.756,0,0,0,5-2.526,7.637,7.637,0,0,0,1.129-2.568,12.5,12.5,0,0,0-.021-5.936,7.439,7.439,0,0,0-1.169-2.568,6,6,0,0,0-2.073-1.786A6.48,6.48,0,0,0,33.394,25.674ZM176.045,44.326h-8.8V0h8.8V23.776l11.1-11.546h10.416l-12.09,11.794,13.453,20.3H188.258l-8.8-14.34-3.41,3.29v11.05Zm-83.505,0H82.868l-7.5-30.17h-.123l-7.378,30.17H58.009L46.291,0h9.733L63.03,30.171h.123L70.84,0h9.114l7.564,30.543h.123L94.9,0h9.546l-11.9,44.325Zm58.585,0h-8.8V12.231h8.369v5.958h.123a10.849,10.849,0,0,1,1.675-2.762,10.968,10.968,0,0,1,2.417-2.172,11.846,11.846,0,0,1,2.915-1.4,10.5,10.5,0,0,1,3.193-.5h.03a6.833,6.833,0,0,1,1.922.311v8.2c-.4-.082-.9-.155-1.489-.218a15.587,15.587,0,0,0-1.673-.093,9.413,9.413,0,0,0-4.092.807,7.109,7.109,0,0,0-2.7,2.2,8.8,8.8,0,0,0-1.457,3.259,17.726,17.726,0,0,0-.433,4.035V44.324Zm-130.775,0H0V14.992H20.226V18.28H3.9v9.326H19.118V30.89H3.9V41.038H20.349v3.286Z"/>
<path class="b" transform="translate(134.65 104.67)" d="M.367.048A.6.6,0,0,1,1.01.157l.022.021L7,6.17A.607.607,0,0,1,7.024,7L7,7.027l-5.975,6A.606.606,0,0,1,0,12.608V.589A.6.6,0,0,1,.367.048Z"/>
<path class="b" transform="translate(143.09 104.67)" d="M.367.048A.6.6,0,0,1,1.01.157l.022.021L7,6.17A.607.607,0,0,1,7.024,7L7,7.027l-5.975,6A.606.606,0,0,1,0,12.608V.589A.6.6,0,0,1,.367.048Z"/>
</g>
</svg>
