<?xml version="1.0" encoding="UTF-8"?>
<svg viewBox="0 0 108.44 107.63" xmlns="http://www.w3.org/2000/svg">
<defs>
<style>.a{fill:#606f76;}</style>
</defs>
<g transform="translate(0 -.181)">
<path class="a" transform="translate(47.499 31.348)" d="M15.759,9.09,55.567,17a6.676,6.676,0,0,1,5.377,6.6V69.682a6.769,6.769,0,0,1-6.778,6.778H13.5A2.237,2.237,0,0,0,15.759,74.2V71.942H54.166a2.266,2.266,0,0,0,2.259-2.259V23.594a2.27,2.27,0,0,0-1.762-2.214L15.759,13.7Z"/>
<path class="a" transform="translate(59.814 48.623)" d="m28.3 14a2.259 2.259 0 0 1 0 4.518h-9.041a2.259 2.259 0 0 1 0-4.518z"/>
<path class="a" transform="translate(59.814 59.178)" d="m28.3 17a2.259 2.259 0 0 1 0 4.518h-9.041a2.259 2.259 0 0 1 0-4.518z"/>
<path class="a" transform="translate(59.814 69.734)" d="m28.3 20a2.259 2.259 0 0 1 0 4.518h-9.041a2.259 2.259 0 0 1 0-4.518z"/>
<path class="a" transform="translate(45.74 31.031)" d="M17.518,74.517a2.259,2.259,0,1,1-4.518,0V11.259A2.4,2.4,0,0,1,13.813,9.5a2.375,2.375,0,0,1,1.9-.452l1.807.361V74.517Z"/>
<path class="a" transform="translate(33.425 80.289)" d="M25.315,23v2.259a2.237,2.237,0,0,0,2.259,2.259H9.5a2.237,2.237,0,0,0,2.259-2.259V23Z"/>
<path class="a" transform="translate(28.148 16.957)" d="m19.3 5a2.259 2.259 0 0 1 0 4.518h-9.041a2.259 2.259 0 0 1 0-4.518z"/>
<path class="a" transform="translate(28.148 27.512)" d="m21.555 10.259a2.237 2.237 0 0 1-2.255 2.259h-9.041a2.259 2.259 0 0 1 0-4.518h9.041a2.237 2.237 0 0 1 2.255 2.259z"/>
<path class="a" transform="translate(28.148 38.068)" d="m19.3 11a2.259 2.259 0 0 1 0 4.518h-9.041a2.259 2.259 0 0 1 0-4.518z"/>
<path class="a" transform="translate(28.148 48.623)" d="m19.3 14a2.259 2.259 0 0 1 0 4.518h-9.041a2.259 2.259 0 0 1 0-4.518z"/>
<path class="a" transform="translate(10.555 48.623)" d="m16.555 16.259a2.237 2.237 0 0 1-2.255 2.259h-9.041a2.259 2.259 0 0 1 0-4.518h9.041a2.237 2.237 0 0 1 2.255 2.259z"/>
<path class="a" transform="translate(10.555 16.957)" d="M14.3,5a2.259,2.259,0,0,1,0,4.518H5.259A2.259,2.259,0,0,1,5.259,5Z"/>
<path class="a" transform="translate(10.555 27.512)" d="M14.3,8a2.259,2.259,0,0,1,0,4.518H5.259A2.259,2.259,0,0,1,5.259,8Z"/>
<path class="a" transform="translate(10.555 38.068)" d="M14.3,11a2.259,2.259,0,0,1,0,4.518H5.259a2.259,2.259,0,0,1,0-4.518Z"/>
<path class="a" transform="translate(14.074 59.178)" d="M26.592,23.778a2.266,2.266,0,0,0-2.259-2.259H10.778a2.237,2.237,0,0,0-2.259,2.259V44.111H4V23.778A6.769,6.769,0,0,1,10.778,17H24.333a6.769,6.769,0,0,1,6.778,6.778V44.111H26.592Z"/>
<path class="a" transform="translate(14.074 80.289)" d="M8.518,23H31.111v2.259a2.237,2.237,0,0,1-2.259,2.259H6.259A2.237,2.237,0,0,1,4,25.259V23Z"/>
<path class="a" transform="translate(0)" d="M7.907.268,57.565,7.814A6.753,6.753,0,0,1,63.258,14.5V40.438l-1.807-.361a2.375,2.375,0,0,0-1.9.452,2.4,2.4,0,0,0-.813,1.762V14.5a2.284,2.284,0,0,0-1.9-2.259L7.184,4.742A1.251,1.251,0,0,0,6.778,4.7a2.131,2.131,0,0,0-1.446.542,2.16,2.16,0,0,0-.813,1.717V101.03a2.266,2.266,0,0,0,2.259,2.259h11.3v2.259a2.237,2.237,0,0,0,2.259,2.259H6.778A6.769,6.769,0,0,1,0,101.03V6.956A6.653,6.653,0,0,1,2.395,1.8,6.782,6.782,0,0,1,7.907.269Z"/>
</g>
</svg>
