<svg xmlns="http://www.w3.org/2000/svg" xmlns:xlink="http://www.w3.org/1999/xlink" width="407.939" height="250.467" viewBox="0 0 407.939 250.467"><defs><style>.a,.b{fill:#fff;}.a{opacity:0;}.c,.k{fill:none;}.c{stroke:#cfd3d5;}.d{fill:#8e8e8e;}.e{fill:#8a8a8e;}.f{fill:#606f76;}.g{fill:#5fc777;}.h{fill:rgba(60,60,67,0.6);}.i{fill:#f82b60;}.j{stroke:none;}.l{filter:url(#a);}</style><filter id="a" x="0" y="0" width="407.939" height="250.467" filterUnits="userSpaceOnUse"><feOffset dx="-3" dy="3" input="SourceAlpha"/><feGaussianBlur stdDeviation="10.5" result="b"/><feFlood flood-opacity="0.161"/><feComposite operator="in" in2="b"/><feComposite in="SourceGraphic"/></filter></defs><g transform="translate(19064.5 7592.5)"><rect class="a" width="313" height="151" transform="translate(-19013 -7533)"/><g class="l" transform="matrix(1, 0, 0, 1, -19064.5, -7592.5)"><path class="b" d="M0,0H344.939V187.467H0Z" transform="translate(34.5 28.5)"/></g><g transform="translate(-18775.914 -7483.181)"><g class="c" transform="translate(-0.086 0.182)"><rect class="j" width="63" height="32"/><rect class="k" x="0.5" y="0.5" width="62" height="31"/></g></g><path class="d" d="M3.749,0H45.409a3.749,3.749,0,1,1,0,7.5H3.749a3.749,3.749,0,0,1,0-7.5Z" transform="translate(-18998.172 -7436.522)"/><path class="d" d="M3.749,0H74.57a3.749,3.749,0,1,1,0,7.5H3.749a3.749,3.749,0,0,1,0-7.5Z" transform="translate(-18998.172 -7416.526)"/><path class="d" d="M3.749,0H67.071a3.749,3.749,0,1,1,0,7.5H3.749a3.749,3.749,0,0,1,0-7.5Z" transform="translate(-18998.172 -7399.862)"/><path class="d" d="M3.749,0H74.57a3.749,3.749,0,1,1,0,7.5H3.749a3.749,3.749,0,0,1,0-7.5Z" transform="translate(-18940.682 -7436.522)"/><path class="d" d="M3.749,0H42.076a3.749,3.749,0,1,1,0,7.5H3.749a3.749,3.749,0,0,1,0-7.5Z" transform="translate(-18911.52 -7416.526)"/><path class="d" d="M3.749,0H78.736a3.749,3.749,0,0,1,0,7.5H3.749a3.749,3.749,0,0,1,0-7.5Z" transform="translate(-18919.02 -7399.862)"/><path class="d" d="M3.749,0H138.725a3.749,3.749,0,1,1,0,7.5H3.749a3.749,3.749,0,0,1,0-7.5Z" transform="translate(-18854.029 -7436.522)"/><path class="d" d="M3.749,0H52.907a3.749,3.749,0,1,1,0,7.5H3.749a3.749,3.749,0,0,1,0-7.5Z" transform="translate(-18768.213 -7416.526)"/><path class="d" d="M3.749,0H77.07a3.749,3.749,0,1,1,0,7.5H3.749a3.749,3.749,0,0,1,0-7.5Z" transform="translate(-18857.363 -7416.526)"/><path class="d" d="M3.749,0H112.9a3.749,3.749,0,1,1,0,7.5H3.749a3.749,3.749,0,0,1,0-7.5Z" transform="translate(-18828.201 -7399.862)"/><path class="e" d="M3.08-.81V-1.96A1.776,1.776,0,0,0,2.8-3.035.963.963,0,0,0,1.97-3.42a1.106,1.106,0,0,0-.44.09,1.17,1.17,0,0,0-.38.265,1.314,1.314,0,0,0-.27.415,1.392,1.392,0,0,0-.1.54,1.484,1.484,0,0,0,.11.6,1.065,1.065,0,0,0,.3.4,1.208,1.208,0,0,0,.43.225,1.813,1.813,0,0,0,.51.07Zm1.6,0q.23,0,.23.18v.39q0,.24-.23.24H2.16A2.651,2.651,0,0,1,1.155-.17a1.891,1.891,0,0,1-.67-.44,1.643,1.643,0,0,1-.37-.615A2.185,2.185,0,0,1,0-1.92,2.48,2.48,0,0,1,.155-2.8,2.337,2.337,0,0,1,.58-3.52a1.985,1.985,0,0,1,.645-.49,1.859,1.859,0,0,1,.815-.18,1.979,1.979,0,0,1,.76.14,1.628,1.628,0,0,1,.575.39,1.749,1.749,0,0,1,.365.6,2.238,2.238,0,0,1,.13.775V-.81ZM.89-5.71a.443.443,0,0,1,.135-.325A.443.443,0,0,1,1.35-6.17a.443.443,0,0,1,.325.135.443.443,0,0,1,.135.325.443.443,0,0,1-.135.325.443.443,0,0,1-.325.135.443.443,0,0,1-.325-.135A.443.443,0,0,1,.89-5.71Zm1.33,0a.443.443,0,0,1,.135-.325A.443.443,0,0,1,2.68-6.17a.443.443,0,0,1,.325.135.443.443,0,0,1,.135.325.443.443,0,0,1-.135.325.443.443,0,0,1-.325.135.443.443,0,0,1-.325-.135A.443.443,0,0,1,2.22-5.71ZM4.54,0q-.23,0-.23-.18V-.57q0-.24.23-.24H6.15a1.976,1.976,0,0,1-.395-.385,1.939,1.939,0,0,1-.245-.42,2.136,2.136,0,0,1-.13-.425,2.14,2.14,0,0,1-.04-.4,2,2,0,0,1,.12-.69,1.664,1.664,0,0,1,.37-.59,1.782,1.782,0,0,1,.645-.415A2.586,2.586,0,0,1,7.42-4.29q.2,0,.435.02t.505.05q-.02.23-.04.41t-.05.39q-.2-.03-.36-.045T7.55-3.48a1.5,1.5,0,0,0-1.03.32,1.093,1.093,0,0,0-.36.86,1.3,1.3,0,0,0,.155.64,1.369,1.369,0,0,0,.42.465A2.067,2.067,0,0,0,7.34-.91a2.539,2.539,0,0,0,.72.1h.72V0Zm5.54-7.17h.79V-.81h.78q.23,0,.23.18v.39q0,.24-.23.24H10.08ZM11.51,0q-.23,0-.23-.18V-.57q0-.24.23-.24h1.63a.508.508,0,0,0,.485-.2,1.137,1.137,0,0,0,.115-.555V-2.81h.79v.82a1.872,1.872,0,0,0,.055.465.93.93,0,0,0,.19.375.9.9,0,0,0,.355.25,1.429,1.429,0,0,0,.54.09h.26q.38,0,.49-.2a1.175,1.175,0,0,0,.11-.56V-3.23h.8v1.24a1.872,1.872,0,0,0,.055.465.966.966,0,0,0,.185.375.859.859,0,0,0,.35.25,1.429,1.429,0,0,0,.54.09h.83V-3.8h.79V0H18.43a1.692,1.692,0,0,1-.735-.15.964.964,0,0,1-.465-.63,1.344,1.344,0,0,1-.22.4.978.978,0,0,1-.29.24,1.108,1.108,0,0,1-.345.115A2.4,2.4,0,0,1,15.99,0h-.34a1.506,1.506,0,0,1-.75-.165,1.217,1.217,0,0,1-.48-.615,1.3,1.3,0,0,1-.52.6,1.547,1.547,0,0,1-.77.18ZM27.08,0h-.84V-6h-.02L24.95-4.93l-.5-.61,1.9-1.54h.73Zm2.46-.96,2.67-2.6q.25-.24.44-.445a2.887,2.887,0,0,0,.315-.4,1.525,1.525,0,0,0,.185-.405,1.71,1.71,0,0,0,.06-.47,1.2,1.2,0,0,0-.1-.5,1.105,1.105,0,0,0-.275-.375,1.255,1.255,0,0,0-.41-.24,1.474,1.474,0,0,0-.5-.085,1.293,1.293,0,0,0-.89.31,1.425,1.425,0,0,0-.45.82l-.91-.08a2.213,2.213,0,0,1,.265-.765,1.833,1.833,0,0,1,.49-.555,2.19,2.19,0,0,1,.665-.335,2.683,2.683,0,0,1,.8-.115,2.718,2.718,0,0,1,.825.125,2.07,2.07,0,0,1,.69.365,1.745,1.745,0,0,1,.47.6,1.876,1.876,0,0,1,.175.83,2.363,2.363,0,0,1-.115.76,2.638,2.638,0,0,1-.31.63,3.8,3.8,0,0,1-.44.54q-.245.25-.515.5L30.49-.8v.02H34.1V0H29.54Z" transform="translate(-18746 -7540)"/><path d="M-99.18-.972v-1.38a2.132,2.132,0,0,0-.342-1.29,1.156,1.156,0,0,0-.99-.462A1.327,1.327,0,0,0-101.04-4a1.4,1.4,0,0,0-.456.318,1.576,1.576,0,0,0-.324.5,1.67,1.67,0,0,0-.12.648,1.78,1.78,0,0,0,.132.72,1.278,1.278,0,0,0,.36.486,1.449,1.449,0,0,0,.516.27,2.176,2.176,0,0,0,.612.084Zm1.92,0q.276,0,.276.216v.468q0,.288-.276.288h-3.024a3.181,3.181,0,0,1-1.206-.2,2.269,2.269,0,0,1-.8-.528,1.972,1.972,0,0,1-.444-.738,2.622,2.622,0,0,1-.138-.834,2.976,2.976,0,0,1,.186-1.05,2.8,2.8,0,0,1,.51-.87,2.382,2.382,0,0,1,.774-.588,2.23,2.23,0,0,1,.978-.216,2.375,2.375,0,0,1,.912.168,1.953,1.953,0,0,1,.69.468,2.1,2.1,0,0,1,.438.726,2.685,2.685,0,0,1,.156.93V-.972Zm-4.548-5.88a.532.532,0,0,1,.162-.39.532.532,0,0,1,.39-.162.532.532,0,0,1,.39.162.532.532,0,0,1,.162.39.532.532,0,0,1-.162.39.532.532,0,0,1-.39.162.532.532,0,0,1-.39-.162A.532.532,0,0,1-101.808-6.852Zm1.6,0a.532.532,0,0,1,.162-.39.532.532,0,0,1,.39-.162.532.532,0,0,1,.39.162.532.532,0,0,1,.162.39.532.532,0,0,1-.162.39.532.532,0,0,1-.39.162.532.532,0,0,1-.39-.162A.532.532,0,0,1-100.212-6.852ZM-97.428,0Q-97.7,0-97.7-.216V-.684q0-.288.276-.288H-96.4a.627.627,0,0,0,.582-.246,1.273,1.273,0,0,0,.15-.666V-4.56h.948v2.172a2.247,2.247,0,0,0,.066.558,1.116,1.116,0,0,0,.228.45,1.08,1.08,0,0,0,.426.3,1.715,1.715,0,0,0,.648.108h.264q.276,0,.276.216v.468q0,.288-.276.288h-.3a1.857,1.857,0,0,1-.924-.216,1.138,1.138,0,0,1-.528-.72,2.024,2.024,0,0,1-.288.486,1.119,1.119,0,0,1-.342.282,1.357,1.357,0,0,1-.4.132A2.773,2.773,0,0,1-96.324,0Zm1.692-6.852a.532.532,0,0,1,.162-.39.532.532,0,0,1,.39-.162.532.532,0,0,1,.39.162.532.532,0,0,1,.162.39.532.532,0,0,1-.162.39.532.532,0,0,1-.39.162.532.532,0,0,1-.39-.162A.532.532,0,0,1-95.736-6.852ZM-93.252,0q-.276,0-.276-.216V-.684q0-.288.276-.288h1.8V-4.56h.96V0Zm.372,1.932a.532.532,0,0,1,.162-.39.532.532,0,0,1,.39-.162.532.532,0,0,1,.39.162.532.532,0,0,1,.162.39.532.532,0,0,1-.162.39.532.532,0,0,1-.39.162.532.532,0,0,1-.39-.162A.532.532,0,0,1-92.88,1.932Zm1.6,0a.532.532,0,0,1,.162-.39.532.532,0,0,1,.39-.162.532.532,0,0,1,.39.162.532.532,0,0,1,.162.39.532.532,0,0,1-.162.39.532.532,0,0,1-.39.162.532.532,0,0,1-.39-.162A.532.532,0,0,1-91.284,1.932Zm8.256-2.9q.276,0,.276.216v.468q0,.288-.276.288h-.3A2.578,2.578,0,0,1-83.8-.042a1.348,1.348,0,0,1-.42-.15A1.056,1.056,0,0,1-84.552-.5a1.392,1.392,0,0,1-.216-.51A1.223,1.223,0,0,1-85-.552a1.333,1.333,0,0,1-.36.312,1.669,1.669,0,0,1-.444.18,1.926,1.926,0,0,1-.468.06h-2.748V-.972h2.64a.7.7,0,0,0,.594-.216,1.123,1.123,0,0,0,.162-.672q0-.576-.042-1.008a1.558,1.558,0,0,0-.222-.708,1.086,1.086,0,0,0-.528-.414,2.681,2.681,0,0,0-.96-.138h-.96v-.924h1.248a2.949,2.949,0,0,1,1.14.192,1.86,1.86,0,0,1,.732.528,2.053,2.053,0,0,1,.4.792,3.907,3.907,0,0,1,.12,1,1.8,1.8,0,0,0,.33,1.182,1.318,1.318,0,0,0,1.062.39ZM-79.5-.9a1.572,1.572,0,0,0,.642-.12,1.229,1.229,0,0,0,.444-.324,1.33,1.33,0,0,0,.258-.474,1.95,1.95,0,0,0,.084-.582,1.961,1.961,0,0,0-.12-.708,1.721,1.721,0,0,0-.318-.534,1.4,1.4,0,0,0-.456-.342A1.253,1.253,0,0,0-79.5-4.1a1.319,1.319,0,0,0-.552.12,1.378,1.378,0,0,0-.462.342,1.635,1.635,0,0,0-.312.534,2.054,2.054,0,0,0-.114.708,1.95,1.95,0,0,0,.084.582,1.283,1.283,0,0,0,.264.474,1.288,1.288,0,0,0,.45.324A1.572,1.572,0,0,0-79.5-.9Zm-3.7.9q-.276,0-.276-.216V-.684q0-.288.276-.288h.312a1.169,1.169,0,0,0,.372-.06.771.771,0,0,0,.324-.216,1.157,1.157,0,0,0,.234-.438,2.438,2.438,0,0,0,.09-.726,2.866,2.866,0,0,1,.18-1.026,2.6,2.6,0,0,1,.492-.822,2.158,2.158,0,0,1,.75-.54,2.35,2.35,0,0,1,.954-.192,2.08,2.08,0,0,1,1.692.72,3.082,3.082,0,0,1,.6,2.028,2.045,2.045,0,0,0,.042.366,1.081,1.081,0,0,0,.18.42,1.135,1.135,0,0,0,.408.342,1.581,1.581,0,0,0,.738.144h.288q.276,0,.276.216v.468q0,.288-.276.288h-.324a2.688,2.688,0,0,1-.5-.048,1.536,1.536,0,0,1-.474-.174,1.352,1.352,0,0,1-.39-.336,1.41,1.41,0,0,1-.252-.534,3,3,0,0,1-.486.612,1.969,1.969,0,0,1-.5.348A1.816,1.816,0,0,1-79,.024,4.219,4.219,0,0,1-79.56.06,2.358,2.358,0,0,1-80.712-.2a2.2,2.2,0,0,1-.8-.81,1.43,1.43,0,0,1-.534.756A1.308,1.308,0,0,1-82.8,0Zm7.488,0q-.276,0-.276-.216V-.684q0-.288.276-.288h1.548V-8.6h.948V0Zm4.416-8.6h.924V0h-.924Zm2.412,5.292h2.94v.864h-2.94Zm17.244,2.34q.276,0,.276.216v.468q0,.288-.276.288h-.324a1.885,1.885,0,0,1-.906-.2A1.186,1.186,0,0,1-53.4-.936a1.765,1.765,0,0,1-.3.5,1.2,1.2,0,0,1-.366.282,1.377,1.377,0,0,1-.408.126A3.009,3.009,0,0,1-54.9,0h-5.856a1.737,1.737,0,0,1-.714-.132,1.263,1.263,0,0,1-.474-.354A1.435,1.435,0,0,1-62.208-1a2.239,2.239,0,0,1-.084-.618v-1.9h.948v1.644a1.713,1.713,0,0,0,.054.486.645.645,0,0,0,.15.27.42.42,0,0,0,.222.12,1.376,1.376,0,0,0,.258.024h5.712q.456,0,.588-.24a1.41,1.41,0,0,0,.132-.672V-8.6h.948v6.216a2.247,2.247,0,0,0,.066.558,1.159,1.159,0,0,0,.222.45,1.037,1.037,0,0,0,.414.3,1.668,1.668,0,0,0,.642.108Zm-5.2-4.788a.532.532,0,0,0-.162-.03q-.1-.006-.186-.006a.947.947,0,0,0-.5.12.427.427,0,0,0-.2.4.7.7,0,0,0,.24.51,1.031,1.031,0,0,0,.744.234h.24v.48h-2.016v-.48h.72a1.11,1.11,0,0,1-.312-.426,1.125,1.125,0,0,1-.084-.39A.878.878,0,0,1-58.062-6a1.128,1.128,0,0,1,.822-.276q.12,0,.24.006a1.364,1.364,0,0,1,.228.03ZM-51.8,0q-.276,0-.276-.216V-.684q0-.288.276-.288h1.032a.627.627,0,0,0,.582-.246,1.273,1.273,0,0,0,.15-.666V-4.56h.948v2.172a2.247,2.247,0,0,0,.066.558,1.116,1.116,0,0,0,.228.45,1.08,1.08,0,0,0,.426.3,1.715,1.715,0,0,0,.648.108h.264q.276,0,.276.216v.468q0,.288-.276.288h-.3a1.857,1.857,0,0,1-.924-.216,1.138,1.138,0,0,1-.528-.72A2.024,2.024,0,0,1-49.5-.45a1.119,1.119,0,0,1-.342.282,1.357,1.357,0,0,1-.4.132A2.773,2.773,0,0,1-50.7,0Zm.888-6.852a.532.532,0,0,1,.162-.39.532.532,0,0,1,.39-.162.532.532,0,0,1,.39.162.532.532,0,0,1,.162.39.532.532,0,0,1-.162.39.532.532,0,0,1-.39.162.532.532,0,0,1-.39-.162A.532.532,0,0,1-50.916-6.852Zm1.6,0a.532.532,0,0,1,.162-.39.532.532,0,0,1,.39-.162.532.532,0,0,1,.39.162.532.532,0,0,1,.162.39.532.532,0,0,1-.162.39.532.532,0,0,1-.39.162.532.532,0,0,1-.39-.162A.532.532,0,0,1-49.32-6.852ZM-47.628,0Q-47.9,0-47.9-.216V-.684q0-.288.276-.288h3.972V-2.436a2.149,2.149,0,0,0-.138-.852,1,1,0,0,0-.378-.462,1.374,1.374,0,0,0-.552-.192,5.047,5.047,0,0,0-.672-.042h-1.3v-.96q.588-.936,1.134-1.824T-44.4-8.592q.24.156.4.27t.372.258L-45.684-4.9h.588a3.851,3.851,0,0,1,.888.1,1.946,1.946,0,0,1,.762.36,1.835,1.835,0,0,1,.534.714,2.9,2.9,0,0,1,.2,1.176V0ZM-37.26-.972q.276,0,.276.216v.468q0,.288-.276.288h-.228A3.489,3.489,0,0,1-37.9-.024a1.28,1.28,0,0,1-.4-.114A1.153,1.153,0,0,1-38.646-.4,1.246,1.246,0,0,1-38.9-.864V.048a3.279,3.279,0,0,1-.138.966,2.331,2.331,0,0,1-.408.786,1.9,1.9,0,0,1-.672.528,2.105,2.105,0,0,1-.918.192,5.018,5.018,0,0,1-.51-.024q-.234-.024-.366-.048l.108-.948.276.048a1.671,1.671,0,0,0,.252.03q.132.006.24.006a1.009,1.009,0,0,0,.942-.408A2.448,2.448,0,0,0-39.852-.06v-4.5h.948v2.172a2.247,2.247,0,0,0,.066.558,1.116,1.116,0,0,0,.228.45,1.08,1.08,0,0,0,.426.3,1.752,1.752,0,0,0,.66.108ZM-37.428,0Q-37.7,0-37.7-.216V-.684q0-.288.276-.288h1.956a.61.61,0,0,0,.582-.246,1.364,1.364,0,0,0,.138-.666V-3.372h.948v.984a2.247,2.247,0,0,0,.066.558,1.116,1.116,0,0,0,.228.45,1.08,1.08,0,0,0,.426.3,1.715,1.715,0,0,0,.648.108h.312q.456,0,.588-.24a1.41,1.41,0,0,0,.132-.672V-3.876h.96v1.488a2.247,2.247,0,0,0,.066.558,1.159,1.159,0,0,0,.222.45,1.031,1.031,0,0,0,.42.3,1.715,1.715,0,0,0,.648.108h1V-4.56h.948V0h-1.98a2.031,2.031,0,0,1-.882-.18,1.157,1.157,0,0,1-.558-.756,1.613,1.613,0,0,1-.264.474,1.174,1.174,0,0,1-.348.288,1.33,1.33,0,0,1-.414.138A2.883,2.883,0,0,1-32.052,0h-.408a1.807,1.807,0,0,1-.9-.2,1.46,1.46,0,0,1-.576-.738,1.557,1.557,0,0,1-.624.72A1.857,1.857,0,0,1-35.484,0Zm5.112-6.852a.532.532,0,0,1,.162-.39.532.532,0,0,1,.39-.162.532.532,0,0,1,.39.162.532.532,0,0,1,.162.39.532.532,0,0,1-.162.39.532.532,0,0,1-.39.162.532.532,0,0,1-.39-.162A.532.532,0,0,1-32.316-6.852Zm1.6,0a.532.532,0,0,1,.162-.39.532.532,0,0,1,.39-.162.532.532,0,0,1,.39.162.532.532,0,0,1,.162.39.532.532,0,0,1-.162.39.532.532,0,0,1-.39.162.532.532,0,0,1-.39-.162A.532.532,0,0,1-30.72-6.852Zm-.792-1.26a.532.532,0,0,1,.162-.39.532.532,0,0,1,.39-.162.532.532,0,0,1,.39.162.532.532,0,0,1,.162.39.532.532,0,0,1-.162.39.532.532,0,0,1-.39.162.532.532,0,0,1-.39-.162A.532.532,0,0,1-31.512-8.112Zm13.548,3.888a1.777,1.777,0,0,0-.588.1,1.163,1.163,0,0,0-.48.318,1.6,1.6,0,0,0-.324.576,2.734,2.734,0,0,0-.12.87V-1h1.44a3.379,3.379,0,0,0,.726-.066.9.9,0,0,0,.462-.24,1.007,1.007,0,0,0,.24-.48,3.462,3.462,0,0,0,.072-.774,1.844,1.844,0,0,0-.372-1.23A1.309,1.309,0,0,0-17.964-4.224ZM-13.92-.972q.276,0,.276.216v.468q0,.288-.276.288h-.312a2.884,2.884,0,0,1-.486-.042A1.538,1.538,0,0,1-15.18-.2a1.326,1.326,0,0,1-.39-.318,1.428,1.428,0,0,1-.27-.528,2.115,2.115,0,0,1-.474.552,1.972,1.972,0,0,1-.558.312,2.739,2.739,0,0,1-.648.144A7.245,7.245,0,0,1-18.264,0h-2.784a1.023,1.023,0,0,0-.81.294,1.665,1.665,0,0,0-.258,1.074v2.88h-.948V1.008A1.971,1.971,0,0,1-22.53-.486,1.908,1.908,0,0,1-21.156-1h.708V-2.5a3.057,3.057,0,0,1,.162-.984,2.554,2.554,0,0,1,.48-.852,2.442,2.442,0,0,1,.774-.6A2.276,2.276,0,0,1-18-5.16a2.56,2.56,0,0,1,1.014.192,2.228,2.228,0,0,1,.768.534,2.32,2.32,0,0,1,.486.816,3.05,3.05,0,0,1,.168,1.026v.348a2.612,2.612,0,0,0,.03.336.989.989,0,0,0,.168.42,1.211,1.211,0,0,0,.408.36,1.507,1.507,0,0,0,.75.156ZM-14.088,0q-.276,0-.276-.216V-.684q0-.288.276-.288h1.956a.61.61,0,0,0,.582-.246,1.364,1.364,0,0,0,.138-.666V-3.372h.948v.984a2.247,2.247,0,0,0,.066.558,1.116,1.116,0,0,0,.228.45,1.08,1.08,0,0,0,.426.3A1.715,1.715,0,0,0-9.1-.972h.312q.456,0,.588-.24a1.41,1.41,0,0,0,.132-.672V-3.876h.96v1.488a2.247,2.247,0,0,0,.066.558,1.159,1.159,0,0,0,.222.45,1.031,1.031,0,0,0,.42.3,1.715,1.715,0,0,0,.648.108h1V-4.56H-3.8V0h-1.98a2.031,2.031,0,0,1-.882-.18,1.157,1.157,0,0,1-.558-.756,1.613,1.613,0,0,1-.264.474,1.174,1.174,0,0,1-.348.288,1.33,1.33,0,0,1-.414.138A2.883,2.883,0,0,1-8.712,0H-9.12a1.807,1.807,0,0,1-.9-.2A1.46,1.46,0,0,1-10.6-.936a1.557,1.557,0,0,1-.624.72A1.857,1.857,0,0,1-12.144,0Zm12.2-8.6H-.96V0h-.924Z" transform="translate(-18713 -7490)"/><path class="f" d="M-47.358-4.32a.521.521,0,0,1,.382.157.521.521,0,0,1,.158.382.507.507,0,0,1-.167.382.53.53,0,0,1-.374.157.53.53,0,0,1-.374-.157A.507.507,0,0,1-47.9-3.78a.521.521,0,0,1,.158-.382A.521.521,0,0,1-47.358-4.32Zm0,3.294a.521.521,0,0,1,.382.158.521.521,0,0,1,.158.382.507.507,0,0,1-.167.383.53.53,0,0,1-.374.158A.53.53,0,0,1-47.732-.1.507.507,0,0,1-47.9-.486a.521.521,0,0,1,.158-.382A.521.521,0,0,1-47.358-1.026Zm6.363.3V-1.764a1.6,1.6,0,0,0-.257-.967.867.867,0,0,0-.743-.347,1,1,0,0,0-.4.081,1.053,1.053,0,0,0-.342.239,1.182,1.182,0,0,0-.243.374,1.253,1.253,0,0,0-.09.486,1.335,1.335,0,0,0,.1.54.959.959,0,0,0,.27.364,1.087,1.087,0,0,0,.387.2,1.632,1.632,0,0,0,.459.063Zm1.44,0q.207,0,.207.162v.351q0,.216-.207.216h-2.268a2.386,2.386,0,0,1-.9-.153,1.7,1.7,0,0,1-.6-.4,1.479,1.479,0,0,1-.333-.553,1.967,1.967,0,0,1-.1-.626,2.232,2.232,0,0,1,.139-.788,2.1,2.1,0,0,1,.382-.652,1.786,1.786,0,0,1,.581-.441,1.673,1.673,0,0,1,.733-.162,1.781,1.781,0,0,1,.684.126,1.465,1.465,0,0,1,.517.351,1.574,1.574,0,0,1,.329.544,2.014,2.014,0,0,1,.117.7V-.729Zm-3.411-4.41a.4.4,0,0,1,.122-.293.4.4,0,0,1,.292-.122.4.4,0,0,1,.292.122.4.4,0,0,1,.122.293.4.4,0,0,1-.122.293.4.4,0,0,1-.292.122.4.4,0,0,1-.292-.122A.4.4,0,0,1-42.966-5.139Zm1.2,0a.4.4,0,0,1,.121-.293.4.4,0,0,1,.292-.122.4.4,0,0,1,.292.122.4.4,0,0,1,.122.293.4.4,0,0,1-.122.293.4.4,0,0,1-.292.122.4.4,0,0,1-.292-.122A.4.4,0,0,1-41.769-5.139ZM-39.681,0q-.207,0-.207-.162V-.513q0-.216.207-.216h1.476a1.5,1.5,0,0,1-.324-.482,1.645,1.645,0,0,1-.135-.679,1.821,1.821,0,0,1,.139-.693,1.884,1.884,0,0,1,.392-.6,1.954,1.954,0,0,1,.612-.423,1.908,1.908,0,0,1,.792-.162,1.686,1.686,0,0,1,.653.122,1.381,1.381,0,0,1,.495.342,1.511,1.511,0,0,1,.311.527,2.045,2.045,0,0,1,.108.684V-.729h.8q.207,0,.207.162v.351q0,.216-.207.216Zm3.8-.729V-2.142a1.061,1.061,0,0,0-.054-.329.863.863,0,0,0-.171-.3.883.883,0,0,0-.3-.22,1.03,1.03,0,0,0-.437-.086A1.083,1.083,0,0,0-37.26-3a1.075,1.075,0,0,0-.356.239,1.144,1.144,0,0,0-.247.374,1.253,1.253,0,0,0-.09.486,1.125,1.125,0,0,0,.162.648,1.171,1.171,0,0,0,.36.351,1.456,1.456,0,0,0,.531.171ZM-37.2-5.139a.4.4,0,0,1,.121-.293.4.4,0,0,1,.292-.122.4.4,0,0,1,.292.122.4.4,0,0,1,.122.293.4.4,0,0,1-.122.293.4.4,0,0,1-.292.122.4.4,0,0,1-.292-.122A.4.4,0,0,1-37.2-5.139ZM-34.308,0q-.207,0-.207-.162V-.513q0-.216.207-.216h.774A.47.47,0,0,0-33.1-.913a.955.955,0,0,0,.112-.5V-3.42h.711v1.629a1.685,1.685,0,0,0,.049.418.837.837,0,0,0,.171.338.81.81,0,0,0,.319.225,1.286,1.286,0,0,0,.486.081h.2q.207,0,.207.162v.351q0,.216-.207.216h-.225a1.393,1.393,0,0,1-.693-.162.854.854,0,0,1-.4-.54,1.518,1.518,0,0,1-.216.365.839.839,0,0,1-.257.212,1.018,1.018,0,0,1-.3.1A2.079,2.079,0,0,1-33.48,0Zm.693,1.449a.4.4,0,0,1,.121-.293.4.4,0,0,1,.292-.122.4.4,0,0,1,.292.122.4.4,0,0,1,.122.293.4.4,0,0,1-.122.293.4.4,0,0,1-.292.122.4.4,0,0,1-.292-.122A.4.4,0,0,1-33.615,1.449Zm1.2,0a.4.4,0,0,1,.122-.293A.4.4,0,0,1-32,1.035a.4.4,0,0,1,.292.122.4.4,0,0,1,.122.293.4.4,0,0,1-.122.293A.4.4,0,0,1-32,1.863a.4.4,0,0,1-.292-.122A.4.4,0,0,1-32.418,1.449ZM-31.176,0q-.207,0-.207-.162V-.513q0-.216.207-.216h1.368V-6.453h.72v4.32a4.385,4.385,0,0,1,.535-.832,2.741,2.741,0,0,1,.585-.536,2.147,2.147,0,0,1,.616-.284,2.4,2.4,0,0,1,.63-.086,2.106,2.106,0,0,1,.886.176,1.87,1.87,0,0,1,.643.477A1.994,1.994,0,0,1-24.8-2.5a2.948,2.948,0,0,1,.131.891V0Zm5.769-1.5a2.44,2.44,0,0,0-.108-.783,1.292,1.292,0,0,0-.3-.5,1.076,1.076,0,0,0-.455-.27,1.949,1.949,0,0,0-.572-.081,1.772,1.772,0,0,0-.743.171,2.364,2.364,0,0,0-.688.486,2.937,2.937,0,0,0-.54.761,2.928,2.928,0,0,0-.288.994h3.69Zm-1.836-3.636a.4.4,0,0,1,.122-.293.4.4,0,0,1,.292-.122.4.4,0,0,1,.292.122.4.4,0,0,1,.122.293.4.4,0,0,1-.122.293.4.4,0,0,1-.292.122.4.4,0,0,1-.292-.122A.4.4,0,0,1-27.243-5.139ZM-20.7-.729V-1.764a1.54,1.54,0,0,0-.27-.967.876.876,0,0,0-.729-.347A1.061,1.061,0,0,0-22.1-3a.983.983,0,0,0-.347.239,1.225,1.225,0,0,0-.238.374,1.253,1.253,0,0,0-.09.486,1.335,1.335,0,0,0,.1.54.959.959,0,0,0,.27.364,1.087,1.087,0,0,0,.387.2,1.632,1.632,0,0,0,.459.063Zm1.692,0q.207,0,.207.162v.351q0,.216-.207.216H-20a2.5,2.5,0,0,1-.18.954,1.713,1.713,0,0,1-.472.648,1.859,1.859,0,0,1-.715.365,3.46,3.46,0,0,1-.909.112q-.189,0-.387-.009a3.215,3.215,0,0,1-.405-.045q.018-.189.031-.351T-23,1.341q.207.018.405.031t.378.013a3,3,0,0,0,.58-.054,1.182,1.182,0,0,0,.481-.207A1.081,1.081,0,0,0-20.826.7a1.759,1.759,0,0,0,.135-.7h-.837a2.386,2.386,0,0,1-.9-.153,1.7,1.7,0,0,1-.6-.4,1.479,1.479,0,0,1-.333-.553,1.967,1.967,0,0,1-.1-.626,2.3,2.3,0,0,1,.135-.788,2.036,2.036,0,0,1,.378-.652,1.786,1.786,0,0,1,.58-.441,1.673,1.673,0,0,1,.734-.162,1.806,1.806,0,0,1,.693.126,1.465,1.465,0,0,1,.517.351,1.521,1.521,0,0,1,.324.544,2.087,2.087,0,0,1,.112.7V-.729ZM-19.134,0q-.207,0-.207-.162V-.513q0-.216.207-.216h1.161V-6.453h.711V0Zm3.312-6.453h.693V0h-.693Zm5.337,5.742a1.626,1.626,0,0,1-.553-.644,1.939,1.939,0,0,1-.212-.886,1.715,1.715,0,0,1,.108-.6,1.435,1.435,0,0,1,.337-.522,1.684,1.684,0,0,1,.585-.369,2.328,2.328,0,0,1,.851-.14q.18,0,.391.018t.455.045q-.027.207-.045.369t-.036.351q-.18-.027-.328-.041t-.32-.013a1.369,1.369,0,0,0-.931.288.977.977,0,0,0-.328.774,1.14,1.14,0,0,0,.144.576,1.3,1.3,0,0,0,.378.419,1.79,1.79,0,0,0,.544.256,2.3,2.3,0,0,0,.644.09h.657V0H-9.9a1.655,1.655,0,0,0-.612.1,1.347,1.347,0,0,0-.437.27,1.053,1.053,0,0,0-.261.387,1.271,1.271,0,0,0-.085.464,1.2,1.2,0,0,0,.369.913,1.608,1.608,0,0,0,1.134.346,3.125,3.125,0,0,0,.445-.036q.247-.036.427-.081a2.855,2.855,0,0,0,.05.324q.031.144.05.3a2.544,2.544,0,0,1-.513.126A4.154,4.154,0,0,1-10,3.168a2.647,2.647,0,0,1-.747-.108,2,2,0,0,1-.666-.337,1.683,1.683,0,0,1-.477-.589,1.914,1.914,0,0,1-.18-.864,2.026,2.026,0,0,1,.41-1.283A1.972,1.972,0,0,1-10.485-.711Zm6.129-.018V-1.764a1.54,1.54,0,0,0-.27-.967.876.876,0,0,0-.729-.347A1.061,1.061,0,0,0-5.76-3a.983.983,0,0,0-.346.239,1.225,1.225,0,0,0-.239.374,1.253,1.253,0,0,0-.09.486,1.335,1.335,0,0,0,.1.54.959.959,0,0,0,.27.364,1.087,1.087,0,0,0,.387.2,1.632,1.632,0,0,0,.459.063Zm1.692,0q.207,0,.207.162v.351q0,.216-.207.216h-.99a2.5,2.5,0,0,1-.18.954,1.713,1.713,0,0,1-.472.648,1.859,1.859,0,0,1-.716.365,3.46,3.46,0,0,1-.909.112q-.189,0-.387-.009a3.215,3.215,0,0,1-.4-.045q.018-.189.031-.351t.031-.333q.207.018.405.031t.378.013A3,3,0,0,0-5.3,1.332a1.182,1.182,0,0,0,.482-.207A1.081,1.081,0,0,0-4.482.7,1.759,1.759,0,0,0-4.347,0h-.837a2.386,2.386,0,0,1-.9-.153,1.7,1.7,0,0,1-.6-.4A1.479,1.479,0,0,1-7.024-1.1a1.967,1.967,0,0,1-.1-.626,2.3,2.3,0,0,1,.135-.788,2.036,2.036,0,0,1,.378-.652,1.786,1.786,0,0,1,.581-.441A1.673,1.673,0,0,1-5.3-3.771a1.806,1.806,0,0,1,.693.126,1.465,1.465,0,0,1,.517.351,1.521,1.521,0,0,1,.324.544,2.087,2.087,0,0,1,.112.7V-.729ZM-2.79,0Q-3,0-3-.162V-.513q0-.216.207-.216h1.35V-3.42h.72V0Zm1.278-5.139a.4.4,0,0,1,.121-.293A.4.4,0,0,1-1.1-5.553a.4.4,0,0,1,.293.122.4.4,0,0,1,.122.293.4.4,0,0,1-.122.293.4.4,0,0,1-.293.122.4.4,0,0,1-.293-.122A.4.4,0,0,1-1.512-5.139Z" transform="translate(-18720 -7472)"/><path class="g" d="M-34.91-.28a.34.34,0,0,1-.065.18.227.227,0,0,1-.205.1h-.32a1.374,1.374,0,0,1-.55-.1,1.215,1.215,0,0,1-.38-.25A2.871,2.871,0,0,1-36.72.66a2.589,2.589,0,0,1-.6.775,2.608,2.608,0,0,1-.87.5,3.31,3.31,0,0,1-1.1.175,3.459,3.459,0,0,1-1.365-.235,2.368,2.368,0,0,1-.87-.61,2.211,2.211,0,0,1-.46-.84A3.271,3.271,0,0,1-42.12-.49a3.071,3.071,0,0,1,.165-.975,3.276,3.276,0,0,1,.475-.915l.96.55a2.473,2.473,0,0,0-.33.675,2.316,2.316,0,0,0-.1.665,1.639,1.639,0,0,0,.075.47,1.236,1.236,0,0,0,.265.465,1.469,1.469,0,0,0,.52.36,2.1,2.1,0,0,0,.84.145,2.232,2.232,0,0,0,.635-.09,1.5,1.5,0,0,0,.54-.285,1.443,1.443,0,0,0,.38-.5A1.674,1.674,0,0,0-37.55-.65V-7.16h1.13v5.08a.924.924,0,0,0,.23.715.96.96,0,0,0,.66.205h.35a.232.232,0,0,1,.205.08.392.392,0,0,1,.065.19Zm2.73-.82a.825.825,0,0,0,.7-.29,1.108,1.108,0,0,0,.225-.7,1.312,1.312,0,0,0-.08-.47,1.254,1.254,0,0,0-.2-.36.869.869,0,0,0-.29-.23.781.781,0,0,0-.345-.08.835.835,0,0,0-.36.08.854.854,0,0,0-.295.23,1.172,1.172,0,0,0-.2.36,1.39,1.39,0,0,0-.075.47,1.148,1.148,0,0,0,.215.7A.825.825,0,0,0-32.18-1.1ZM-35.24,0a.247.247,0,0,1-.21-.08.293.293,0,0,1-.06-.18V-.85a.379.379,0,0,1,.065-.21.227.227,0,0,1,.205-.1h.39q.62,0,.62-.94a2.5,2.5,0,0,1,.155-.89A2.078,2.078,0,0,1-33.64-3.7a2.01,2.01,0,0,1,.655-.46,2.026,2.026,0,0,1,.825-.165,2.1,2.1,0,0,1,.875.17,1.684,1.684,0,0,1,.62.47,1.984,1.984,0,0,1,.365.72,3.34,3.34,0,0,1,.12.92,2.77,2.77,0,0,1-.105.76,1.743,1.743,0,0,1-.345.655,1.714,1.714,0,0,1-.615.455A2.209,2.209,0,0,1-32.16,0a3.894,3.894,0,0,1-.44-.025,2,2,0,0,1-.435-.1,1.7,1.7,0,0,1-.41-.21A1.576,1.576,0,0,1-33.8-.68a1.086,1.086,0,0,1-.415.515A1.051,1.051,0,0,1-34.78,0Zm6.39-7.16h1.14v6h.68a.26.26,0,0,1,.22.08.308.308,0,0,1,.06.19v.61a.325.325,0,0,1-.07.18.239.239,0,0,1-.21.1h-1.82ZM-27.08,0a.247.247,0,0,1-.21-.08.293.293,0,0,1-.06-.18V-.85a.379.379,0,0,1,.065-.21.227.227,0,0,1,.2-.1H-24v-.95a1.37,1.37,0,0,0-.095-.565.721.721,0,0,0-.255-.31.852.852,0,0,0-.375-.13,3.943,3.943,0,0,0-.455-.025h-1.21V-4.15l1.94-3.08.94.63-1.53,2.35h.1a3.373,3.373,0,0,1,.78.09,1.648,1.648,0,0,1,.665.32,1.629,1.629,0,0,1,.46.63A2.53,2.53,0,0,1-22.86-2.2V0Zm7.39,3.34V.6a1.747,1.747,0,0,1,.475-1.33,1.709,1.709,0,0,1,1.225-.45h.35v-.98a2.545,2.545,0,0,1,.145-.845,2.259,2.259,0,0,1,.42-.735,2.094,2.094,0,0,1,.67-.515,2,2,0,0,1,.9-.195,2.212,2.212,0,0,1,.87.165,1.952,1.952,0,0,1,.665.455,2,2,0,0,1,.425.7,2.571,2.571,0,0,1,.15.89,2.761,2.761,0,0,1-.17,1.025,1.779,1.779,0,0,1-.48.7,1.933,1.933,0,0,1-.735.395A3.3,3.3,0,0,1-15.72,0h-2.19a.6.6,0,0,0-.48.185,1.1,1.1,0,0,0-.16.695V3.34Zm4.21-6.66a1.14,1.14,0,0,0-.39.065.773.773,0,0,0-.315.215,1.09,1.09,0,0,0-.215.39,1.884,1.884,0,0,0-.08.59v.88h.94a.945.945,0,0,0,.775-.26,1.226,1.226,0,0,0,.2-.77,1.275,1.275,0,0,0-.235-.815A.824.824,0,0,0-15.48-3.32Zm3.41-3.84h1.13V0h-1.13ZM-7.39,0A2.75,2.75,0,0,1-8.435-.175a1.926,1.926,0,0,1-.69-.46A1.752,1.752,0,0,1-9.51-1.28a2.3,2.3,0,0,1-.12-.73A2.592,2.592,0,0,1-9.475-2.9,2.332,2.332,0,0,1-9.04-3.65a2.044,2.044,0,0,1,.67-.5,1.981,1.981,0,0,1,.86-.185,2.085,2.085,0,0,1,.8.145,1.707,1.707,0,0,1,.605.41,1.832,1.832,0,0,1,.385.63,2.3,2.3,0,0,1,.135.805v2.2A2.732,2.732,0,0,1-5.78.925a1.809,1.809,0,0,1-.535.72,2.251,2.251,0,0,1-.82.4,3.952,3.952,0,0,1-1.045.13q-.21,0-.465-.015A5.666,5.666,0,0,1-9.21,2.1L-9.13.98q.29.04.555.06t.445.02a3.355,3.355,0,0,0,.53-.04A1.21,1.21,0,0,0-7.16.865a.893.893,0,0,0,.31-.32A1.219,1.219,0,0,0-6.71,0Zm.67-1.16v-.89a1.456,1.456,0,0,0-.225-.875A.733.733,0,0,0-7.57-3.23a.825.825,0,0,0-.345.075,1.019,1.019,0,0,0-.3.21,1,1,0,0,0-.215.325,1.1,1.1,0,0,0-.08.43,1.129,1.129,0,0,0,.09.475.9.9,0,0,0,.24.32.92.92,0,0,0,.35.18,1.539,1.539,0,0,0,.41.055ZM-4.55,0V-1.16h2.73V-2.17a1.573,1.573,0,0,0-.08-.55.738.738,0,0,0-.235-.33.854.854,0,0,0-.38-.16,2.9,2.9,0,0,0-.5-.04h-.97V-4.36h1.2a3.9,3.9,0,0,1,.795.08,1.628,1.628,0,0,1,.68.31,1.573,1.573,0,0,1,.47.64A2.758,2.758,0,0,1-.67-2.26V0Z" transform="translate(-18720 -7458)"/><g transform="translate(-18845.914 -7483.182)"><g class="c" transform="translate(-0.086 0.182)"><rect class="j" width="63" height="32"/><rect class="k" x="0.5" y="0.5" width="62" height="31"/></g></g><path class="f" d="M-24.435-4.32a.521.521,0,0,1,.382.157.521.521,0,0,1,.158.382.507.507,0,0,1-.167.382.53.53,0,0,1-.374.157.53.53,0,0,1-.373-.157.507.507,0,0,1-.167-.382.521.521,0,0,1,.157-.382A.521.521,0,0,1-24.435-4.32Zm0,3.294a.521.521,0,0,1,.382.158.521.521,0,0,1,.158.382.507.507,0,0,1-.167.383.53.53,0,0,1-.374.158A.53.53,0,0,1-24.809-.1a.507.507,0,0,1-.167-.383.521.521,0,0,1,.157-.382A.521.521,0,0,1-24.435-1.026Zm11.583.3q.207,0,.207.162v.351q0,.216-.207.216H-13.1a1.359,1.359,0,0,1-.671-.157A.909.909,0,0,1-14.175-.7a.982.982,0,0,1-.459.567A1.553,1.553,0,0,1-15.3,0h-4.383a1.328,1.328,0,0,1-.544-.1.989.989,0,0,1-.36-.265.989.989,0,0,1-.2-.387,1.8,1.8,0,0,1-.059-.464V-2.637h.711V-1.4a.835.835,0,0,0,.126.518.466.466,0,0,0,.387.158h4.284A.457.457,0,0,0-14.9-.913a1.023,1.023,0,0,0,.1-.5V-3.42h.711v1.629a1.685,1.685,0,0,0,.05.418.869.869,0,0,0,.167.338.773.773,0,0,0,.315.225,1.286,1.286,0,0,0,.486.081ZM-17.8,1.449a.4.4,0,0,1,.122-.293.4.4,0,0,1,.292-.122.4.4,0,0,1,.293.122.4.4,0,0,1,.122.293.4.4,0,0,1-.122.293.4.4,0,0,1-.293.122.4.4,0,0,1-.292-.122A.4.4,0,0,1-17.8,1.449ZM-12.978,0q-.207,0-.207-.162V-.513q0-.216.207-.216h1.35V-3.42h.72V0Zm.648-5.139a.4.4,0,0,1,.122-.293.4.4,0,0,1,.292-.122.4.4,0,0,1,.293.122.4.4,0,0,1,.122.293.4.4,0,0,1-.122.293.4.4,0,0,1-.293.122.4.4,0,0,1-.292-.122A.4.4,0,0,1-12.33-5.139Zm1.2,0a.4.4,0,0,1,.122-.293.4.4,0,0,1,.293-.122.4.4,0,0,1,.292.122.4.4,0,0,1,.122.293.4.4,0,0,1-.122.293.4.4,0,0,1-.292.122.4.4,0,0,1-.293-.122A.4.4,0,0,1-11.133-5.139Zm1.665-1.314h.693V0h-.693ZM-4.6-.729q.207,0,.207.162v.351Q-4.392,0-4.6,0H-4.77a2.617,2.617,0,0,1-.306-.018.96.96,0,0,1-.3-.086.865.865,0,0,1-.266-.2.934.934,0,0,1-.194-.346V.036a2.459,2.459,0,0,1-.1.725,1.748,1.748,0,0,1-.306.59,1.424,1.424,0,0,1-.5.4,1.579,1.579,0,0,1-.688.144,3.764,3.764,0,0,1-.382-.018q-.176-.018-.275-.036l.081-.711.207.036a1.253,1.253,0,0,0,.189.023q.1,0,.18,0A.757.757,0,0,0-6.728.882a1.836,1.836,0,0,0,.185-.927V-3.42h.711v1.629a1.685,1.685,0,0,0,.049.418.837.837,0,0,0,.171.338.81.81,0,0,0,.319.225A1.314,1.314,0,0,0-4.8-.729ZM-4.725,0q-.207,0-.207-.162V-.513q0-.216.207-.216h1.161V-6.453h.711V0Zm3.312-6.453H-.72V0h-.693Z" transform="translate(-18790 -7472)"/><path d="M-42.17-.69A3.006,3.006,0,0,1-42.38.455a2.613,2.613,0,0,1-.585.885,2.545,2.545,0,0,1-.91.57,3.331,3.331,0,0,1-1.175.2,3.421,3.421,0,0,1-1.36-.235,2.376,2.376,0,0,1-.865-.61,2.211,2.211,0,0,1-.46-.84A3.271,3.271,0,0,1-47.87-.49a3.158,3.158,0,0,1,.16-.975,3.176,3.176,0,0,1,.47-.915l.97.55a2.337,2.337,0,0,0-.34.675,2.316,2.316,0,0,0-.1.665,1.639,1.639,0,0,0,.075.47,1.206,1.206,0,0,0,.27.465,1.523,1.523,0,0,0,.525.36A2.1,2.1,0,0,0-45,.95a2.2,2.2,0,0,0,.625-.09A1.551,1.551,0,0,0-43.83.575a1.416,1.416,0,0,0,.385-.5A1.674,1.674,0,0,0-43.3-.65V-7.16h1.13Zm1.65-6.47h1.14v6h.68a.26.26,0,0,1,.22.08.308.308,0,0,1,.06.19v.61a.325.325,0,0,1-.07.18.239.239,0,0,1-.21.1h-1.82ZM-38.76,0a.234.234,0,0,1-.2-.08.293.293,0,0,1-.06-.18V-.85a.379.379,0,0,1,.065-.21.217.217,0,0,1,.195-.1h1.37V-3.98h1.14V0Zm.08,1.26a.542.542,0,0,1,.17-.4A.592.592,0,0,1-38.08.69a.592.592,0,0,1,.43.165.542.542,0,0,1,.17.4.554.554,0,0,1-.17.415.592.592,0,0,1-.43.165.592.592,0,0,1-.43-.165A.554.554,0,0,1-38.68,1.26Zm1.55,0a.542.542,0,0,1,.17-.4A.592.592,0,0,1-36.53.69a.592.592,0,0,1,.43.165.542.542,0,0,1,.17.4.554.554,0,0,1-.17.415.592.592,0,0,1-.43.165.592.592,0,0,1-.43-.165A.554.554,0,0,1-37.13,1.26Zm4.27-1.42a2.843,2.843,0,0,1-.12.84,1.955,1.955,0,0,1-.36.68,1.691,1.691,0,0,1-.59.455,1.88,1.88,0,0,1-.81.165q-.19,0-.35-.015t-.28-.035l-.135-.02a1.1,1.1,0,0,1-.135-.03l.13-1.14.28.06q.12.02.25.035a2.1,2.1,0,0,0,.24.015.607.607,0,0,0,.59-.28A1.779,1.779,0,0,0-34-.25V-3.98h1.14Zm5.94-5.54-1.33,1.23-.7-.83,2.14-1.78h1.09V0h-1.2Zm5.46,1.47h.31a4.193,4.193,0,0,0,.5-.03,1.309,1.309,0,0,0,.445-.13.8.8,0,0,0,.315-.29.947.947,0,0,0,.12-.51.869.869,0,0,0-.28-.675,1.042,1.042,0,0,0-.73-.255,1.077,1.077,0,0,0-.645.2,1.158,1.158,0,0,0-.415.575l-1.27-.34a2.169,2.169,0,0,1,.34-.68,1.9,1.9,0,0,1,.52-.475,2.321,2.321,0,0,1,.66-.275,3.081,3.081,0,0,1,.75-.09,3.082,3.082,0,0,1,.87.12,2.2,2.2,0,0,1,.72.355,1.737,1.737,0,0,1,.5.59,1.76,1.76,0,0,1,.185.825A1.7,1.7,0,0,1-18.89-4.3a1.5,1.5,0,0,1-.89.585v.02a1.467,1.467,0,0,1,1.035.58A1.9,1.9,0,0,1-18.4-1.97a1.987,1.987,0,0,1-.195.9,1.943,1.943,0,0,1-.525.655,2.294,2.294,0,0,1-.765.4A3.036,3.036,0,0,1-20.79.12a3.5,3.5,0,0,1-.83-.1,2.336,2.336,0,0,1-.7-.3,2,2,0,0,1-.545-.515,2.288,2.288,0,0,1-.35-.755l1.28-.34a1.249,1.249,0,0,0,.39.685,1.145,1.145,0,0,0,.76.235,1.294,1.294,0,0,0,.455-.08,1.208,1.208,0,0,0,.38-.225,1.045,1.045,0,0,0,.26-.35A1.069,1.069,0,0,0-19.6-2.07a.974.974,0,0,0-.145-.555.977.977,0,0,0-.37-.33,1.6,1.6,0,0,0-.505-.155,3.886,3.886,0,0,0-.55-.04h-.29Zm4.1.69a6.579,6.579,0,0,1,.135-1.435,3.917,3.917,0,0,1,.355-1,2.382,2.382,0,0,1,.5-.65,2.142,2.142,0,0,1,.56-.37,2.185,2.185,0,0,1,.55-.165A3.164,3.164,0,0,1-14.8-7.2a3.164,3.164,0,0,1,.465.04,2.185,2.185,0,0,1,.55.165,2.142,2.142,0,0,1,.56.37,2.382,2.382,0,0,1,.5.65,3.917,3.917,0,0,1,.355,1A6.579,6.579,0,0,1-12.24-3.54a6.579,6.579,0,0,1-.135,1.435,3.917,3.917,0,0,1-.355,1,2.382,2.382,0,0,1-.5.65,2.142,2.142,0,0,1-.56.37,2.185,2.185,0,0,1-.55.165A3.164,3.164,0,0,1-14.8.12a3.164,3.164,0,0,1-.465-.04,2.185,2.185,0,0,1-.55-.165,2.142,2.142,0,0,1-.56-.37,2.382,2.382,0,0,1-.5-.65,3.917,3.917,0,0,1-.355-1A6.579,6.579,0,0,1-17.36-3.54Zm1.2,0a7.544,7.544,0,0,0,.045.765,3.5,3.5,0,0,0,.185.825,1.758,1.758,0,0,0,.41.66.973.973,0,0,0,.72.27.973.973,0,0,0,.72-.27,1.758,1.758,0,0,0,.41-.66,3.5,3.5,0,0,0,.185-.825,7.544,7.544,0,0,0,.045-.765,7.544,7.544,0,0,0-.045-.765,3.5,3.5,0,0,0-.185-.825,1.758,1.758,0,0,0-.41-.66.973.973,0,0,0-.72-.27.973.973,0,0,0-.72.27,1.758,1.758,0,0,0-.41.66,3.5,3.5,0,0,0-.185.825A7.544,7.544,0,0,0-16.16-3.54Zm4.72,0a6.579,6.579,0,0,1,.135-1.435,3.917,3.917,0,0,1,.355-1,2.382,2.382,0,0,1,.495-.65A2.142,2.142,0,0,1-9.9-7a2.185,2.185,0,0,1,.55-.165A3.164,3.164,0,0,1-8.88-7.2a3.164,3.164,0,0,1,.465.04A2.185,2.185,0,0,1-7.865-7a2.142,2.142,0,0,1,.56.37,2.382,2.382,0,0,1,.5.65,3.917,3.917,0,0,1,.355,1A6.579,6.579,0,0,1-6.32-3.54a6.579,6.579,0,0,1-.135,1.435,3.917,3.917,0,0,1-.355,1,2.382,2.382,0,0,1-.5.65,2.142,2.142,0,0,1-.56.37,2.185,2.185,0,0,1-.55.165A3.164,3.164,0,0,1-8.88.12,3.164,3.164,0,0,1-9.345.08,2.185,2.185,0,0,1-9.9-.085a2.142,2.142,0,0,1-.56-.37,2.382,2.382,0,0,1-.495-.65,3.917,3.917,0,0,1-.355-1A6.579,6.579,0,0,1-11.44-3.54Zm1.2,0a7.544,7.544,0,0,0,.045.765,3.5,3.5,0,0,0,.185.825,1.758,1.758,0,0,0,.41.66.973.973,0,0,0,.72.27.973.973,0,0,0,.72-.27,1.758,1.758,0,0,0,.41-.66,3.5,3.5,0,0,0,.185-.825A7.544,7.544,0,0,0-7.52-3.54,7.544,7.544,0,0,0-7.565-4.3,3.5,3.5,0,0,0-7.75-5.13a1.758,1.758,0,0,0-.41-.66.973.973,0,0,0-.72-.27.973.973,0,0,0-.72.27,1.758,1.758,0,0,0-.41.66,3.5,3.5,0,0,0-.185.825A7.544,7.544,0,0,0-10.24-3.54Zm4.72,0a6.579,6.579,0,0,1,.135-1.435,3.917,3.917,0,0,1,.355-1,2.382,2.382,0,0,1,.5-.65A2.142,2.142,0,0,1-3.975-7a2.185,2.185,0,0,1,.55-.165A3.164,3.164,0,0,1-2.96-7.2a3.164,3.164,0,0,1,.465.04A2.185,2.185,0,0,1-1.945-7a2.142,2.142,0,0,1,.56.37,2.382,2.382,0,0,1,.5.65,3.917,3.917,0,0,1,.355,1A6.579,6.579,0,0,1-.4-3.54,6.579,6.579,0,0,1-.535-2.105a3.917,3.917,0,0,1-.355,1,2.382,2.382,0,0,1-.5.65,2.142,2.142,0,0,1-.56.37,2.185,2.185,0,0,1-.55.165A3.164,3.164,0,0,1-2.96.12,3.164,3.164,0,0,1-3.425.08a2.185,2.185,0,0,1-.55-.165,2.142,2.142,0,0,1-.56-.37,2.382,2.382,0,0,1-.5-.65,3.917,3.917,0,0,1-.355-1A6.579,6.579,0,0,1-5.52-3.54Zm1.2,0a7.544,7.544,0,0,0,.045.765,3.5,3.5,0,0,0,.185.825,1.758,1.758,0,0,0,.41.66.973.973,0,0,0,.72.27.973.973,0,0,0,.72-.27,1.758,1.758,0,0,0,.41-.66,3.5,3.5,0,0,0,.185-.825A7.544,7.544,0,0,0-1.6-3.54,7.544,7.544,0,0,0-1.645-4.3,3.5,3.5,0,0,0-1.83-5.13a1.758,1.758,0,0,0-.41-.66.973.973,0,0,0-.72-.27.973.973,0,0,0-.72.27,1.758,1.758,0,0,0-.41.66,3.5,3.5,0,0,0-.185.825A7.544,7.544,0,0,0-4.32-3.54Z" transform="translate(-18790 -7458)"/><path class="h" d="M10.9,15.281a.8.8,0,0,0,.8-.788V4.745l-.061-1.424.626.687,1.414,1.505a.716.716,0,0,0,.535.242.7.7,0,0,0,.737-.707.715.715,0,0,0-.242-.525L11.5,1.411a.823.823,0,0,0-.6-.273.792.792,0,0,0-.6.273L7.081,4.523a.715.715,0,0,0-.242.525.7.7,0,0,0,.727.707.759.759,0,0,0,.556-.242l1.4-1.505.626-.687-.061,1.424v9.748A.8.8,0,0,0,10.9,15.281ZM5.4,22.816h10.97c2.03,0,3.051-1.02,3.051-3.01V10.321c0-2-1.02-3.02-3.051-3.02H13.748V8.967h2.576a1.307,1.307,0,0,1,1.444,1.465v9.263a1.307,1.307,0,0,1-1.444,1.465H5.465A1.3,1.3,0,0,1,4.02,19.695V10.432A1.3,1.3,0,0,1,5.465,8.967H8.051V7.3H5.4c-2.02,0-3.051,1.02-3.051,3.02v9.485C2.354,21.806,3.384,22.816,5.4,22.816Z" transform="translate(-18969.008 -7555.908)"/><g transform="translate(-19003.48 -7553.104)"><path class="i" d="M2.266,10.637c0,4.573,3.836,9.079,9.862,12.948a1.951,1.951,0,0,0,.862.329,1.9,1.9,0,0,0,.862-.329c6.026-3.87,9.873-8.375,9.873-12.948,0-3.847-2.655-6.559-6.151-6.559A5.394,5.394,0,0,0,12.99,6.461,5.392,5.392,0,0,0,8.4,4.078C4.91,4.078,2.266,6.79,2.266,10.637Zm1.884-.011c0-2.8,1.827-4.675,4.29-4.675a4.418,4.418,0,0,1,3.8,2.281c.3.431.488.567.749.567s.431-.148.749-.567a4.564,4.564,0,0,1,3.813-2.281c2.463,0,4.278,1.872,4.278,4.675,0,3.926-4.119,8.193-8.625,11.189a.555.555,0,0,1-.216.113.644.644,0,0,1-.216-.113C8.269,18.819,4.149,14.552,4.149,10.626Z" transform="translate(-2.266 -4.078)"/></g><path d="M-29.3-1.392V-2.46a1.809,1.809,0,0,0-.258-1.05.872.872,0,0,0-.762-.366.989.989,0,0,0-.414.09,1.148,1.148,0,0,0-.354.252,1.26,1.26,0,0,0-.252.39,1.319,1.319,0,0,0-.1.516,1.355,1.355,0,0,0,.108.57,1.08,1.08,0,0,0,.288.384,1.109,1.109,0,0,0,.414.216,1.782,1.782,0,0,0,.486.066ZM-30.108,0A3.264,3.264,0,0,1-31.35-.21a2.374,2.374,0,0,1-.834-.552,2.064,2.064,0,0,1-.468-.774,2.754,2.754,0,0,1-.144-.876A3.023,3.023,0,0,1-32.6-3.486a2.889,2.889,0,0,1,.528-.894,2.453,2.453,0,0,1,.8-.606,2.377,2.377,0,0,1,1.032-.222,2.469,2.469,0,0,1,.942.174,2.109,2.109,0,0,1,.732.492,2.152,2.152,0,0,1,.468.756,2.766,2.766,0,0,1,.162.966v1.428h.852a.3.3,0,0,1,.246.1.35.35,0,0,1,.078.228v.732a.408.408,0,0,1-.078.216.272.272,0,0,1-.246.12Zm-1.824-6.648a.671.671,0,0,1,.2-.492.7.7,0,0,1,.516-.2.7.7,0,0,1,.516.2.671.671,0,0,1,.2.492.671.671,0,0,1-.2.492.7.7,0,0,1-.516.2.7.7,0,0,1-.516-.2A.671.671,0,0,1-31.932-6.648Zm1.872,0a.671.671,0,0,1,.2-.492.7.7,0,0,1,.516-.2.7.7,0,0,1,.516.2.671.671,0,0,1,.2.492.671.671,0,0,1-.2.492.7.7,0,0,1-.516.2.7.7,0,0,1-.516-.2A.671.671,0,0,1-30.06-6.648Zm9,5.256H-19.9a.294.294,0,0,1,.258.1.392.392,0,0,1,.066.228v.732a.408.408,0,0,1-.078.216A.272.272,0,0,1-19.9,0h-7.26a.294.294,0,0,1-.258-.1.372.372,0,0,1-.066-.216V-1.02a.455.455,0,0,1,.078-.252.272.272,0,0,1,.246-.12h1.524a2.529,2.529,0,0,1-.2-.438,2.284,2.284,0,0,1-.114-.786,2.507,2.507,0,0,1,.192-.96,2.6,2.6,0,0,1,.54-.828,2.677,2.677,0,0,1,.846-.582,2.667,2.667,0,0,1,1.1-.222,2.375,2.375,0,0,1,.912.168,1.975,1.975,0,0,1,.7.474,2.1,2.1,0,0,1,.444.738,2.81,2.81,0,0,1,.156.96Zm-1.38,0V-2.928a1.093,1.093,0,0,0-.054-.336.867.867,0,0,0-.174-.306.89.89,0,0,0-.3-.222,1.047,1.047,0,0,0-.444-.084,1.1,1.1,0,0,0-.438.09,1.177,1.177,0,0,0-.372.252,1.206,1.206,0,0,0-.258.39,1.319,1.319,0,0,0-.1.516,1.189,1.189,0,0,0,.168.678,1.341,1.341,0,0,0,.372.378,1.286,1.286,0,0,0,.552.18Zm-1.68-5.256a.661.661,0,0,1,.21-.492.7.7,0,0,1,.51-.2.72.72,0,0,1,.522.2.661.661,0,0,1,.21.492.661.661,0,0,1-.21.492.72.72,0,0,1-.522.2.7.7,0,0,1-.51-.2A.661.661,0,0,1-24.12-6.648ZM-19.968,0q-.2,0-.264-.1a.4.4,0,0,1-.06-.216V-1.02a.455.455,0,0,1,.078-.252.272.272,0,0,1,.246-.12h1.152a.364.364,0,0,0,.354-.168.971.971,0,0,0,.09-.456v-2.76H-17V-2.5a1.308,1.308,0,0,0,.228.792.963.963,0,0,0,.828.312h.42q.2,0,.264.1a.421.421,0,0,1,.06.228v.732a.408.408,0,0,1-.078.216.272.272,0,0,1-.246.12h-.456a1.324,1.324,0,0,1-.846-.252A1.889,1.889,0,0,1-17.316-.8a1.67,1.67,0,0,1-.57.576,1.612,1.612,0,0,1-.87.228Zm.624,1.512a.651.651,0,0,1,.2-.486.711.711,0,0,1,.516-.2.711.711,0,0,1,.516.2.651.651,0,0,1,.2.486.665.665,0,0,1-.2.5.711.711,0,0,1-.516.2.711.711,0,0,1-.516-.2A.665.665,0,0,1-19.344,1.512Zm1.86,0a.651.651,0,0,1,.2-.486.711.711,0,0,1,.516-.2.711.711,0,0,1,.516.2.651.651,0,0,1,.2.486.665.665,0,0,1-.2.5.711.711,0,0,1-.516.2.711.711,0,0,1-.516-.2A.665.665,0,0,1-17.484,1.512Zm8.928-3.588a2.844,2.844,0,0,0-.108-.846,1.355,1.355,0,0,0-.306-.546,1.14,1.14,0,0,0-.48-.294,2.024,2.024,0,0,0-.618-.09,2.039,2.039,0,0,0-.8.174,2.67,2.67,0,0,0-.756.492,2.9,2.9,0,0,0-.594.774,2.9,2.9,0,0,0-.318,1.02h3.984ZM-15.6,0a.3.3,0,0,1-.252-.1.351.351,0,0,1-.072-.216V-1.02a.455.455,0,0,1,.078-.252.272.272,0,0,1,.246-.12h1.656v-7.2h1.38V-3.78a3.425,3.425,0,0,1,1.212-1.044,3.145,3.145,0,0,1,1.44-.36,2.872,2.872,0,0,1,1.182.228,2.428,2.428,0,0,1,.858.63,2.659,2.659,0,0,1,.522.954,3.973,3.973,0,0,1,.174,1.2V0Zm4.968-6.648a.661.661,0,0,1,.21-.492.7.7,0,0,1,.51-.2.72.72,0,0,1,.522.2.661.661,0,0,1,.21.492.661.661,0,0,1-.21.492.72.72,0,0,1-.522.2.7.7,0,0,1-.51-.2A.661.661,0,0,1-10.632-6.648ZM-2.964,0A3.3,3.3,0,0,1-4.218-.21a2.312,2.312,0,0,1-.828-.552,2.1,2.1,0,0,1-.462-.774,2.754,2.754,0,0,1-.144-.876,3.11,3.11,0,0,1,.186-1.074,2.8,2.8,0,0,1,.522-.894,2.453,2.453,0,0,1,.8-.606,2.377,2.377,0,0,1,1.032-.222,2.5,2.5,0,0,1,.954.174,2.049,2.049,0,0,1,.726.492,2.2,2.2,0,0,1,.462.756A2.766,2.766,0,0,1-.8-2.82V-.18a3.279,3.279,0,0,1-.228,1.29,2.171,2.171,0,0,1-.642.864,2.7,2.7,0,0,1-.984.486,4.742,4.742,0,0,1-1.254.156q-.252,0-.558-.018a6.8,6.8,0,0,1-.678-.078l.1-1.344q.348.048.666.072t.534.024a4.026,4.026,0,0,0,.636-.048,1.452,1.452,0,0,0,.528-.186A1.072,1.072,0,0,0-2.316.654,1.463,1.463,0,0,0-2.148,0Zm.8-1.392V-2.46a1.747,1.747,0,0,0-.27-1.05.88.88,0,0,0-.75-.366.989.989,0,0,0-.414.09,1.222,1.222,0,0,0-.36.252,1.206,1.206,0,0,0-.258.39,1.319,1.319,0,0,0-.1.516,1.355,1.355,0,0,0,.108.57,1.08,1.08,0,0,0,.288.384,1.1,1.1,0,0,0,.42.216A1.847,1.847,0,0,0-3-1.392Z" transform="translate(-18712 -7510)"/></g></svg>