<?xml version="1.0" encoding="UTF-8"?>
<svg viewBox="0 0 44.558 38.988" xmlns="http://www.w3.org/2000/svg">
<defs>
<linearGradient id="a" x1="1.107" x2=".5" y1="-.299" y2="1">
<stop stop-color="#1bcbff" offset="0"/>
<stop stop-color="#9538ff" offset="1"/>
</linearGradient>
</defs>
<path transform="translate(0 -2.25)" d="M2.785,38.453A2.782,2.782,0,0,0,5.57,41.238H19.494V27.314H2.785Zm22.279,2.785H38.988a2.782,2.782,0,0,0,2.785-2.785V27.314H25.064ZM41.773,13.39H38.109a7.588,7.588,0,0,0,.879-3.481A7.67,7.67,0,0,0,31.33,2.25c-3.62,0-5.961,1.854-8.964,5.944-3-4.09-5.343-5.944-8.964-5.944A7.67,7.67,0,0,0,5.744,9.908a7.482,7.482,0,0,0,.879,3.481H2.785A2.782,2.782,0,0,0,0,16.174v6.962a1.4,1.4,0,0,0,1.392,1.392H43.166a1.4,1.4,0,0,0,1.392-1.392V16.174A2.782,2.782,0,0,0,41.773,13.39Zm-28.38,0a3.481,3.481,0,1,1,0-6.962c1.732,0,3.011.287,7.493,6.962H13.394Zm17.936,0H23.837c4.473-6.658,5.718-6.962,7.493-6.962a3.481,3.481,0,0,1,0,6.962Z" fill="url(#a)"/>
</svg>
