<svg xmlns="http://www.w3.org/2000/svg" xmlns:xlink="http://www.w3.org/1999/xlink" width="128.492" height="45.934" viewBox="0 0 128.492 45.934"><defs><style>.a,.d{fill:#585f69;}.a{clip-rule:evenodd;}.b{clip-path:url(#a);}.c{fill:#1bcbff;}</style><clipPath id="a"><path class="a" d="M621.1,408.5c-1.3-1.931-.65-3.5,1.414-3.5h9.747c2.08,0,2.734,1.576,1.442,3.5l-3.087,2.77,7.185,31.88-10.4,7.787L617,443.147l7.185-31.88Z" transform="translate(-617 -405)"/></clipPath></defs><g transform="translate(18689.4 2637.744)"><g class="b" transform="translate(-18581.707 -2637.744)"><path class="c" d="M.008.015,23.319,0l-.008,12.228L0,12.243Z" transform="matrix(-0.799, 0.602, -0.602, -0.799, 22.818, 1.414)"/><path class="d" d="M.889.024,37.838,0c.489,0,.886.266.886.594l0,3.278c0,.328-.4.595-.886.6L.886,4.491C.4,4.491,0,4.225,0,3.9L0,.619C0,.291.4.025.889.024Z" transform="matrix(-0.799, 0.602, -0.602, -0.799, 26.003, 10.722)"/><path class="c" d="M.889.024,37.838,0c.489,0,.886.266.886.594l0,3.278c0,.328-.4.595-.886.6L.886,4.491C.4,4.491,0,4.225,0,3.9L0,.619C0,.291.4.025.889.024Z" transform="matrix(-0.799, 0.602, -0.602, -0.799, 26.003, 22.472)"/><path class="d" d="M.889.024,37.838,0c.489,0,.886.266.886.594l0,3.278c0,.328-.4.595-.886.6L.886,4.491C.4,4.491,0,4.225,0,3.9L0,.619C0,.291.4.025.889.024Z" transform="matrix(-0.799, 0.602, -0.602, -0.799, 26.003, 34.222)"/></g><g transform="translate(-18689.4 -2637.744)"><path class="d" d="M257.9,376.15a4.359,4.359,0,0,0,3.258,1.1v1.993q-3.851,0-5.2-2.8a5.136,5.136,0,0,1-2.194,2.087,7.427,7.427,0,0,1-3.379.714H243.2a10.878,10.878,0,0,1-4.16-.767,6.654,6.654,0,0,1-2.989-2.356,6.755,6.755,0,0,1-1.117-3.984,13.471,13.471,0,0,1,.673-3.932h2.073a11.771,11.771,0,0,0-.619,3.554,4.941,4.941,0,0,0,1.723,4.133,6.911,6.911,0,0,0,4.416,1.359h7.188q4.362,0,4.362-4.442V359.484h2.073v13.327A4.608,4.608,0,0,0,257.9,376.15Zm-8.67-7.969H242.5v-1.912h.862a3.011,3.011,0,0,1-.256-3.581,3.366,3.366,0,0,1,1.293-1.158,3.859,3.859,0,0,1,1.817-.431,5.042,5.042,0,0,1,2.208.566l-.889,1.75a3.263,3.263,0,0,0-1.319-.3,1.586,1.586,0,0,0-1.131.4,1.374,1.374,0,0,0-.431,1.05,1.561,1.561,0,0,0,.525,1.239,1.915,1.915,0,0,0,1.306.457h2.746Z" transform="translate(-234.93 -359.484)"/><path class="d" d="M275.047,387.964a1.264,1.264,0,0,1,.835-.27h5.385v1.993h-5.385a1.247,1.247,0,0,1-.848-.269.915.915,0,0,1-.31-.727A.9.9,0,0,1,275.047,387.964Z" transform="translate(-249.658 -369.925)"/><path class="d" d="M283.6,387.964a1.263,1.263,0,0,1,.835-.27h5.385v1.993h-5.385a1.245,1.245,0,0,1-.848-.269.913.913,0,0,1-.31-.727A.9.9,0,0,1,283.6,387.964Z" transform="translate(-252.823 -369.925)"/><path class="d" d="M296.325,377.352a4.359,4.359,0,0,0,3.258,1.1v1.993q-3.851,0-5.2-2.8a5.133,5.133,0,0,1-2.194,2.087,7.424,7.424,0,0,1-3.379.714,1.186,1.186,0,0,1-.835-.3.976.976,0,0,1-.323-.754.846.846,0,0,1,.31-.686,1.292,1.292,0,0,1,.848-.256q4.362,0,4.362-4.442v-5.95h2.073v5.95A4.608,4.608,0,0,0,296.325,377.352Zm-15.382-12.492a1.214,1.214,0,0,1-.377-.888,1.173,1.173,0,0,1,.377-.876,1.239,1.239,0,0,1,.889-.363,1.241,1.241,0,0,1,1.238,1.239,1.236,1.236,0,0,1-.363.888,1.172,1.172,0,0,1-.875.377A1.215,1.215,0,0,1,280.944,364.859Zm4.308,0a1.214,1.214,0,0,1-.377-.888,1.174,1.174,0,0,1,.377-.876,1.24,1.24,0,0,1,.889-.363,1.241,1.241,0,0,1,1.238,1.239,1.236,1.236,0,0,1-.363.888,1.172,1.172,0,0,1-.875.377A1.215,1.215,0,0,1,285.251,364.859Z" transform="translate(-251.821 -360.686)"/><path class="d" d="M327.483,369.285a7.175,7.175,0,0,1,2.867,2.773,7.893,7.893,0,0,1,1.024,4.012v6.435h-21.3a1.246,1.246,0,0,1-.848-.27.914.914,0,0,1-.309-.727.9.9,0,0,1,.322-.727,1.264,1.264,0,0,1,.835-.27H312.5V368.29h2.046v5.331a9.009,9.009,0,0,1,3.433-3.9,9.8,9.8,0,0,1,5.318-1.427A8.677,8.677,0,0,1,327.483,369.285Zm1.817,6.785a5.554,5.554,0,0,0-1.588-4.147,5.957,5.957,0,0,0-4.362-1.562,9.01,9.01,0,0,0-4.308,1.063,8.873,8.873,0,0,0-3.217,2.868,7.449,7.449,0,0,0-1.306,3.985v2.234H329.3Z" transform="translate(-262.315 -362.743)"/><path class="d" d="M356.869,383.581H353.88v1.05a5.68,5.68,0,0,1-.969,3.621,3.583,3.583,0,0,1-2.962,1.2,10.133,10.133,0,0,1-2.477-.35l.431-1.857a8.524,8.524,0,0,0,1.7.215,2.029,2.029,0,0,0,1.669-.659,3.442,3.442,0,0,0,.539-2.167V371.2h2.073v10.392h2.989Z" transform="translate(-276.584 -363.818)"/><path class="d" d="M377.244,379.689H361.71a1.291,1.291,0,0,1-.848-.256.873.873,0,0,1-.309-.713.939.939,0,0,1,.309-.767,1.294,1.294,0,0,1,.848-.256h4.415a5.83,5.83,0,0,1-1.561-2.248,7.757,7.757,0,0,1,.35-6.327,6.392,6.392,0,0,1,2.759-2.639,10.365,10.365,0,0,1,4.887-1.01h4.684Zm-2.073-12.143h-2.666q-3.366,0-4.887,1.468a4.863,4.863,0,0,0-1.521,3.648,4.733,4.733,0,0,0,1.521,3.607q1.521,1.428,4.941,1.427h2.611Zm-5.385-4.739a1.211,1.211,0,0,1-.377-.888,1.169,1.169,0,0,1,.377-.875,1.237,1.237,0,0,1,.889-.363,1.242,1.242,0,0,1,1.238,1.238,1.234,1.234,0,0,1-.364.888,1.168,1.168,0,0,1-.874.377A1.213,1.213,0,0,1,369.787,362.808Z" transform="translate(-281.424 -359.927)"/><path class="d" d="M4.009-16.593q3.1,0,4.416.135l-.1,1.427H4.57a.984.984,0,0,0-.691.191.923.923,0,0,0-.2.674v2H7.762v1.461H3.683V-6.2h-1.9v-8.349a1.915,1.915,0,0,1,.6-1.511A2.357,2.357,0,0,1,4.009-16.593Zm17.225.022v6.315a4.859,4.859,0,0,1-.876,3.287,3.922,3.922,0,0,1-3,.961,4.189,4.189,0,0,1-3.129-.966,4.713,4.713,0,0,1-.916-3.281v-6.315h1.876v6.315a3.449,3.449,0,0,0,.455,2.067,1.985,1.985,0,0,0,1.635.573,1.936,1.936,0,0,0,1.607-.573,3.483,3.483,0,0,0,.449-2.067v-6.315Zm9.382-.135a4.5,4.5,0,0,1,2.781.657,2.93,2.93,0,0,1,.815,2.388,3.165,3.165,0,0,1-.449,1.832,2.026,2.026,0,0,1-1.483.775v.079a1.689,1.689,0,0,1,.815.478,2.366,2.366,0,0,1,.567,1.051L34.594-6.2h-2l-.831-3.214a1.269,1.269,0,0,0-.421-.719,1.259,1.259,0,0,0-.77-.213l-1.865-.011V-6.2H26.841V-16.571Q28.268-16.705,30.616-16.705Zm-1.91,1.551V-11.9h1.865a2.029,2.029,0,0,0,1.365-.348,1.753,1.753,0,0,0,.376-1.3,1.688,1.688,0,0,0-.371-1.275,2.1,2.1,0,0,0-1.371-.331Zm14.079-1.6a13.446,13.446,0,0,1,3.258.348l-.124,1.337q-1.427-.056-3.079-.056a3.087,3.087,0,0,0-1.371.2q-.348.2-.348.978a1.334,1.334,0,0,0,.247.916,2.111,2.111,0,0,0,.91.466l1.989.618a2.937,2.937,0,0,1,1.657,1.1A3.46,3.46,0,0,1,46.4-8.919a4.589,4.589,0,0,1-.191,1.449,1.732,1.732,0,0,1-.657.888,2.8,2.8,0,0,1-1.124.444,9.97,9.97,0,0,1-1.7.118,17.6,17.6,0,0,1-3.371-.326l.124-1.382q2.461.056,3.292.056a2.693,2.693,0,0,0,1.376-.236q.343-.236.343-1.022a1.4,1.4,0,0,0-.23-.927,1.942,1.942,0,0,0-.86-.444l-2.09-.663a2.868,2.868,0,0,1-1.6-1.079,3.4,3.4,0,0,1-.489-1.921,4.363,4.363,0,0,1,.2-1.438,1.62,1.62,0,0,1,.663-.848,2.844,2.844,0,0,1,1.084-.4A10.409,10.409,0,0,1,42.785-16.75Zm11.517.18h1.832a.65.65,0,0,1,.674.506L59.92-6.2H58l-.865-2.933H53.291L52.437-6.2H50.515l3.1-9.865A.679.679,0,0,1,54.3-16.571Zm.719,1.427-.247.888L53.74-10.672h2.944L55.65-14.256q-.191-.7-.225-.888Zm16.911.191H68.741V-6.2h-1.9v-8.753H63.673v-1.618h8.259Zm7.562-1.618h1.832a.65.65,0,0,1,.674.506L85.112-6.2H83.19l-.865-2.933H78.482L77.628-6.2H75.707l3.1-9.865A.679.679,0,0,1,79.494-16.571Zm.719,1.427-.247.888-1.034,3.584h2.944l-1.034-3.584q-.191-.7-.225-.888Zm17.169-1.427-2.8,4.18a3.594,3.594,0,0,1-.685.787v.045a3.431,3.431,0,0,1,.809.888L97.584-6.2H95.472l-2.966-4.674H91.483a5.313,5.313,0,0,1,.1,1.022V-6.2H89.707V-16.571h1.876v3.056a7.035,7.035,0,0,1-.1,1.2h1.023l2.832-4.259Z" transform="translate(-0.66 51.592)"/></g></g></svg>