<?xml version="1.0" encoding="UTF-8"?>
<svg viewBox="0 0 40.25 28.229" xmlns="http://www.w3.org/2000/svg">
<path transform="translate(-2.354 -5.758)" d="M4.406,9.9H7.8a2.073,2.073,0,0,0,0-4.146H4.406a2.073,2.073,0,0,0,0,4.146Zm0,12.042H7.8a2.073,2.073,0,1,0,0-4.146H4.406a2.073,2.073,0,0,0,0,4.146Zm0,12.042H7.8a2.078,2.078,0,0,0,2.073-2.073A2.047,2.047,0,0,0,7.8,29.862H4.406a2.042,2.042,0,0,0-2.052,2.052A2.074,2.074,0,0,0,4.406,33.987Z" fill="#0091ff"/>
<path transform="translate(-.625 -5.702)" d="M14.133,9.472H39.179a1.7,1.7,0,0,0,0-3.393H14.133a1.7,1.7,0,1,0,0,3.393Zm0,12.042H39.179a1.7,1.7,0,0,0,0-3.393H14.133a1.7,1.7,0,1,0,0,3.393Zm0,12.042H39.179a1.7,1.7,0,0,0,0-3.393H14.133a1.7,1.7,0,1,0,0,3.393Z" fill="#0091ff"/>
</svg>
