<?xml version="1.0" encoding="UTF-8"?>
<svg viewBox="0 0 125.18 44.748" xmlns="http://www.w3.org/2000/svg">
<defs>
<style>.a{clip-rule:evenodd;}.b{clip-path:url(#a);}.c{fill:#1bcbff;}.d{fill:#fff;}</style>
<clipPath id="a">
<path class="a" transform="translate(-617 -405)" d="m620.99 408.41c-1.266-1.881-0.634-3.407 1.377-3.407h9.5c2.026 0 2.664 1.535 1.4 3.407l-3.007 2.7 7 31.057-10.131 7.586-10.131-7.588 7-31.057z"/>
</clipPath>
</defs>
<g transform="translate(18689 2637.7)">
<g class="b" transform="translate(-18584 -2637.7)">
<path class="c" transform="matrix(-.799 .602 -.602 -.799 22.229 1.377)" d="M.008.015,22.717,0l-.008,11.912L0,11.927Z"/>
<path class="d" transform="matrix(-.799 .602 -.602 -.799 25.332 10.445)" d="M.866.024l36-.024c.477,0,.863.259.863.579l0,3.193c0,.32-.387.579-.864.58l-36,.024C.386,4.375,0,4.116,0,3.8L0,.6C0,.284.389.024.866.024Z"/>
<path class="c" transform="matrix(-.799 .602 -.602 -.799 25.332 21.892)" d="M.866.024l36-.024c.477,0,.863.259.863.579l0,3.193c0,.32-.387.579-.864.58l-36,.024C.386,4.375,0,4.116,0,3.8L0,.6C0,.284.389.024.866.024Z"/>
<path class="d" transform="matrix(-.799 .602 -.602 -.799 25.332 33.338)" d="M.866.024l36-.024c.477,0,.863.259.863.579l0,3.193c0,.32-.387.579-.864.58l-36,.024C.386,4.375,0,4.116,0,3.8L0,.6C0,.284.389.024.866.024Z"/>
</g>
<g transform="translate(-18689 -2637.7)">
<path class="d" transform="translate(-234.93 -359.48)" d="M257.3,375.72a4.246,4.246,0,0,0,3.174,1.075v1.942q-3.752,0-5.062-2.728a5,5,0,0,1-2.137,2.033,7.235,7.235,0,0,1-3.292.7h-7a10.6,10.6,0,0,1-4.052-.747,6.483,6.483,0,0,1-2.912-2.3,6.58,6.58,0,0,1-1.089-3.881,13.123,13.123,0,0,1,.656-3.83h2.019a11.467,11.467,0,0,0-.6,3.463,4.813,4.813,0,0,0,1.679,4.026,6.733,6.733,0,0,0,4.3,1.324h7q4.25,0,4.249-4.327V359.484h2.019v12.983A4.489,4.489,0,0,0,257.3,375.72Zm-8.446-7.764H242.3v-1.862h.84a2.934,2.934,0,0,1-.249-3.488,3.279,3.279,0,0,1,1.259-1.128,3.76,3.76,0,0,1,1.77-.42,4.911,4.911,0,0,1,2.151.551l-.866,1.7a3.178,3.178,0,0,0-1.285-.288,1.545,1.545,0,0,0-1.1.393,1.338,1.338,0,0,0-.42,1.023,1.521,1.521,0,0,0,.511,1.207,1.866,1.866,0,0,0,1.272.445h2.675Z"/>
<path class="d" transform="translate(-250.31 -370.38)" d="M275.039,387.957a1.231,1.231,0,0,1,.813-.263H281.1v1.941h-5.246a1.215,1.215,0,0,1-.826-.263.891.891,0,0,1-.3-.708A.874.874,0,0,1,275.039,387.957Z"/>
<path class="d" transform="translate(-253.61 -370.38)" d="M283.588,387.957a1.231,1.231,0,0,1,.813-.263h5.246v1.941H284.4a1.213,1.213,0,0,1-.826-.263.889.889,0,0,1-.3-.708A.874.874,0,0,1,283.588,387.957Z"/>
<path class="d" transform="translate(-252.56 -360.74)" d="M295.919,376.974a4.247,4.247,0,0,0,3.174,1.075v1.942q-3.752,0-5.062-2.728a5,5,0,0,1-2.137,2.033,7.232,7.232,0,0,1-3.292.7,1.156,1.156,0,0,1-.813-.289.951.951,0,0,1-.315-.735.824.824,0,0,1,.3-.668,1.259,1.259,0,0,1,.826-.25q4.25,0,4.249-4.327v-5.8h2.019v5.8A4.489,4.489,0,0,0,295.919,376.974ZM280.934,364.8a1.182,1.182,0,0,1-.367-.865,1.143,1.143,0,0,1,.367-.853,1.207,1.207,0,0,1,.866-.354,1.209,1.209,0,0,1,1.206,1.207,1.2,1.2,0,0,1-.354.865,1.142,1.142,0,0,1-.852.367A1.183,1.183,0,0,1,280.934,364.8Zm4.2,0a1.182,1.182,0,0,1-.367-.865,1.143,1.143,0,0,1,.367-.853,1.208,1.208,0,0,1,.866-.354,1.209,1.209,0,0,1,1.206,1.207,1.2,1.2,0,0,1-.354.865,1.141,1.141,0,0,1-.852.367A1.184,1.184,0,0,1,285.13,364.8Z"/>
<path class="d" transform="translate(-263.52 -362.89)" d="M327,369.26a6.989,6.989,0,0,1,2.793,2.7,7.69,7.69,0,0,1,1,3.908v6.269H310.047a1.214,1.214,0,0,1-.826-.263.891.891,0,0,1-.3-.708.876.876,0,0,1,.314-.708,1.232,1.232,0,0,1,.813-.263h2.361V368.29H314.4v5.193a8.776,8.776,0,0,1,3.344-3.8,9.543,9.543,0,0,1,5.18-1.39A8.453,8.453,0,0,1,327,369.26Zm1.77,6.61a5.411,5.411,0,0,0-1.547-4.04,5.8,5.8,0,0,0-4.249-1.521,8.777,8.777,0,0,0-4.2,1.036,8.644,8.644,0,0,0-3.134,2.794,7.256,7.256,0,0,0-1.272,3.882V380.2h14.4Z"/>
<path class="d" transform="translate(-278.41 -364.01)" d="M356.627,383.261h-2.912v1.023a5.534,5.534,0,0,1-.944,3.527,3.491,3.491,0,0,1-2.885,1.167,9.872,9.872,0,0,1-2.413-.341l.42-1.81a8.3,8.3,0,0,0,1.652.209,1.976,1.976,0,0,0,1.626-.642,3.353,3.353,0,0,0,.525-2.111V371.2h2.019v10.124h2.912Z"/>
<path class="d" transform="translate(-283.47 -359.95)" d="M376.813,379.2H361.68a1.257,1.257,0,0,1-.827-.25.851.851,0,0,1-.3-.695.915.915,0,0,1,.3-.747,1.26,1.26,0,0,1,.827-.25h4.3a5.68,5.68,0,0,1-1.521-2.19,7.557,7.557,0,0,1,.341-6.163,6.226,6.226,0,0,1,2.688-2.571,10.1,10.1,0,0,1,4.761-.984h4.564Zm-2.02-11.829h-2.6q-3.279,0-4.761,1.43a4.738,4.738,0,0,0-1.482,3.554,4.611,4.611,0,0,0,1.482,3.514q1.482,1.391,4.813,1.39h2.544Zm-5.246-4.616a1.18,1.18,0,0,1-.367-.865,1.138,1.138,0,0,1,.367-.852,1.205,1.205,0,0,1,.866-.354,1.21,1.21,0,0,1,1.206,1.206,1.2,1.2,0,0,1-.355.865,1.138,1.138,0,0,1-.852.368A1.182,1.182,0,0,1,369.548,362.753Z"/>
<path class="d" transform="translate(-.689 50.693)" d="M3.951-16.6q3.021,0,4.3.131l-.1,1.39H4.5a.958.958,0,0,0-.673.186.9.9,0,0,0-.192.657v1.948H7.607v1.423H3.634v4.389H1.784V-14.6a1.866,1.866,0,0,1,.586-1.472A2.3,2.3,0,0,1,3.951-16.6Zm16.78.022v6.152a4.734,4.734,0,0,1-.854,3.2,3.82,3.82,0,0,1-2.923.936,4.081,4.081,0,0,1-3.048-.941,4.592,4.592,0,0,1-.892-3.2v-6.152h1.828v6.152a3.36,3.36,0,0,0,.443,2.014,1.934,1.934,0,0,0,1.593.558,1.886,1.886,0,0,0,1.565-.558,3.393,3.393,0,0,0,.438-2.014v-6.152Zm9.14-.131a4.387,4.387,0,0,1,2.709.64,2.855,2.855,0,0,1,.794,2.326,3.083,3.083,0,0,1-.438,1.784,1.973,1.973,0,0,1-1.445.755v.077a1.646,1.646,0,0,1,.794.465,2.305,2.305,0,0,1,.553,1.023l.909,3.163H31.8L30.988-9.6a1.236,1.236,0,0,0-.41-.7,1.227,1.227,0,0,0-.75-.208l-1.817-.011v4.05H26.194v-10.1Q27.584-16.707,29.872-16.707ZM28.011-15.2v3.174h1.817a1.977,1.977,0,0,0,1.33-.339,1.708,1.708,0,0,0,.367-1.27,1.644,1.644,0,0,0-.361-1.242,2.049,2.049,0,0,0-1.335-.323ZM41.726-16.75a13.1,13.1,0,0,1,3.174.339l-.12,1.3q-1.39-.055-3-.055a3.008,3.008,0,0,0-1.335.2q-.339.2-.339.952a1.3,1.3,0,0,0,.241.892,2.056,2.056,0,0,0,.887.454l1.937.6a2.862,2.862,0,0,1,1.615,1.073,3.371,3.371,0,0,1,.465,1.872,4.471,4.471,0,0,1-.186,1.412,1.687,1.687,0,0,1-.64.865,2.725,2.725,0,0,1-1.095.432,9.712,9.712,0,0,1-1.658.115,17.15,17.15,0,0,1-3.284-.317l.12-1.346q2.4.055,3.207.055a2.623,2.623,0,0,0,1.341-.23q.334-.23.334-1a1.362,1.362,0,0,0-.224-.9,1.892,1.892,0,0,0-.837-.432l-2.036-.646a2.794,2.794,0,0,1-1.56-1.051,3.311,3.311,0,0,1-.476-1.872,4.25,4.25,0,0,1,.192-1.4,1.578,1.578,0,0,1,.646-.826,2.77,2.77,0,0,1,1.056-.389A10.14,10.14,0,0,1,41.726-16.75Zm11.22.175H54.73a.633.633,0,0,1,.657.493l3.032,9.611H56.547L55.7-9.329H51.961l-.832,2.857H49.257l3.021-9.611A.662.662,0,0,1,52.946-16.575Zm.7,1.39-.241.865L52.4-10.828h2.868L54.26-14.32q-.186-.679-.219-.865ZM70.121-15H67.012v8.527h-1.85V-15H62.075v-1.576h8.045Zm7.367-1.576h1.784a.633.633,0,0,1,.657.493L82.96-6.472H81.089l-.843-2.857H76.5L75.67-6.472H73.8l3.021-9.611A.661.661,0,0,1,77.487-16.575Zm.7,1.39-.241.865L76.94-10.828h2.868L78.8-14.32q-.186-.679-.219-.865Zm16.726-1.39L92.188-12.5a3.5,3.5,0,0,1-.668.766v.044a3.342,3.342,0,0,1,.788.865l2.8,4.357H93.053l-2.89-4.554h-1a5.177,5.177,0,0,1,.1,1v3.557H87.437v-10.1h1.828V-13.6a6.854,6.854,0,0,1-.1,1.171h1l2.758-4.149Z"/>
</g>
</g>
</svg>
