<?xml version="1.0" encoding="UTF-8"?>
<svg viewBox="0 0 145 145" xmlns="http://www.w3.org/2000/svg">
<path transform="translate(-1.65 -2.867)" d="M74.188,147.867c39.634,0,72.463-32.829,72.463-72.537,0-39.634-32.9-72.463-72.537-72.463S1.65,35.7,1.65,75.33C1.65,115.038,34.554,147.867,74.188,147.867Zm0-113.667c13.61,0,24.379,11.89,24.379,26.248,0,15.255-10.694,26.921-24.379,26.772C60.5,87.145,49.809,75.7,49.809,60.448,49.66,46.09,60.5,34.2,74.188,34.2Zm43,82.932.224.9c-10.843,11.591-27.145,18.247-43.223,18.247-16.153,0-32.455-6.656-43.223-18.247l.224-.9c6.282-8.6,21.387-17.8,43-17.8S110.905,108.532,117.187,117.132Z" fill="#707070"/>
</svg>
