<?xml version="1.0" encoding="UTF-8"?>
<svg viewBox="0 0 119.72 52" xmlns="http://www.w3.org/2000/svg">
<defs>
<linearGradient id="a" y1=".5" y2=".5">
<stop stop-color="#3a3f73" offset="0"/>
<stop stop-color="#179983" offset="1"/>
</linearGradient>
</defs>
<g transform="translate(-2 -1)" data-name="Layer 2">
<path transform="translate(17.806 5.097)" d="m75.878 21.63a239.43 239.43 0 0 1 28.034 7.17c-3.741 2.494-5.637 3.741-9.266 6.36 2.494 4.415 3.6 6.634 5.849 11.124a228.1 228.1 0 0 0-26.425-6.734z" fill="#b09242" data-name="Path 801"/>
<path transform="translate(17.806 5.097)" d="M75.878,21.63c5.313.9,10.638,2.083,15.875,3.492-.536,3.542-.811,5.313-1.359,8.854-5.5,1.671-10.9,3.5-16.324,5.549Z" fill="#654c1d" data-name="Path 802"/>
<path transform="translate(0 5.097)" d="M30.034,21.63A239.437,239.437,0,0,0,2,28.8c3.741,2.494,5.637,3.741,9.266,6.36-2.432,4.39-3.6,6.634-5.849,11.124A230,230,0,0,1,31.842,39.55Z" fill="#b09242" data-name="Path 803"/>
<path transform="translate(2.409 5.097)" d="M27.625,21.63c-5.313.9-10.638,2.083-15.875,3.492.536,3.542.811,5.313,1.359,8.854,5.5,1.671,10.9,3.5,16.324,5.549Z" fill="#654c1d" data-name="Path 804"/>
<path transform="translate(2.132 2.832)" d="m10.63 18.545a200.99 200.99 0 0 1 98.157 0c-1.085 7.058-1.671 10.613-2.719 17.7a190.45 190.45 0 0 0-92.72 0c-1.084-7.075-1.621-10.645-2.718-17.7z" fill="#d0b968" data-name="Path 805"/>
<circle transform="translate(36 1)" cx="26" cy="26" r="26" fill="#e7e7e7" data-name="Ellipse 73"/>
<circle transform="translate(59.315 24.657)" cx="2.532" cy="2.532" r="2.532" fill="#fff" data-name="Ellipse 74"/>
<path transform="translate(8.888 2.223)" d="M52.8,10a14.878,14.878,0,0,1,4.988.786A13.992,13.992,0,0,1,61.7,12.819a15.077,15.077,0,0,1,4.065,4.452,15.289,15.289,0,0,1,1.671,3.953,14.242,14.242,0,0,1,.5,3.878,15.576,15.576,0,0,1-.511,3.741,22.3,22.3,0,0,1-1.048,2.806,12.284,12.284,0,0,1-.91,1.5,13.069,13.069,0,0,1-2.332,2.831,13.556,13.556,0,0,1-1.9,1.459,13.991,13.991,0,0,1-2,1.072A13.556,13.556,0,0,1,55.9,39.643a16.536,16.536,0,0,1-3.417.249,11.935,11.935,0,0,1-2.719-.461c-.262-.075-.324-.187-.125-.436a6.235,6.235,0,0,0,1.01-1.559.6.6,0,0,1,.823-.387,8.28,8.28,0,0,0,2.419,0,10.551,10.551,0,0,0,1.808-.212,9.727,9.727,0,0,0,1.871-.636,11.623,11.623,0,0,0,2.407-1.26,10.451,10.451,0,0,0,2.694-2.494,12.733,12.733,0,0,0,2.02-4.2,11.111,11.111,0,0,0,.474-3.28,14,14,0,0,0-.686-3.953,11.872,11.872,0,0,0-2.706-4.465,11.523,11.523,0,0,0-2.12-1.758,11.81,11.81,0,0,0-5.263-1.958c-.648-.062-1.247,0-1.945-.062a8.729,8.729,0,0,0-2.407.337A12.471,12.471,0,0,0,45.052,15.7a11.947,11.947,0,0,0-3.3,4.277,14.068,14.068,0,0,0-.586,1.447,11.735,11.735,0,0,0-.461,2.494,14.466,14.466,0,0,0,.075,3.03,12.034,12.034,0,0,0,1.359,3.941c.312.524.624,1.11.137,1.7a1.309,1.309,0,0,1-2.232-.137,10.787,10.787,0,0,1-1.409-3.23,17.06,17.06,0,0,1-.624-3.28,15.651,15.651,0,0,1,.212-3.741,13.394,13.394,0,0,1,.736-2.569,17.821,17.821,0,0,1,1.808-3.317,13.406,13.406,0,0,1,2.843-3.03,16.312,16.312,0,0,1,3.853-2.195,14.69,14.69,0,0,1,3.853-.973C51.849,10,52.335,10.075,52.8,10Z" fill="#fefefe" data-name="Path 806"/>
<path transform="translate(7.072 .421)" d="m78.357 21.779a24 24 0 0 0-34.868-16.212 24.667 24.667 0 0 0-8.729 7.919 23.969 23.969 0 0 0-2.419 4.552 24.268 24.268 0 0 0 1.085 20.29 9.777 9.777 0 0 0 1.833 2.394 10.338 10.338 0 0 0 5.587 2.768 10.575 10.575 0 0 0 10.288-4.826c0.486-0.786 0.574-1.459 1.6-1.247a10.739 10.739 0 1 0-7.694-6.1 7.744 7.744 0 0 1 0.811 2.17 2.781 2.781 0 0 1-3.751 2.92 3.828 3.828 0 0 1-1.6-1.307 11.934 11.934 0 0 1-1.92-5.562 16.387 16.387 0 0 1 9.22-17.538 16.686 16.686 0 0 1 15.892 1.05c5.188 3.35 8.555 10.089 7.308 16.212a23.433 23.433 0 0 1-2.631 6.747 42.188 42.188 0 0 1-7.482 9.141c-0.923 0.9-1.858 1.771-2.806 2.631s-2.033 1.6-2.918 2.494c-0.549 0.561 0 0.511 0.574 0.511a11.311 11.311 0 0 0 1.833-0.112 25.477 25.477 0 0 0 3.492-0.711 23.582 23.582 0 0 0 5.938-2.494 23.969 23.969 0 0 0 11.482-16.012 25.116 25.116 0 0 0 0.412-3.192 24.418 24.418 0 0 0-0.537-6.486zm-40.692-11.223m17.123 12.258a3.941 3.941 0 1 1-2.807 1.15 3.953 3.953 0 0 1 2.807-1.15z" fill="url(#a)" data-name="Path 807"/>
</g>
</svg>
