<?xml version="1.0" encoding="UTF-8"?>
<svg viewBox="0 0 75.335 74.219" xmlns="http://www.w3.org/2000/svg">
<defs>
<style>.a{fill:#0091FF;}</style>
</defs>
<path class="a" transform="translate(-1.65 -2.071)" d="M39.318,71.726c.844,0,1.653-.07,2.532-.141l1.9,3.623a1.911,1.911,0,0,0,2.11,1.055,1.944,1.944,0,0,0,1.618-1.723l.563-4.009a35.423,35.423,0,0,0,4.783-1.723l2.954,2.673a1.946,1.946,0,0,0,2.392.281,2,2,0,0,0,.879-2.181l-.809-3.939a33.407,33.407,0,0,0,3.9-3.236L65.8,63.953a1.907,1.907,0,0,0,2.356-.633A1.851,1.851,0,0,0,68.334,61l-2.145-3.412a31.569,31.569,0,0,0,2.5-4.4l4.045.176a1.879,1.879,0,0,0,1.97-1.3A1.986,1.986,0,0,0,74,49.78l-3.165-2.5a28.5,28.5,0,0,0,.914-4.994l3.8-1.231a1.972,1.972,0,0,0,0-3.8l-3.8-1.231a29.106,29.106,0,0,0-.914-4.994L74,28.537a1.986,1.986,0,0,0,.7-2.251,1.879,1.879,0,0,0-1.97-1.3l-4.045.141a33.731,33.731,0,0,0-2.5-4.4l2.145-3.412a1.805,1.805,0,0,0-.176-2.286A1.951,1.951,0,0,0,65.8,14.4l-3.658,1.512a37.335,37.335,0,0,0-3.9-3.236l.809-3.9a1.956,1.956,0,0,0-.879-2.181,1.905,1.905,0,0,0-2.392.281L52.823,9.51A35.423,35.423,0,0,0,48.04,7.786l-.563-3.974a1.988,1.988,0,0,0-3.728-.7l-1.9,3.623c-.879-.07-1.688-.106-2.532-.106-.879,0-1.653.035-2.567.106L34.887,3.108a2.059,2.059,0,0,0-2.145-1.02,1.98,1.98,0,0,0-1.618,1.723l-.563,3.974A33.344,33.344,0,0,0,25.813,9.51L22.858,6.872a1.984,1.984,0,0,0-3.306,1.9l.844,3.9a31.251,31.251,0,0,0-3.9,3.236L12.8,14.4a1.951,1.951,0,0,0-2.356.633,1.854,1.854,0,0,0-.176,2.251l2.145,3.447a38.356,38.356,0,0,0-2.5,4.4l-4.045-.141A1.963,1.963,0,0,0,4.6,28.537l3.165,2.5a26.033,26.033,0,0,0-.879,4.994L3.057,37.259a1.985,1.985,0,0,0,0,3.8l3.834,1.231a25.56,25.56,0,0,0,.879,4.994L4.6,49.78a2.093,2.093,0,0,0-.7,2.286,1.932,1.932,0,0,0,1.97,1.3l4.045-.176a31.569,31.569,0,0,0,2.5,4.4L10.267,61a1.851,1.851,0,0,0,.176,2.321,1.907,1.907,0,0,0,2.356.633l3.693-1.548a28.457,28.457,0,0,0,3.9,3.236l-.844,3.939a1.984,1.984,0,0,0,3.306,1.9l2.919-2.673a35.423,35.423,0,0,0,4.783,1.723l.563,4.009a2,2,0,0,0,3.763.668l1.864-3.623C37.63,71.656,38.439,71.726,39.318,71.726Zm8.476-34.854c-1.583-4.22-4.748-6.542-8.582-6.542a9.591,9.591,0,0,0-2.286.317l-9.355-16A26.866,26.866,0,0,1,66.048,36.872ZM12.483,39.193A27.248,27.248,0,0,1,23.491,17.071l9.426,16.108a8.835,8.835,0,0,0-2.6,6.12,8.543,8.543,0,0,0,2.6,6.014L23.28,61.1A27.1,27.1,0,0,1,12.483,39.193Zm22.72.07a4.08,4.08,0,1,1,4.045,4.045A4.139,4.139,0,0,1,35.2,39.264ZM39.318,66.38A26.633,26.633,0,0,1,27.325,63.6l9.6-15.686a9.377,9.377,0,0,0,2.286.317c3.869,0,7.034-2.392,8.582-6.682H66.048A26.677,26.677,0,0,1,39.318,66.38Z"/>
</svg>
