<?xml version="1.0" encoding="UTF-8"?>
<svg viewBox="0 0 39.717 41.391" xmlns="http://www.w3.org/2000/svg">
<defs>
<style>.a{fill:#fb0;}</style>
</defs>
<path class="a" transform="translate(-2.354 -2.096)" d="M22.221,9.391a1.5,1.5,0,0,0,1.437-1.583V3.66a1.451,1.451,0,1,0-2.893,0V7.809A1.492,1.492,0,0,0,22.221,9.391ZM31.1,13.067a1.525,1.525,0,0,0,2.147-.091l2.929-2.929A1.457,1.457,0,1,0,34.12,7.991L31.191,10.92A1.509,1.509,0,0,0,31.1,13.067Zm-17.757,0a1.525,1.525,0,0,0-.091-2.147L10.3,7.991a1.47,1.47,0,0,0-2.129-.073,1.486,1.486,0,0,0,.073,2.129L11.2,12.976A1.509,1.509,0,0,0,13.343,13.067ZM4.737,29.587h34.9a1.11,1.11,0,1,0,0-2.22H29.754a9.105,9.105,0,0,0,1.783-5.44,9.324,9.324,0,1,0-18.649,0,9.12,9.12,0,0,0,1.8,5.44H4.737a1.11,1.11,0,0,0,0,2.22Zm31.621-6.659h4.148a1.451,1.451,0,1,0,0-2.893H36.358a1.452,1.452,0,1,0,0,2.893Zm-32.422,0H8.085A1.478,1.478,0,0,0,9.667,21.49a1.514,1.514,0,0,0-1.583-1.456H3.936a1.452,1.452,0,1,0,0,2.893ZM6.247,35.154a.892.892,0,1,0-.91-.91A.894.894,0,0,0,6.247,35.154Zm7.278,0a.892.892,0,1,0-.91-.91A.894.894,0,0,0,13.525,35.154Zm21.815,0a.892.892,0,1,0-.91-.91A.894.894,0,0,0,35.339,35.154Zm-14.555,0a.892.892,0,1,0-.892-.91A.9.9,0,0,0,20.784,35.154Zm7.278,0a.892.892,0,1,0-.91-.91A.894.894,0,0,0,28.062,35.154ZM40.4,39.321a.892.892,0,1,0-.891-.892A.893.893,0,0,0,40.4,39.321Zm-7.259,0a.892.892,0,1,0-.91-.892A.889.889,0,0,0,33.138,39.321Zm-7.278,0a.892.892,0,1,0,0-1.783.892.892,0,0,0,0,1.783Zm-7.278,0a.892.892,0,1,0-.892-.892A.893.893,0,0,0,18.583,39.321Zm-7.259,0a.892.892,0,1,0-.91-.892A.889.889,0,0,0,11.323,39.321Zm-7.278,0a.892.892,0,0,0,0-1.783.892.892,0,0,0,0,1.783Zm26.891,4.166a.9.9,0,0,0,.892-.91.878.878,0,0,0-.892-.873.866.866,0,0,0-.892.873A.886.886,0,0,0,30.936,43.487Zm7.278,0a.894.894,0,0,0,.873-.91.892.892,0,0,0-1.783,0A.9.9,0,0,0,38.214,43.487Zm-14.555,0a.9.9,0,0,0,.892-.91.892.892,0,0,0-1.783,0A.9.9,0,0,0,23.659,43.487Zm-7.259,0a.894.894,0,0,0,.873-.91.892.892,0,0,0-1.783,0A.9.9,0,0,0,16.4,43.487Zm-7.278,0a.9.9,0,0,0,.892-.91.878.878,0,0,0-.892-.873.866.866,0,0,0-.892.873A.886.886,0,0,0,9.122,43.487Z"/>
</svg>
