<?xml version="1.0" encoding="UTF-8"?>
<svg viewBox="0 0 52.592 52.592" xmlns="http://www.w3.org/2000/svg">
<g transform="translate(-40 -40)">
<path transform="translate(40 40)" d="M52.592,27.529a10.2,10.2,0,0,1-1.325,5.105,9.451,9.451,0,0,1-3.554,3.636,9.744,9.744,0,0,1,.062,1.294,9.947,9.947,0,0,1-2.784,7.1A8.918,8.918,0,0,1,38.273,47.6a8.8,8.8,0,0,1-3.349-.647A10.187,10.187,0,0,1,31.37,51.03a9.151,9.151,0,0,1-10.179.031,9.957,9.957,0,0,1-3.523-4.109,8.758,8.758,0,0,1-3.349.647A9.015,9.015,0,0,1,7.57,44.662a9.862,9.862,0,0,1-2.814-7.1,10.983,10.983,0,0,1,.113-1.294,9.522,9.522,0,0,1-3.554-3.636,10.563,10.563,0,0,1,.154-10.477A9.054,9.054,0,0,1,5.4,18.551a10.157,10.157,0,0,1-.647-3.523A9.862,9.862,0,0,1,7.57,7.93a9.052,9.052,0,0,1,6.749-2.938,8.8,8.8,0,0,1,3.349.647,10.187,10.187,0,0,1,3.554-4.078,9.051,9.051,0,0,1,10.149-.01,10.265,10.265,0,0,1,3.554,4.078,8.758,8.758,0,0,1,3.349-.647A8.918,8.918,0,0,1,44.991,7.92a9.938,9.938,0,0,1,2.784,7.1,10.1,10.1,0,0,1-.585,3.523,9.054,9.054,0,0,1,3.934,3.605A10.312,10.312,0,0,1,52.592,27.529Zm-27.416,7.92,10.857-16.26a1.886,1.886,0,0,0,.267-1.407,1.721,1.721,0,0,0-.791-1.171,2,2,0,0,0-1.407-.3,1.8,1.8,0,0,0-1.233.76L23.307,31.452l-4.407-4.4a1.748,1.748,0,0,0-1.346-.555,2.078,2.078,0,0,0-1.346.555,1.8,1.8,0,0,0-.524,1.325,1.829,1.829,0,0,0,.524,1.325l6.05,6.05.3.236a1.882,1.882,0,0,0,1.058.349A1.721,1.721,0,0,0,25.176,35.448Z" fill="#0091ff" data-name="verified icon"/>
</g>
</svg>
